%TF.GenerationSoftware,KiCad,Pcbnew,8.0.4*%
%TF.CreationDate,2024-09-02T18:18:05-04:00*%
%TF.ProjectId,BTKeyboardAttempt,42544b65-7962-46f6-9172-64417474656d,rev?*%
%TF.SameCoordinates,Original*%
%TF.FileFunction,Soldermask,Bot*%
%TF.FilePolarity,Negative*%
%FSLAX46Y46*%
G04 Gerber Fmt 4.6, Leading zero omitted, Abs format (unit mm)*
G04 Created by KiCad (PCBNEW 8.0.4) date 2024-09-02 18:18:05*
%MOMM*%
%LPD*%
G01*
G04 APERTURE LIST*
G04 Aperture macros list*
%AMRoundRect*
0 Rectangle with rounded corners*
0 $1 Rounding radius*
0 $2 $3 $4 $5 $6 $7 $8 $9 X,Y pos of 4 corners*
0 Add a 4 corners polygon primitive as box body*
4,1,4,$2,$3,$4,$5,$6,$7,$8,$9,$2,$3,0*
0 Add four circle primitives for the rounded corners*
1,1,$1+$1,$2,$3*
1,1,$1+$1,$4,$5*
1,1,$1+$1,$6,$7*
1,1,$1+$1,$8,$9*
0 Add four rect primitives between the rounded corners*
20,1,$1+$1,$2,$3,$4,$5,0*
20,1,$1+$1,$4,$5,$6,$7,0*
20,1,$1+$1,$6,$7,$8,$9,0*
20,1,$1+$1,$8,$9,$2,$3,0*%
G04 Aperture macros list end*
%ADD10C,1.750000*%
%ADD11C,3.987800*%
%ADD12C,3.300000*%
%ADD13C,0.650000*%
%ADD14O,0.950000X0.650000*%
%ADD15O,0.800000X1.400000*%
%ADD16RoundRect,0.225000X0.375000X-0.225000X0.375000X0.225000X-0.375000X0.225000X-0.375000X-0.225000X0*%
%ADD17R,1.800000X1.100000*%
G04 APERTURE END LIST*
D10*
%TO.C,MX30*%
X148907500Y-132556250D03*
D11*
X153987500Y-132556250D03*
D10*
X159067500Y-132556250D03*
D12*
X157797500Y-130016250D03*
X151447500Y-127476250D03*
%TD*%
D10*
%TO.C,MX13*%
X91757500Y-94456250D03*
D11*
X96837500Y-94456250D03*
D10*
X101917500Y-94456250D03*
D12*
X100647500Y-91916250D03*
X94297500Y-89376250D03*
%TD*%
D10*
%TO.C,MX23*%
X129857500Y-94456250D03*
D11*
X134937500Y-94456250D03*
D10*
X140017500Y-94456250D03*
D12*
X138747500Y-91916250D03*
X132397500Y-89376250D03*
%TD*%
D10*
%TO.C,MX21*%
X129857500Y-56356250D03*
D11*
X134937500Y-56356250D03*
D10*
X140017500Y-56356250D03*
D12*
X138747500Y-53816250D03*
X132397500Y-51276250D03*
%TD*%
D10*
%TO.C,MX52*%
X244157500Y-75406250D03*
D11*
X249237500Y-75406250D03*
D10*
X254317500Y-75406250D03*
D12*
X253047500Y-72866250D03*
X246697500Y-70326250D03*
%TD*%
D10*
%TO.C,MX16*%
X110807500Y-56356250D03*
D11*
X115887500Y-56356250D03*
D10*
X120967500Y-56356250D03*
D12*
X119697500Y-53816250D03*
X113347500Y-51276250D03*
%TD*%
D10*
%TO.C,MX56*%
X263207500Y-56356250D03*
D11*
X268287500Y-56356250D03*
D10*
X273367500Y-56356250D03*
D12*
X272097500Y-53816250D03*
X265747500Y-51276250D03*
%TD*%
D10*
%TO.C,MX60*%
X263207500Y-132556250D03*
D11*
X268287500Y-132556250D03*
D10*
X273367500Y-132556250D03*
D12*
X272097500Y-130016250D03*
X265747500Y-127476250D03*
%TD*%
D13*
%TO.C,J1*%
X154249996Y-20100000D03*
D14*
X147049996Y-20100000D03*
D13*
X147849996Y-19450000D03*
X148249996Y-18750000D03*
X149049996Y-18750000D03*
X149449996Y-19450000D03*
X149849996Y-18750000D03*
X150249996Y-19450000D03*
X151049996Y-19450000D03*
X151449996Y-18750000D03*
X151849996Y-19450000D03*
X152249996Y-18750000D03*
X153049996Y-18750000D03*
X153449996Y-19450000D03*
D15*
X155139996Y-12900000D03*
X154779996Y-18850000D03*
X146519996Y-18850000D03*
X146159996Y-12900000D03*
%TD*%
D10*
%TO.C,MX6*%
X72707500Y-94456250D03*
D11*
X77787500Y-94456250D03*
D10*
X82867500Y-94456250D03*
D12*
X81597500Y-91916250D03*
X75247500Y-89376250D03*
%TD*%
D10*
%TO.C,MX3*%
X53657500Y-75406250D03*
D11*
X58737500Y-75406250D03*
D10*
X63817500Y-75406250D03*
D12*
X62547500Y-72866250D03*
X56197500Y-70326250D03*
%TD*%
D10*
%TO.C,MX42*%
X206057500Y-75406250D03*
D11*
X211137500Y-75406250D03*
D10*
X216217500Y-75406250D03*
D12*
X214947500Y-72866250D03*
X208597500Y-70326250D03*
%TD*%
D10*
%TO.C,MX45*%
X206057500Y-132556250D03*
D11*
X211137500Y-132556250D03*
D10*
X216217500Y-132556250D03*
D12*
X214947500Y-130016250D03*
X208597500Y-127476250D03*
%TD*%
D10*
%TO.C,MX8*%
X72707500Y-113506250D03*
D11*
X77787500Y-113506250D03*
D10*
X82867500Y-113506250D03*
D12*
X81597500Y-110966250D03*
X75247500Y-108426250D03*
%TD*%
D10*
%TO.C,MX35*%
X167957500Y-132556250D03*
D11*
X173037500Y-132556250D03*
D10*
X178117500Y-132556250D03*
D12*
X176847500Y-130016250D03*
X170497500Y-127476250D03*
%TD*%
D10*
%TO.C,MX36*%
X187007500Y-56356250D03*
D11*
X192087500Y-56356250D03*
D10*
X197167500Y-56356250D03*
D12*
X195897500Y-53816250D03*
X189547500Y-51276250D03*
%TD*%
D10*
%TO.C,MX1*%
X53657500Y-56356250D03*
D11*
X58737500Y-56356250D03*
D10*
X63817500Y-56356250D03*
D12*
X62547500Y-53816250D03*
X56197500Y-51276250D03*
%TD*%
D10*
%TO.C,MX55*%
X244157500Y-132556250D03*
D11*
X249237500Y-132556250D03*
D10*
X254317500Y-132556250D03*
D12*
X253047500Y-130016250D03*
X246697500Y-127476250D03*
%TD*%
D10*
%TO.C,MX9*%
X53657500Y-132556250D03*
D11*
X58737500Y-132556250D03*
D10*
X63817500Y-132556250D03*
D12*
X62547500Y-130016250D03*
X56197500Y-127476250D03*
%TD*%
D10*
%TO.C,MX39*%
X187007500Y-113506250D03*
D11*
X192087500Y-113506250D03*
D10*
X197167500Y-113506250D03*
D12*
X195897500Y-110966250D03*
X189547500Y-108426250D03*
%TD*%
D10*
%TO.C,MX11*%
X91757500Y-56356250D03*
D11*
X96837500Y-56356250D03*
D10*
X101917500Y-56356250D03*
D12*
X100647500Y-53816250D03*
X94297500Y-51276250D03*
%TD*%
D10*
%TO.C,MX24*%
X129857500Y-113506250D03*
D11*
X134937500Y-113506250D03*
D10*
X140017500Y-113506250D03*
D12*
X138747500Y-110966250D03*
X132397500Y-108426250D03*
%TD*%
D10*
%TO.C,MX37*%
X187007500Y-75406250D03*
D11*
X192087500Y-75406250D03*
D10*
X197167500Y-75406250D03*
D12*
X195897500Y-72866250D03*
X189547500Y-70326250D03*
%TD*%
D10*
%TO.C,MX32*%
X167957500Y-75406250D03*
D11*
X173037500Y-75406250D03*
D10*
X178117500Y-75406250D03*
D12*
X176847500Y-72866250D03*
X170497500Y-70326250D03*
%TD*%
D10*
%TO.C,MX20*%
X110807500Y-132556250D03*
D11*
X115887500Y-132556250D03*
D10*
X120967500Y-132556250D03*
D12*
X119697500Y-130016250D03*
X113347500Y-127476250D03*
%TD*%
D10*
%TO.C,MX48*%
X225107500Y-94456250D03*
D11*
X230187500Y-94456250D03*
D10*
X235267500Y-94456250D03*
D12*
X233997500Y-91916250D03*
X227647500Y-89376250D03*
%TD*%
D10*
%TO.C,MX33*%
X167957500Y-94456250D03*
D11*
X173037500Y-94456250D03*
D10*
X178117500Y-94456250D03*
D12*
X176847500Y-91916250D03*
X170497500Y-89376250D03*
%TD*%
D10*
%TO.C,MX2*%
X72707500Y-56356250D03*
D11*
X77787500Y-56356250D03*
D10*
X82867500Y-56356250D03*
D12*
X81597500Y-53816250D03*
X75247500Y-51276250D03*
%TD*%
D10*
%TO.C,MX15*%
X91757500Y-132556250D03*
D11*
X96837500Y-132556250D03*
D10*
X101917500Y-132556250D03*
D12*
X100647500Y-130016250D03*
X94297500Y-127476250D03*
%TD*%
D10*
%TO.C,MX5*%
X53657500Y-94456250D03*
D11*
X58737500Y-94456250D03*
D10*
X63817500Y-94456250D03*
D12*
X62547500Y-91916250D03*
X56197500Y-89376250D03*
%TD*%
D10*
%TO.C,MX53*%
X244157500Y-94456250D03*
D11*
X249237500Y-94456250D03*
D10*
X254317500Y-94456250D03*
D12*
X253047500Y-91916250D03*
X246697500Y-89376250D03*
%TD*%
D10*
%TO.C,MX46*%
X225107500Y-56356250D03*
D11*
X230187500Y-56356250D03*
D10*
X235267500Y-56356250D03*
D12*
X233997500Y-53816250D03*
X227647500Y-51276250D03*
%TD*%
D10*
%TO.C,MX57*%
X263207500Y-75406250D03*
D11*
X268287500Y-75406250D03*
D10*
X273367500Y-75406250D03*
D12*
X272097500Y-72866250D03*
X265747500Y-70326250D03*
%TD*%
D10*
%TO.C,MX31*%
X167957500Y-56356250D03*
D11*
X173037500Y-56356250D03*
D10*
X178117500Y-56356250D03*
D12*
X176847500Y-53816250D03*
X170497500Y-51276250D03*
%TD*%
D10*
%TO.C,MX25*%
X129857500Y-132556250D03*
D11*
X134937500Y-132556250D03*
D10*
X140017500Y-132556250D03*
D12*
X138747500Y-130016250D03*
X132397500Y-127476250D03*
%TD*%
D10*
%TO.C,MX41*%
X206057500Y-56356250D03*
D11*
X211137500Y-56356250D03*
D10*
X216217500Y-56356250D03*
D12*
X214947500Y-53816250D03*
X208597500Y-51276250D03*
%TD*%
D10*
%TO.C,MX7*%
X53657500Y-113506250D03*
D11*
X58737500Y-113506250D03*
D10*
X63817500Y-113506250D03*
D12*
X62547500Y-110966250D03*
X56197500Y-108426250D03*
%TD*%
D10*
%TO.C,MX27*%
X148907500Y-75406250D03*
D11*
X153987500Y-75406250D03*
D10*
X159067500Y-75406250D03*
D12*
X157797500Y-72866250D03*
X151447500Y-70326250D03*
%TD*%
D10*
%TO.C,MX18*%
X110807500Y-94456250D03*
D11*
X115887500Y-94456250D03*
D10*
X120967500Y-94456250D03*
D12*
X119697500Y-91916250D03*
X113347500Y-89376250D03*
%TD*%
D10*
%TO.C,MX50*%
X225107500Y-132556250D03*
D11*
X230187500Y-132556250D03*
D10*
X235267500Y-132556250D03*
D12*
X233997500Y-130016250D03*
X227647500Y-127476250D03*
%TD*%
D10*
%TO.C,MX51*%
X244157500Y-56356250D03*
D11*
X249237500Y-56356250D03*
D10*
X254317500Y-56356250D03*
D12*
X253047500Y-53816250D03*
X246697500Y-51276250D03*
%TD*%
D10*
%TO.C,MX40*%
X187007500Y-132556250D03*
D11*
X192087500Y-132556250D03*
D10*
X197167500Y-132556250D03*
D12*
X195897500Y-130016250D03*
X189547500Y-127476250D03*
%TD*%
D10*
%TO.C,MX12*%
X91757500Y-75406250D03*
D11*
X96837500Y-75406250D03*
D10*
X101917500Y-75406250D03*
D12*
X100647500Y-72866250D03*
X94297500Y-70326250D03*
%TD*%
D10*
%TO.C,MX47*%
X225107500Y-75406250D03*
D11*
X230187500Y-75406250D03*
D10*
X235267500Y-75406250D03*
D12*
X233997500Y-72866250D03*
X227647500Y-70326250D03*
%TD*%
D10*
%TO.C,MX58*%
X263207500Y-94456250D03*
D11*
X268287500Y-94456250D03*
D10*
X273367500Y-94456250D03*
D12*
X272097500Y-91916250D03*
X265747500Y-89376250D03*
%TD*%
D10*
%TO.C,MX59*%
X263207500Y-113506250D03*
D11*
X268287500Y-113506250D03*
D10*
X273367500Y-113506250D03*
D12*
X272097500Y-110966250D03*
X265747500Y-108426250D03*
%TD*%
D10*
%TO.C,MX43*%
X206057500Y-94456250D03*
D11*
X211137500Y-94456250D03*
D10*
X216217500Y-94456250D03*
D12*
X214947500Y-91916250D03*
X208597500Y-89376250D03*
%TD*%
D10*
%TO.C,MX54*%
X244157500Y-113506250D03*
D11*
X249237500Y-113506250D03*
D10*
X254317500Y-113506250D03*
D12*
X253047500Y-110966250D03*
X246697500Y-108426250D03*
%TD*%
D10*
%TO.C,MX19*%
X110807500Y-113506250D03*
D11*
X115887500Y-113506250D03*
D10*
X120967500Y-113506250D03*
D12*
X119697500Y-110966250D03*
X113347500Y-108426250D03*
%TD*%
D10*
%TO.C,MX14*%
X91757500Y-113506250D03*
D11*
X96837500Y-113506250D03*
D10*
X101917500Y-113506250D03*
D12*
X100647500Y-110966250D03*
X94297500Y-108426250D03*
%TD*%
D10*
%TO.C,MX22*%
X129857500Y-75406250D03*
D11*
X134937500Y-75406250D03*
D10*
X140017500Y-75406250D03*
D12*
X138747500Y-72866250D03*
X132397500Y-70326250D03*
%TD*%
D10*
%TO.C,MX26*%
X148907500Y-56356250D03*
D11*
X153987500Y-56356250D03*
D10*
X159067500Y-56356250D03*
D12*
X157797500Y-53816250D03*
X151447500Y-51276250D03*
%TD*%
D10*
%TO.C,MX28*%
X148907500Y-94456250D03*
D11*
X153987500Y-94456250D03*
D10*
X159067500Y-94456250D03*
D12*
X157797500Y-91916250D03*
X151447500Y-89376250D03*
%TD*%
D10*
%TO.C,MX49*%
X225107500Y-113506250D03*
D11*
X230187500Y-113506250D03*
D10*
X235267500Y-113506250D03*
D12*
X233997500Y-110966250D03*
X227647500Y-108426250D03*
%TD*%
D10*
%TO.C,MX44*%
X206057500Y-113506250D03*
D11*
X211137500Y-113506250D03*
D10*
X216217500Y-113506250D03*
D12*
X214947500Y-110966250D03*
X208597500Y-108426250D03*
%TD*%
D10*
%TO.C,MX4*%
X72707500Y-75406250D03*
D11*
X77787500Y-75406250D03*
D10*
X82867500Y-75406250D03*
D12*
X81597500Y-72866250D03*
X75247500Y-70326250D03*
%TD*%
D10*
%TO.C,MX38*%
X187007500Y-94456250D03*
D11*
X192087500Y-94456250D03*
D10*
X197167500Y-94456250D03*
D12*
X195897500Y-91916250D03*
X189547500Y-89376250D03*
%TD*%
D10*
%TO.C,MX29*%
X148907500Y-113506250D03*
D11*
X153987500Y-113506250D03*
D10*
X159067500Y-113506250D03*
D12*
X157797500Y-110966250D03*
X151447500Y-108426250D03*
%TD*%
D10*
%TO.C,MX10*%
X72707500Y-132556250D03*
D11*
X77787500Y-132556250D03*
D10*
X82867500Y-132556250D03*
D12*
X81597500Y-130016250D03*
X75247500Y-127476250D03*
%TD*%
D10*
%TO.C,MX34*%
X167957500Y-113506250D03*
D11*
X173037500Y-113506250D03*
D10*
X178117500Y-113506250D03*
D12*
X176847500Y-110966250D03*
X170497500Y-108426250D03*
%TD*%
D10*
%TO.C,MX17*%
X110807500Y-75406250D03*
D11*
X115887500Y-75406250D03*
D10*
X120967500Y-75406250D03*
D12*
X119697500Y-72866250D03*
X113347500Y-70326250D03*
%TD*%
D16*
%TO.C,D11*%
X91281250Y-61975000D03*
X91281250Y-58675000D03*
%TD*%
%TO.C,D3*%
X53181250Y-80962500D03*
X53181250Y-77662500D03*
%TD*%
%TO.C,D28*%
X148431250Y-100012500D03*
X148431250Y-96712500D03*
%TD*%
%TO.C,D32*%
X167481250Y-80962500D03*
X167481250Y-77662500D03*
%TD*%
%TO.C,D12*%
X91281250Y-80962500D03*
X91281250Y-77662500D03*
%TD*%
%TO.C,D43*%
X205581250Y-100075000D03*
X205581250Y-96775000D03*
%TD*%
%TO.C,D40*%
X186531250Y-138112500D03*
X186531250Y-134812500D03*
%TD*%
%TO.C,D38*%
X186531250Y-100075000D03*
X186531250Y-96775000D03*
%TD*%
%TO.C,D49*%
X224631250Y-119062500D03*
X224631250Y-115762500D03*
%TD*%
%TO.C,D51*%
X243681250Y-61912500D03*
X243681250Y-58612500D03*
%TD*%
%TO.C,D53*%
X243681250Y-100012500D03*
X243681250Y-96712500D03*
%TD*%
%TO.C,D60*%
X262731250Y-138112500D03*
X262731250Y-134812500D03*
%TD*%
%TO.C,D5*%
X53181250Y-100012500D03*
X53181250Y-96712500D03*
%TD*%
%TO.C,D14*%
X91281250Y-119125000D03*
X91281250Y-115825000D03*
%TD*%
%TO.C,D50*%
X224631250Y-138175000D03*
X224631250Y-134875000D03*
%TD*%
%TO.C,D48*%
X224631250Y-100075000D03*
X224631250Y-96775000D03*
%TD*%
%TO.C,D10*%
X72231250Y-138175000D03*
X72231250Y-134875000D03*
%TD*%
%TO.C,D7*%
X53181250Y-119062500D03*
X53181250Y-115762500D03*
%TD*%
%TO.C,D26*%
X148431250Y-61912500D03*
X148431250Y-58612500D03*
%TD*%
%TO.C,D15*%
X91281250Y-138112500D03*
X91281250Y-134812500D03*
%TD*%
%TO.C,D9*%
X53181250Y-138175000D03*
X53181250Y-134875000D03*
%TD*%
%TO.C,D59*%
X262731250Y-119062500D03*
X262731250Y-115762500D03*
%TD*%
%TO.C,D19*%
X110331250Y-119062500D03*
X110331250Y-115762500D03*
%TD*%
%TO.C,D36*%
X186531250Y-61975000D03*
X186531250Y-58675000D03*
%TD*%
%TO.C,D22*%
X129381250Y-80962500D03*
X129381250Y-77662500D03*
%TD*%
%TO.C,D25*%
X129381250Y-138112500D03*
X129381250Y-134812500D03*
%TD*%
%TO.C,D23*%
X129381250Y-100012500D03*
X129381250Y-96712500D03*
%TD*%
%TO.C,D6*%
X72231250Y-100012500D03*
X72231250Y-96712500D03*
%TD*%
%TO.C,D2*%
X72231250Y-61975000D03*
X72231250Y-58675000D03*
%TD*%
%TO.C,D8*%
X72231250Y-119062500D03*
X72231250Y-115762500D03*
%TD*%
%TO.C,D4*%
X72231250Y-80962500D03*
X72231250Y-77662500D03*
%TD*%
%TO.C,D41*%
X205581250Y-61975000D03*
X205581250Y-58675000D03*
%TD*%
%TO.C,D16*%
X110331250Y-61975000D03*
X110331250Y-58675000D03*
%TD*%
%TO.C,D35*%
X167481250Y-138112500D03*
X167481250Y-134812500D03*
%TD*%
%TO.C,D45*%
X205581250Y-138112500D03*
X205581250Y-134812500D03*
%TD*%
%TO.C,D31*%
X167481250Y-61912500D03*
X167481250Y-58612500D03*
%TD*%
%TO.C,D1*%
X53181250Y-61975000D03*
X53181250Y-58675000D03*
%TD*%
%TO.C,D44*%
X205581250Y-119062500D03*
X205581250Y-115762500D03*
%TD*%
%TO.C,D18*%
X110331250Y-100012500D03*
X110331250Y-96712500D03*
%TD*%
%TO.C,D55*%
X243681250Y-138112500D03*
X243681250Y-134812500D03*
%TD*%
%TO.C,D39*%
X186531250Y-119187500D03*
X186531250Y-115887500D03*
%TD*%
%TO.C,D21*%
X129381250Y-61912500D03*
X129381250Y-58612500D03*
%TD*%
%TO.C,D13*%
X91281250Y-100012500D03*
X91281250Y-96712500D03*
%TD*%
%TO.C,D56*%
X262731250Y-62037500D03*
X262731250Y-58737500D03*
%TD*%
%TO.C,D37*%
X186531250Y-80962500D03*
X186531250Y-77662500D03*
%TD*%
%TO.C,D20*%
X110331250Y-138112500D03*
X110331250Y-134812500D03*
%TD*%
%TO.C,D29*%
X148431250Y-119062500D03*
X148431250Y-115762500D03*
%TD*%
%TO.C,D30*%
X148431250Y-138112500D03*
X148431250Y-134812500D03*
%TD*%
%TO.C,D52*%
X243681250Y-81025000D03*
X243681250Y-77725000D03*
%TD*%
D17*
%TO.C,SW1*%
X136000000Y-14881250D03*
X129800000Y-18581250D03*
X136000000Y-18581250D03*
X129800000Y-14881250D03*
%TD*%
D16*
%TO.C,D57*%
X262731250Y-80962500D03*
X262731250Y-77662500D03*
%TD*%
%TO.C,D42*%
X205581250Y-80962500D03*
X205581250Y-77662500D03*
%TD*%
%TO.C,D47*%
X224631250Y-80962500D03*
X224631250Y-77662500D03*
%TD*%
%TO.C,D27*%
X148431250Y-80962500D03*
X148431250Y-77662500D03*
%TD*%
%TO.C,D58*%
X262731250Y-100075000D03*
X262731250Y-96775000D03*
%TD*%
%TO.C,D24*%
X129381250Y-119062500D03*
X129381250Y-115762500D03*
%TD*%
%TO.C,D46*%
X224631250Y-61912500D03*
X224631250Y-58612500D03*
%TD*%
%TO.C,D17*%
X110331250Y-81025000D03*
X110331250Y-77725000D03*
%TD*%
%TO.C,D54*%
X243681250Y-119062500D03*
X243681250Y-115762500D03*
%TD*%
%TO.C,D34*%
X167481250Y-119062500D03*
X167481250Y-115762500D03*
%TD*%
%TO.C,D33*%
X167481250Y-100012500D03*
X167481250Y-96712500D03*
%TD*%
M02*
