%TF.GenerationSoftware,KiCad,Pcbnew,8.0.4*%
%TF.CreationDate,2024-09-02T18:18:05-04:00*%
%TF.ProjectId,BTKeyboardAttempt,42544b65-7962-46f6-9172-64417474656d,rev?*%
%TF.SameCoordinates,Original*%
%TF.FileFunction,Paste,Top*%
%TF.FilePolarity,Positive*%
%FSLAX46Y46*%
G04 Gerber Fmt 4.6, Leading zero omitted, Abs format (unit mm)*
G04 Created by KiCad (PCBNEW 8.0.4) date 2024-09-02 18:18:05*
%MOMM*%
%LPD*%
G01*
G04 APERTURE LIST*
G04 Aperture macros list*
%AMRoundRect*
0 Rectangle with rounded corners*
0 $1 Rounding radius*
0 $2 $3 $4 $5 $6 $7 $8 $9 X,Y pos of 4 corners*
0 Add a 4 corners polygon primitive as box body*
4,1,4,$2,$3,$4,$5,$6,$7,$8,$9,$2,$3,0*
0 Add four circle primitives for the rounded corners*
1,1,$1+$1,$2,$3*
1,1,$1+$1,$4,$5*
1,1,$1+$1,$6,$7*
1,1,$1+$1,$8,$9*
0 Add four rect primitives between the rounded corners*
20,1,$1+$1,$2,$3,$4,$5,0*
20,1,$1+$1,$4,$5,$6,$7,0*
20,1,$1+$1,$6,$7,$8,$9,0*
20,1,$1+$1,$8,$9,$2,$3,0*%
G04 Aperture macros list end*
%ADD10RoundRect,0.250000X-0.450000X0.262500X-0.450000X-0.262500X0.450000X-0.262500X0.450000X0.262500X0*%
%ADD11RoundRect,0.250000X-1.025000X-1.000000X1.025000X-1.000000X1.025000X1.000000X-1.025000X1.000000X0*%
%ADD12R,1.200000X1.400000*%
%ADD13RoundRect,0.250000X-0.262500X-0.450000X0.262500X-0.450000X0.262500X0.450000X-0.262500X0.450000X0*%
%ADD14R,0.300000X0.700000*%
%ADD15R,0.550000X1.500000*%
%ADD16R,1.500000X0.550000*%
%ADD17RoundRect,0.250000X0.250000X0.475000X-0.250000X0.475000X-0.250000X-0.475000X0.250000X-0.475000X0*%
%ADD18RoundRect,0.250000X0.450000X-0.262500X0.450000X0.262500X-0.450000X0.262500X-0.450000X-0.262500X0*%
%ADD19RoundRect,0.250000X-0.250000X-0.475000X0.250000X-0.475000X0.250000X0.475000X-0.250000X0.475000X0*%
%ADD20RoundRect,0.250000X0.475000X-0.250000X0.475000X0.250000X-0.475000X0.250000X-0.475000X-0.250000X0*%
G04 APERTURE END LIST*
D10*
%TO.C,R3*%
X148899996Y-24002500D03*
X148899996Y-25827500D03*
%TD*%
D11*
%TO.C,MX30*%
X161347500Y-130016250D03*
X147897500Y-127476250D03*
%TD*%
%TO.C,MX13*%
X104197500Y-91916250D03*
X90747500Y-89376250D03*
%TD*%
%TO.C,MX23*%
X142297500Y-91916250D03*
X128847500Y-89376250D03*
%TD*%
%TO.C,MX21*%
X142297500Y-53816250D03*
X128847500Y-51276250D03*
%TD*%
%TO.C,MX52*%
X256597500Y-72866250D03*
X243147500Y-70326250D03*
%TD*%
D12*
%TO.C,Y1*%
X119250000Y-35581250D03*
X119250000Y-33381250D03*
X117550000Y-33381250D03*
X117550000Y-35581250D03*
%TD*%
D11*
%TO.C,MX16*%
X123247500Y-53816250D03*
X109797500Y-51276250D03*
%TD*%
%TO.C,MX56*%
X275647500Y-53816250D03*
X262197500Y-51276250D03*
%TD*%
D13*
%TO.C,R4*%
X121237500Y-23231250D03*
X123062500Y-23231250D03*
%TD*%
D11*
%TO.C,MX60*%
X275647500Y-130016250D03*
X262197500Y-127476250D03*
%TD*%
D14*
%TO.C,J1*%
X153399996Y-20760000D03*
X152899996Y-20760000D03*
X152399996Y-20760000D03*
X151899996Y-20760000D03*
X151399996Y-20760000D03*
X150899996Y-20760000D03*
X150399996Y-20760000D03*
X149899996Y-20760000D03*
X149399996Y-20760000D03*
X148899996Y-20760000D03*
X148399996Y-20760000D03*
X147899996Y-20760000D03*
%TD*%
D11*
%TO.C,MX6*%
X85147500Y-91916250D03*
X71697500Y-89376250D03*
%TD*%
%TO.C,MX3*%
X66097500Y-72866250D03*
X52647500Y-70326250D03*
%TD*%
%TO.C,MX42*%
X218497500Y-72866250D03*
X205047500Y-70326250D03*
%TD*%
%TO.C,MX45*%
X218497500Y-130016250D03*
X205047500Y-127476250D03*
%TD*%
%TO.C,MX8*%
X85147500Y-110966250D03*
X71697500Y-108426250D03*
%TD*%
%TO.C,MX35*%
X180397500Y-130016250D03*
X166947500Y-127476250D03*
%TD*%
%TO.C,MX36*%
X199447500Y-53816250D03*
X185997500Y-51276250D03*
%TD*%
%TO.C,MX1*%
X66097500Y-53816250D03*
X52647500Y-51276250D03*
%TD*%
%TO.C,MX55*%
X256597500Y-130016250D03*
X243147500Y-127476250D03*
%TD*%
%TO.C,MX9*%
X66097500Y-130016250D03*
X52647500Y-127476250D03*
%TD*%
%TO.C,MX39*%
X199447500Y-110966250D03*
X185997500Y-108426250D03*
%TD*%
%TO.C,MX11*%
X104197500Y-53816250D03*
X90747500Y-51276250D03*
%TD*%
%TO.C,MX24*%
X142297500Y-110966250D03*
X128847500Y-108426250D03*
%TD*%
%TO.C,MX37*%
X199447500Y-72866250D03*
X185997500Y-70326250D03*
%TD*%
%TO.C,MX32*%
X180397500Y-72866250D03*
X166947500Y-70326250D03*
%TD*%
%TO.C,MX20*%
X123247500Y-130016250D03*
X109797500Y-127476250D03*
%TD*%
D10*
%TO.C,R6*%
X159250000Y-16337500D03*
X159250000Y-18162500D03*
%TD*%
D11*
%TO.C,MX48*%
X237547500Y-91916250D03*
X224097500Y-89376250D03*
%TD*%
%TO.C,MX33*%
X180397500Y-91916250D03*
X166947500Y-89376250D03*
%TD*%
%TO.C,MX2*%
X85147500Y-53816250D03*
X71697500Y-51276250D03*
%TD*%
%TO.C,MX15*%
X104197500Y-130016250D03*
X90747500Y-127476250D03*
%TD*%
%TO.C,MX5*%
X66097500Y-91916250D03*
X52647500Y-89376250D03*
%TD*%
%TO.C,MX53*%
X256597500Y-91916250D03*
X243147500Y-89376250D03*
%TD*%
%TO.C,MX46*%
X237547500Y-53816250D03*
X224097500Y-51276250D03*
%TD*%
%TO.C,MX57*%
X275647500Y-72866250D03*
X262197500Y-70326250D03*
%TD*%
%TO.C,MX31*%
X180397500Y-53816250D03*
X166947500Y-51276250D03*
%TD*%
D15*
%TO.C,U2*%
X134150000Y-29000000D03*
X133350000Y-29000000D03*
X132550000Y-29000000D03*
X131750000Y-29000000D03*
X130950000Y-29000000D03*
X130150000Y-29000000D03*
X129350000Y-29000000D03*
X128550000Y-29000000D03*
X127750000Y-29000000D03*
X126950000Y-29000000D03*
X126150000Y-29000000D03*
D16*
X124450000Y-30700000D03*
X124450000Y-31500000D03*
X124450000Y-32300000D03*
X124450000Y-33100000D03*
X124450000Y-33900000D03*
X124450000Y-34700000D03*
X124450000Y-35500000D03*
X124450000Y-36300000D03*
X124450000Y-37100000D03*
X124450000Y-37900000D03*
X124450000Y-38700000D03*
D15*
X126150000Y-40400000D03*
X126950000Y-40400000D03*
X127750000Y-40400000D03*
X128550000Y-40400000D03*
X129350000Y-40400000D03*
X130150000Y-40400000D03*
X130950000Y-40400000D03*
X131750000Y-40400000D03*
X132550000Y-40400000D03*
X133350000Y-40400000D03*
X134150000Y-40400000D03*
D16*
X135850000Y-38700000D03*
X135850000Y-37900000D03*
X135850000Y-37100000D03*
X135850000Y-36300000D03*
X135850000Y-35500000D03*
X135850000Y-34700000D03*
X135850000Y-33900000D03*
X135850000Y-33100000D03*
X135850000Y-32300000D03*
X135850000Y-31500000D03*
X135850000Y-30700000D03*
%TD*%
D11*
%TO.C,MX25*%
X142297500Y-130016250D03*
X128847500Y-127476250D03*
%TD*%
D17*
%TO.C,C4*%
X123100000Y-26481250D03*
X121200000Y-26481250D03*
%TD*%
D11*
%TO.C,MX41*%
X218497500Y-53816250D03*
X205047500Y-51276250D03*
%TD*%
%TO.C,MX7*%
X66097500Y-110966250D03*
X52647500Y-108426250D03*
%TD*%
D18*
%TO.C,R5*%
X159250000Y-21912500D03*
X159250000Y-20087500D03*
%TD*%
D11*
%TO.C,MX27*%
X161347500Y-72866250D03*
X147897500Y-70326250D03*
%TD*%
%TO.C,MX18*%
X123247500Y-91916250D03*
X109797500Y-89376250D03*
%TD*%
%TO.C,MX50*%
X237547500Y-130016250D03*
X224097500Y-127476250D03*
%TD*%
D17*
%TO.C,C3*%
X126850000Y-43731250D03*
X124950000Y-43731250D03*
%TD*%
D11*
%TO.C,MX51*%
X256597500Y-53816250D03*
X243147500Y-51276250D03*
%TD*%
%TO.C,MX40*%
X199447500Y-130016250D03*
X185997500Y-127476250D03*
%TD*%
%TO.C,MX12*%
X104197500Y-72866250D03*
X90747500Y-70326250D03*
%TD*%
%TO.C,MX47*%
X237547500Y-72866250D03*
X224097500Y-70326250D03*
%TD*%
%TO.C,MX58*%
X275647500Y-91916250D03*
X262197500Y-89376250D03*
%TD*%
%TO.C,MX59*%
X275647500Y-110966250D03*
X262197500Y-108426250D03*
%TD*%
%TO.C,MX43*%
X218497500Y-91916250D03*
X205047500Y-89376250D03*
%TD*%
D19*
%TO.C,C6*%
X117450000Y-37731250D03*
X119350000Y-37731250D03*
%TD*%
D11*
%TO.C,MX54*%
X256597500Y-110966250D03*
X243147500Y-108426250D03*
%TD*%
%TO.C,MX19*%
X123247500Y-110966250D03*
X109797500Y-108426250D03*
%TD*%
%TO.C,MX14*%
X104197500Y-110966250D03*
X90747500Y-108426250D03*
%TD*%
D19*
%TO.C,C5*%
X134200000Y-25481250D03*
X136100000Y-25481250D03*
%TD*%
D11*
%TO.C,MX22*%
X142297500Y-72866250D03*
X128847500Y-70326250D03*
%TD*%
D13*
%TO.C,R1*%
X135587500Y-44481250D03*
X137412500Y-44481250D03*
%TD*%
D11*
%TO.C,MX26*%
X161347500Y-53816250D03*
X147897500Y-51276250D03*
%TD*%
%TO.C,MX28*%
X161347500Y-91916250D03*
X147897500Y-89376250D03*
%TD*%
D17*
%TO.C,C7*%
X119350000Y-31231250D03*
X117450000Y-31231250D03*
%TD*%
D11*
%TO.C,MX49*%
X237547500Y-110966250D03*
X224097500Y-108426250D03*
%TD*%
D20*
%TO.C,C1*%
X125750000Y-25200000D03*
X125750000Y-23300000D03*
%TD*%
D11*
%TO.C,MX44*%
X218497500Y-110966250D03*
X205047500Y-108426250D03*
%TD*%
D10*
%TO.C,R2*%
X152649996Y-24077500D03*
X152649996Y-25902500D03*
%TD*%
D11*
%TO.C,MX4*%
X85147500Y-72866250D03*
X71697500Y-70326250D03*
%TD*%
%TO.C,MX38*%
X199447500Y-91916250D03*
X185997500Y-89376250D03*
%TD*%
%TO.C,MX29*%
X161347500Y-110966250D03*
X147897500Y-108426250D03*
%TD*%
%TO.C,MX10*%
X85147500Y-130016250D03*
X71697500Y-127476250D03*
%TD*%
%TO.C,MX34*%
X180397500Y-110966250D03*
X166947500Y-108426250D03*
%TD*%
%TO.C,MX17*%
X123247500Y-72866250D03*
X109797500Y-70326250D03*
%TD*%
D20*
%TO.C,C2*%
X139150000Y-39681250D03*
X139150000Y-37781250D03*
%TD*%
M02*
