%TF.GenerationSoftware,KiCad,Pcbnew,8.0.4*%
%TF.CreationDate,2024-09-02T18:18:05-04:00*%
%TF.ProjectId,BTKeyboardAttempt,42544b65-7962-46f6-9172-64417474656d,rev?*%
%TF.SameCoordinates,Original*%
%TF.FileFunction,Legend,Top*%
%TF.FilePolarity,Positive*%
%FSLAX46Y46*%
G04 Gerber Fmt 4.6, Leading zero omitted, Abs format (unit mm)*
G04 Created by KiCad (PCBNEW 8.0.4) date 2024-09-02 18:18:05*
%MOMM*%
%LPD*%
G01*
G04 APERTURE LIST*
%ADD10C,0.150000*%
%ADD11C,0.120000*%
G04 APERTURE END LIST*
D10*
X151004815Y-25081666D02*
X150528624Y-25414999D01*
X151004815Y-25653094D02*
X150004815Y-25653094D01*
X150004815Y-25653094D02*
X150004815Y-25272142D01*
X150004815Y-25272142D02*
X150052434Y-25176904D01*
X150052434Y-25176904D02*
X150100053Y-25129285D01*
X150100053Y-25129285D02*
X150195291Y-25081666D01*
X150195291Y-25081666D02*
X150338148Y-25081666D01*
X150338148Y-25081666D02*
X150433386Y-25129285D01*
X150433386Y-25129285D02*
X150481005Y-25176904D01*
X150481005Y-25176904D02*
X150528624Y-25272142D01*
X150528624Y-25272142D02*
X150528624Y-25653094D01*
X150004815Y-24748332D02*
X150004815Y-24129285D01*
X150004815Y-24129285D02*
X150385767Y-24462618D01*
X150385767Y-24462618D02*
X150385767Y-24319761D01*
X150385767Y-24319761D02*
X150433386Y-24224523D01*
X150433386Y-24224523D02*
X150481005Y-24176904D01*
X150481005Y-24176904D02*
X150576243Y-24129285D01*
X150576243Y-24129285D02*
X150814338Y-24129285D01*
X150814338Y-24129285D02*
X150909576Y-24176904D01*
X150909576Y-24176904D02*
X150957196Y-24224523D01*
X150957196Y-24224523D02*
X151004815Y-24319761D01*
X151004815Y-24319761D02*
X151004815Y-24605475D01*
X151004815Y-24605475D02*
X150957196Y-24700713D01*
X150957196Y-24700713D02*
X150909576Y-24748332D01*
X147975595Y-131261069D02*
X147975595Y-130261069D01*
X147975595Y-130261069D02*
X148308928Y-130975354D01*
X148308928Y-130975354D02*
X148642261Y-130261069D01*
X148642261Y-130261069D02*
X148642261Y-131261069D01*
X149023214Y-130261069D02*
X149689880Y-131261069D01*
X149689880Y-130261069D02*
X149023214Y-131261069D01*
X149975595Y-130261069D02*
X150594642Y-130261069D01*
X150594642Y-130261069D02*
X150261309Y-130642021D01*
X150261309Y-130642021D02*
X150404166Y-130642021D01*
X150404166Y-130642021D02*
X150499404Y-130689640D01*
X150499404Y-130689640D02*
X150547023Y-130737259D01*
X150547023Y-130737259D02*
X150594642Y-130832497D01*
X150594642Y-130832497D02*
X150594642Y-131070592D01*
X150594642Y-131070592D02*
X150547023Y-131165830D01*
X150547023Y-131165830D02*
X150499404Y-131213450D01*
X150499404Y-131213450D02*
X150404166Y-131261069D01*
X150404166Y-131261069D02*
X150118452Y-131261069D01*
X150118452Y-131261069D02*
X150023214Y-131213450D01*
X150023214Y-131213450D02*
X149975595Y-131165830D01*
X151213690Y-130261069D02*
X151308928Y-130261069D01*
X151308928Y-130261069D02*
X151404166Y-130308688D01*
X151404166Y-130308688D02*
X151451785Y-130356307D01*
X151451785Y-130356307D02*
X151499404Y-130451545D01*
X151499404Y-130451545D02*
X151547023Y-130642021D01*
X151547023Y-130642021D02*
X151547023Y-130880116D01*
X151547023Y-130880116D02*
X151499404Y-131070592D01*
X151499404Y-131070592D02*
X151451785Y-131165830D01*
X151451785Y-131165830D02*
X151404166Y-131213450D01*
X151404166Y-131213450D02*
X151308928Y-131261069D01*
X151308928Y-131261069D02*
X151213690Y-131261069D01*
X151213690Y-131261069D02*
X151118452Y-131213450D01*
X151118452Y-131213450D02*
X151070833Y-131165830D01*
X151070833Y-131165830D02*
X151023214Y-131070592D01*
X151023214Y-131070592D02*
X150975595Y-130880116D01*
X150975595Y-130880116D02*
X150975595Y-130642021D01*
X150975595Y-130642021D02*
X151023214Y-130451545D01*
X151023214Y-130451545D02*
X151070833Y-130356307D01*
X151070833Y-130356307D02*
X151118452Y-130308688D01*
X151118452Y-130308688D02*
X151213690Y-130261069D01*
X90825595Y-93161069D02*
X90825595Y-92161069D01*
X90825595Y-92161069D02*
X91158928Y-92875354D01*
X91158928Y-92875354D02*
X91492261Y-92161069D01*
X91492261Y-92161069D02*
X91492261Y-93161069D01*
X91873214Y-92161069D02*
X92539880Y-93161069D01*
X92539880Y-92161069D02*
X91873214Y-93161069D01*
X93444642Y-93161069D02*
X92873214Y-93161069D01*
X93158928Y-93161069D02*
X93158928Y-92161069D01*
X93158928Y-92161069D02*
X93063690Y-92303926D01*
X93063690Y-92303926D02*
X92968452Y-92399164D01*
X92968452Y-92399164D02*
X92873214Y-92446783D01*
X93777976Y-92161069D02*
X94397023Y-92161069D01*
X94397023Y-92161069D02*
X94063690Y-92542021D01*
X94063690Y-92542021D02*
X94206547Y-92542021D01*
X94206547Y-92542021D02*
X94301785Y-92589640D01*
X94301785Y-92589640D02*
X94349404Y-92637259D01*
X94349404Y-92637259D02*
X94397023Y-92732497D01*
X94397023Y-92732497D02*
X94397023Y-92970592D01*
X94397023Y-92970592D02*
X94349404Y-93065830D01*
X94349404Y-93065830D02*
X94301785Y-93113450D01*
X94301785Y-93113450D02*
X94206547Y-93161069D01*
X94206547Y-93161069D02*
X93920833Y-93161069D01*
X93920833Y-93161069D02*
X93825595Y-93113450D01*
X93825595Y-93113450D02*
X93777976Y-93065830D01*
X128925595Y-93161069D02*
X128925595Y-92161069D01*
X128925595Y-92161069D02*
X129258928Y-92875354D01*
X129258928Y-92875354D02*
X129592261Y-92161069D01*
X129592261Y-92161069D02*
X129592261Y-93161069D01*
X129973214Y-92161069D02*
X130639880Y-93161069D01*
X130639880Y-92161069D02*
X129973214Y-93161069D01*
X130973214Y-92256307D02*
X131020833Y-92208688D01*
X131020833Y-92208688D02*
X131116071Y-92161069D01*
X131116071Y-92161069D02*
X131354166Y-92161069D01*
X131354166Y-92161069D02*
X131449404Y-92208688D01*
X131449404Y-92208688D02*
X131497023Y-92256307D01*
X131497023Y-92256307D02*
X131544642Y-92351545D01*
X131544642Y-92351545D02*
X131544642Y-92446783D01*
X131544642Y-92446783D02*
X131497023Y-92589640D01*
X131497023Y-92589640D02*
X130925595Y-93161069D01*
X130925595Y-93161069D02*
X131544642Y-93161069D01*
X131877976Y-92161069D02*
X132497023Y-92161069D01*
X132497023Y-92161069D02*
X132163690Y-92542021D01*
X132163690Y-92542021D02*
X132306547Y-92542021D01*
X132306547Y-92542021D02*
X132401785Y-92589640D01*
X132401785Y-92589640D02*
X132449404Y-92637259D01*
X132449404Y-92637259D02*
X132497023Y-92732497D01*
X132497023Y-92732497D02*
X132497023Y-92970592D01*
X132497023Y-92970592D02*
X132449404Y-93065830D01*
X132449404Y-93065830D02*
X132401785Y-93113450D01*
X132401785Y-93113450D02*
X132306547Y-93161069D01*
X132306547Y-93161069D02*
X132020833Y-93161069D01*
X132020833Y-93161069D02*
X131925595Y-93113450D01*
X131925595Y-93113450D02*
X131877976Y-93065830D01*
X128925595Y-55061069D02*
X128925595Y-54061069D01*
X128925595Y-54061069D02*
X129258928Y-54775354D01*
X129258928Y-54775354D02*
X129592261Y-54061069D01*
X129592261Y-54061069D02*
X129592261Y-55061069D01*
X129973214Y-54061069D02*
X130639880Y-55061069D01*
X130639880Y-54061069D02*
X129973214Y-55061069D01*
X130973214Y-54156307D02*
X131020833Y-54108688D01*
X131020833Y-54108688D02*
X131116071Y-54061069D01*
X131116071Y-54061069D02*
X131354166Y-54061069D01*
X131354166Y-54061069D02*
X131449404Y-54108688D01*
X131449404Y-54108688D02*
X131497023Y-54156307D01*
X131497023Y-54156307D02*
X131544642Y-54251545D01*
X131544642Y-54251545D02*
X131544642Y-54346783D01*
X131544642Y-54346783D02*
X131497023Y-54489640D01*
X131497023Y-54489640D02*
X130925595Y-55061069D01*
X130925595Y-55061069D02*
X131544642Y-55061069D01*
X132497023Y-55061069D02*
X131925595Y-55061069D01*
X132211309Y-55061069D02*
X132211309Y-54061069D01*
X132211309Y-54061069D02*
X132116071Y-54203926D01*
X132116071Y-54203926D02*
X132020833Y-54299164D01*
X132020833Y-54299164D02*
X131925595Y-54346783D01*
X243225595Y-74111069D02*
X243225595Y-73111069D01*
X243225595Y-73111069D02*
X243558928Y-73825354D01*
X243558928Y-73825354D02*
X243892261Y-73111069D01*
X243892261Y-73111069D02*
X243892261Y-74111069D01*
X244273214Y-73111069D02*
X244939880Y-74111069D01*
X244939880Y-73111069D02*
X244273214Y-74111069D01*
X245797023Y-73111069D02*
X245320833Y-73111069D01*
X245320833Y-73111069D02*
X245273214Y-73587259D01*
X245273214Y-73587259D02*
X245320833Y-73539640D01*
X245320833Y-73539640D02*
X245416071Y-73492021D01*
X245416071Y-73492021D02*
X245654166Y-73492021D01*
X245654166Y-73492021D02*
X245749404Y-73539640D01*
X245749404Y-73539640D02*
X245797023Y-73587259D01*
X245797023Y-73587259D02*
X245844642Y-73682497D01*
X245844642Y-73682497D02*
X245844642Y-73920592D01*
X245844642Y-73920592D02*
X245797023Y-74015830D01*
X245797023Y-74015830D02*
X245749404Y-74063450D01*
X245749404Y-74063450D02*
X245654166Y-74111069D01*
X245654166Y-74111069D02*
X245416071Y-74111069D01*
X245416071Y-74111069D02*
X245320833Y-74063450D01*
X245320833Y-74063450D02*
X245273214Y-74015830D01*
X246225595Y-73206307D02*
X246273214Y-73158688D01*
X246273214Y-73158688D02*
X246368452Y-73111069D01*
X246368452Y-73111069D02*
X246606547Y-73111069D01*
X246606547Y-73111069D02*
X246701785Y-73158688D01*
X246701785Y-73158688D02*
X246749404Y-73206307D01*
X246749404Y-73206307D02*
X246797023Y-73301545D01*
X246797023Y-73301545D02*
X246797023Y-73396783D01*
X246797023Y-73396783D02*
X246749404Y-73539640D01*
X246749404Y-73539640D02*
X246177976Y-74111069D01*
X246177976Y-74111069D02*
X246797023Y-74111069D01*
X115928628Y-34957440D02*
X116404819Y-34957440D01*
X115404819Y-35290773D02*
X115928628Y-34957440D01*
X115928628Y-34957440D02*
X115404819Y-34624107D01*
X116404819Y-33766964D02*
X116404819Y-34338392D01*
X116404819Y-34052678D02*
X115404819Y-34052678D01*
X115404819Y-34052678D02*
X115547676Y-34147916D01*
X115547676Y-34147916D02*
X115642914Y-34243154D01*
X115642914Y-34243154D02*
X115690533Y-34338392D01*
X109875595Y-55061069D02*
X109875595Y-54061069D01*
X109875595Y-54061069D02*
X110208928Y-54775354D01*
X110208928Y-54775354D02*
X110542261Y-54061069D01*
X110542261Y-54061069D02*
X110542261Y-55061069D01*
X110923214Y-54061069D02*
X111589880Y-55061069D01*
X111589880Y-54061069D02*
X110923214Y-55061069D01*
X112494642Y-55061069D02*
X111923214Y-55061069D01*
X112208928Y-55061069D02*
X112208928Y-54061069D01*
X112208928Y-54061069D02*
X112113690Y-54203926D01*
X112113690Y-54203926D02*
X112018452Y-54299164D01*
X112018452Y-54299164D02*
X111923214Y-54346783D01*
X113351785Y-54061069D02*
X113161309Y-54061069D01*
X113161309Y-54061069D02*
X113066071Y-54108688D01*
X113066071Y-54108688D02*
X113018452Y-54156307D01*
X113018452Y-54156307D02*
X112923214Y-54299164D01*
X112923214Y-54299164D02*
X112875595Y-54489640D01*
X112875595Y-54489640D02*
X112875595Y-54870592D01*
X112875595Y-54870592D02*
X112923214Y-54965830D01*
X112923214Y-54965830D02*
X112970833Y-55013450D01*
X112970833Y-55013450D02*
X113066071Y-55061069D01*
X113066071Y-55061069D02*
X113256547Y-55061069D01*
X113256547Y-55061069D02*
X113351785Y-55013450D01*
X113351785Y-55013450D02*
X113399404Y-54965830D01*
X113399404Y-54965830D02*
X113447023Y-54870592D01*
X113447023Y-54870592D02*
X113447023Y-54632497D01*
X113447023Y-54632497D02*
X113399404Y-54537259D01*
X113399404Y-54537259D02*
X113351785Y-54489640D01*
X113351785Y-54489640D02*
X113256547Y-54442021D01*
X113256547Y-54442021D02*
X113066071Y-54442021D01*
X113066071Y-54442021D02*
X112970833Y-54489640D01*
X112970833Y-54489640D02*
X112923214Y-54537259D01*
X112923214Y-54537259D02*
X112875595Y-54632497D01*
X262275595Y-55061069D02*
X262275595Y-54061069D01*
X262275595Y-54061069D02*
X262608928Y-54775354D01*
X262608928Y-54775354D02*
X262942261Y-54061069D01*
X262942261Y-54061069D02*
X262942261Y-55061069D01*
X263323214Y-54061069D02*
X263989880Y-55061069D01*
X263989880Y-54061069D02*
X263323214Y-55061069D01*
X264847023Y-54061069D02*
X264370833Y-54061069D01*
X264370833Y-54061069D02*
X264323214Y-54537259D01*
X264323214Y-54537259D02*
X264370833Y-54489640D01*
X264370833Y-54489640D02*
X264466071Y-54442021D01*
X264466071Y-54442021D02*
X264704166Y-54442021D01*
X264704166Y-54442021D02*
X264799404Y-54489640D01*
X264799404Y-54489640D02*
X264847023Y-54537259D01*
X264847023Y-54537259D02*
X264894642Y-54632497D01*
X264894642Y-54632497D02*
X264894642Y-54870592D01*
X264894642Y-54870592D02*
X264847023Y-54965830D01*
X264847023Y-54965830D02*
X264799404Y-55013450D01*
X264799404Y-55013450D02*
X264704166Y-55061069D01*
X264704166Y-55061069D02*
X264466071Y-55061069D01*
X264466071Y-55061069D02*
X264370833Y-55013450D01*
X264370833Y-55013450D02*
X264323214Y-54965830D01*
X265751785Y-54061069D02*
X265561309Y-54061069D01*
X265561309Y-54061069D02*
X265466071Y-54108688D01*
X265466071Y-54108688D02*
X265418452Y-54156307D01*
X265418452Y-54156307D02*
X265323214Y-54299164D01*
X265323214Y-54299164D02*
X265275595Y-54489640D01*
X265275595Y-54489640D02*
X265275595Y-54870592D01*
X265275595Y-54870592D02*
X265323214Y-54965830D01*
X265323214Y-54965830D02*
X265370833Y-55013450D01*
X265370833Y-55013450D02*
X265466071Y-55061069D01*
X265466071Y-55061069D02*
X265656547Y-55061069D01*
X265656547Y-55061069D02*
X265751785Y-55013450D01*
X265751785Y-55013450D02*
X265799404Y-54965830D01*
X265799404Y-54965830D02*
X265847023Y-54870592D01*
X265847023Y-54870592D02*
X265847023Y-54632497D01*
X265847023Y-54632497D02*
X265799404Y-54537259D01*
X265799404Y-54537259D02*
X265751785Y-54489640D01*
X265751785Y-54489640D02*
X265656547Y-54442021D01*
X265656547Y-54442021D02*
X265466071Y-54442021D01*
X265466071Y-54442021D02*
X265370833Y-54489640D01*
X265370833Y-54489640D02*
X265323214Y-54537259D01*
X265323214Y-54537259D02*
X265275595Y-54632497D01*
X121983333Y-22036069D02*
X121650000Y-21559878D01*
X121411905Y-22036069D02*
X121411905Y-21036069D01*
X121411905Y-21036069D02*
X121792857Y-21036069D01*
X121792857Y-21036069D02*
X121888095Y-21083688D01*
X121888095Y-21083688D02*
X121935714Y-21131307D01*
X121935714Y-21131307D02*
X121983333Y-21226545D01*
X121983333Y-21226545D02*
X121983333Y-21369402D01*
X121983333Y-21369402D02*
X121935714Y-21464640D01*
X121935714Y-21464640D02*
X121888095Y-21512259D01*
X121888095Y-21512259D02*
X121792857Y-21559878D01*
X121792857Y-21559878D02*
X121411905Y-21559878D01*
X122840476Y-21369402D02*
X122840476Y-22036069D01*
X122602381Y-20988450D02*
X122364286Y-21702735D01*
X122364286Y-21702735D02*
X122983333Y-21702735D01*
X262275595Y-131261069D02*
X262275595Y-130261069D01*
X262275595Y-130261069D02*
X262608928Y-130975354D01*
X262608928Y-130975354D02*
X262942261Y-130261069D01*
X262942261Y-130261069D02*
X262942261Y-131261069D01*
X263323214Y-130261069D02*
X263989880Y-131261069D01*
X263989880Y-130261069D02*
X263323214Y-131261069D01*
X264799404Y-130261069D02*
X264608928Y-130261069D01*
X264608928Y-130261069D02*
X264513690Y-130308688D01*
X264513690Y-130308688D02*
X264466071Y-130356307D01*
X264466071Y-130356307D02*
X264370833Y-130499164D01*
X264370833Y-130499164D02*
X264323214Y-130689640D01*
X264323214Y-130689640D02*
X264323214Y-131070592D01*
X264323214Y-131070592D02*
X264370833Y-131165830D01*
X264370833Y-131165830D02*
X264418452Y-131213450D01*
X264418452Y-131213450D02*
X264513690Y-131261069D01*
X264513690Y-131261069D02*
X264704166Y-131261069D01*
X264704166Y-131261069D02*
X264799404Y-131213450D01*
X264799404Y-131213450D02*
X264847023Y-131165830D01*
X264847023Y-131165830D02*
X264894642Y-131070592D01*
X264894642Y-131070592D02*
X264894642Y-130832497D01*
X264894642Y-130832497D02*
X264847023Y-130737259D01*
X264847023Y-130737259D02*
X264799404Y-130689640D01*
X264799404Y-130689640D02*
X264704166Y-130642021D01*
X264704166Y-130642021D02*
X264513690Y-130642021D01*
X264513690Y-130642021D02*
X264418452Y-130689640D01*
X264418452Y-130689640D02*
X264370833Y-130737259D01*
X264370833Y-130737259D02*
X264323214Y-130832497D01*
X265513690Y-130261069D02*
X265608928Y-130261069D01*
X265608928Y-130261069D02*
X265704166Y-130308688D01*
X265704166Y-130308688D02*
X265751785Y-130356307D01*
X265751785Y-130356307D02*
X265799404Y-130451545D01*
X265799404Y-130451545D02*
X265847023Y-130642021D01*
X265847023Y-130642021D02*
X265847023Y-130880116D01*
X265847023Y-130880116D02*
X265799404Y-131070592D01*
X265799404Y-131070592D02*
X265751785Y-131165830D01*
X265751785Y-131165830D02*
X265704166Y-131213450D01*
X265704166Y-131213450D02*
X265608928Y-131261069D01*
X265608928Y-131261069D02*
X265513690Y-131261069D01*
X265513690Y-131261069D02*
X265418452Y-131213450D01*
X265418452Y-131213450D02*
X265370833Y-131165830D01*
X265370833Y-131165830D02*
X265323214Y-131070592D01*
X265323214Y-131070592D02*
X265275595Y-130880116D01*
X265275595Y-130880116D02*
X265275595Y-130642021D01*
X265275595Y-130642021D02*
X265323214Y-130451545D01*
X265323214Y-130451545D02*
X265370833Y-130356307D01*
X265370833Y-130356307D02*
X265418452Y-130308688D01*
X265418452Y-130308688D02*
X265513690Y-130261069D01*
X150316662Y-21554819D02*
X150316662Y-22269104D01*
X150316662Y-22269104D02*
X150269043Y-22411961D01*
X150269043Y-22411961D02*
X150173805Y-22507200D01*
X150173805Y-22507200D02*
X150030948Y-22554819D01*
X150030948Y-22554819D02*
X149935710Y-22554819D01*
X151316662Y-22554819D02*
X150745234Y-22554819D01*
X151030948Y-22554819D02*
X151030948Y-21554819D01*
X151030948Y-21554819D02*
X150935710Y-21697676D01*
X150935710Y-21697676D02*
X150840472Y-21792914D01*
X150840472Y-21792914D02*
X150745234Y-21840533D01*
X72251786Y-93161069D02*
X72251786Y-92161069D01*
X72251786Y-92161069D02*
X72585119Y-92875354D01*
X72585119Y-92875354D02*
X72918452Y-92161069D01*
X72918452Y-92161069D02*
X72918452Y-93161069D01*
X73299405Y-92161069D02*
X73966071Y-93161069D01*
X73966071Y-92161069D02*
X73299405Y-93161069D01*
X74775595Y-92161069D02*
X74585119Y-92161069D01*
X74585119Y-92161069D02*
X74489881Y-92208688D01*
X74489881Y-92208688D02*
X74442262Y-92256307D01*
X74442262Y-92256307D02*
X74347024Y-92399164D01*
X74347024Y-92399164D02*
X74299405Y-92589640D01*
X74299405Y-92589640D02*
X74299405Y-92970592D01*
X74299405Y-92970592D02*
X74347024Y-93065830D01*
X74347024Y-93065830D02*
X74394643Y-93113450D01*
X74394643Y-93113450D02*
X74489881Y-93161069D01*
X74489881Y-93161069D02*
X74680357Y-93161069D01*
X74680357Y-93161069D02*
X74775595Y-93113450D01*
X74775595Y-93113450D02*
X74823214Y-93065830D01*
X74823214Y-93065830D02*
X74870833Y-92970592D01*
X74870833Y-92970592D02*
X74870833Y-92732497D01*
X74870833Y-92732497D02*
X74823214Y-92637259D01*
X74823214Y-92637259D02*
X74775595Y-92589640D01*
X74775595Y-92589640D02*
X74680357Y-92542021D01*
X74680357Y-92542021D02*
X74489881Y-92542021D01*
X74489881Y-92542021D02*
X74394643Y-92589640D01*
X74394643Y-92589640D02*
X74347024Y-92637259D01*
X74347024Y-92637259D02*
X74299405Y-92732497D01*
X53201786Y-74111069D02*
X53201786Y-73111069D01*
X53201786Y-73111069D02*
X53535119Y-73825354D01*
X53535119Y-73825354D02*
X53868452Y-73111069D01*
X53868452Y-73111069D02*
X53868452Y-74111069D01*
X54249405Y-73111069D02*
X54916071Y-74111069D01*
X54916071Y-73111069D02*
X54249405Y-74111069D01*
X55201786Y-73111069D02*
X55820833Y-73111069D01*
X55820833Y-73111069D02*
X55487500Y-73492021D01*
X55487500Y-73492021D02*
X55630357Y-73492021D01*
X55630357Y-73492021D02*
X55725595Y-73539640D01*
X55725595Y-73539640D02*
X55773214Y-73587259D01*
X55773214Y-73587259D02*
X55820833Y-73682497D01*
X55820833Y-73682497D02*
X55820833Y-73920592D01*
X55820833Y-73920592D02*
X55773214Y-74015830D01*
X55773214Y-74015830D02*
X55725595Y-74063450D01*
X55725595Y-74063450D02*
X55630357Y-74111069D01*
X55630357Y-74111069D02*
X55344643Y-74111069D01*
X55344643Y-74111069D02*
X55249405Y-74063450D01*
X55249405Y-74063450D02*
X55201786Y-74015830D01*
X205125595Y-74111069D02*
X205125595Y-73111069D01*
X205125595Y-73111069D02*
X205458928Y-73825354D01*
X205458928Y-73825354D02*
X205792261Y-73111069D01*
X205792261Y-73111069D02*
X205792261Y-74111069D01*
X206173214Y-73111069D02*
X206839880Y-74111069D01*
X206839880Y-73111069D02*
X206173214Y-74111069D01*
X207649404Y-73444402D02*
X207649404Y-74111069D01*
X207411309Y-73063450D02*
X207173214Y-73777735D01*
X207173214Y-73777735D02*
X207792261Y-73777735D01*
X208125595Y-73206307D02*
X208173214Y-73158688D01*
X208173214Y-73158688D02*
X208268452Y-73111069D01*
X208268452Y-73111069D02*
X208506547Y-73111069D01*
X208506547Y-73111069D02*
X208601785Y-73158688D01*
X208601785Y-73158688D02*
X208649404Y-73206307D01*
X208649404Y-73206307D02*
X208697023Y-73301545D01*
X208697023Y-73301545D02*
X208697023Y-73396783D01*
X208697023Y-73396783D02*
X208649404Y-73539640D01*
X208649404Y-73539640D02*
X208077976Y-74111069D01*
X208077976Y-74111069D02*
X208697023Y-74111069D01*
X205125595Y-131261069D02*
X205125595Y-130261069D01*
X205125595Y-130261069D02*
X205458928Y-130975354D01*
X205458928Y-130975354D02*
X205792261Y-130261069D01*
X205792261Y-130261069D02*
X205792261Y-131261069D01*
X206173214Y-130261069D02*
X206839880Y-131261069D01*
X206839880Y-130261069D02*
X206173214Y-131261069D01*
X207649404Y-130594402D02*
X207649404Y-131261069D01*
X207411309Y-130213450D02*
X207173214Y-130927735D01*
X207173214Y-130927735D02*
X207792261Y-130927735D01*
X208649404Y-130261069D02*
X208173214Y-130261069D01*
X208173214Y-130261069D02*
X208125595Y-130737259D01*
X208125595Y-130737259D02*
X208173214Y-130689640D01*
X208173214Y-130689640D02*
X208268452Y-130642021D01*
X208268452Y-130642021D02*
X208506547Y-130642021D01*
X208506547Y-130642021D02*
X208601785Y-130689640D01*
X208601785Y-130689640D02*
X208649404Y-130737259D01*
X208649404Y-130737259D02*
X208697023Y-130832497D01*
X208697023Y-130832497D02*
X208697023Y-131070592D01*
X208697023Y-131070592D02*
X208649404Y-131165830D01*
X208649404Y-131165830D02*
X208601785Y-131213450D01*
X208601785Y-131213450D02*
X208506547Y-131261069D01*
X208506547Y-131261069D02*
X208268452Y-131261069D01*
X208268452Y-131261069D02*
X208173214Y-131213450D01*
X208173214Y-131213450D02*
X208125595Y-131165830D01*
X72251786Y-112211069D02*
X72251786Y-111211069D01*
X72251786Y-111211069D02*
X72585119Y-111925354D01*
X72585119Y-111925354D02*
X72918452Y-111211069D01*
X72918452Y-111211069D02*
X72918452Y-112211069D01*
X73299405Y-111211069D02*
X73966071Y-112211069D01*
X73966071Y-111211069D02*
X73299405Y-112211069D01*
X74489881Y-111639640D02*
X74394643Y-111592021D01*
X74394643Y-111592021D02*
X74347024Y-111544402D01*
X74347024Y-111544402D02*
X74299405Y-111449164D01*
X74299405Y-111449164D02*
X74299405Y-111401545D01*
X74299405Y-111401545D02*
X74347024Y-111306307D01*
X74347024Y-111306307D02*
X74394643Y-111258688D01*
X74394643Y-111258688D02*
X74489881Y-111211069D01*
X74489881Y-111211069D02*
X74680357Y-111211069D01*
X74680357Y-111211069D02*
X74775595Y-111258688D01*
X74775595Y-111258688D02*
X74823214Y-111306307D01*
X74823214Y-111306307D02*
X74870833Y-111401545D01*
X74870833Y-111401545D02*
X74870833Y-111449164D01*
X74870833Y-111449164D02*
X74823214Y-111544402D01*
X74823214Y-111544402D02*
X74775595Y-111592021D01*
X74775595Y-111592021D02*
X74680357Y-111639640D01*
X74680357Y-111639640D02*
X74489881Y-111639640D01*
X74489881Y-111639640D02*
X74394643Y-111687259D01*
X74394643Y-111687259D02*
X74347024Y-111734878D01*
X74347024Y-111734878D02*
X74299405Y-111830116D01*
X74299405Y-111830116D02*
X74299405Y-112020592D01*
X74299405Y-112020592D02*
X74347024Y-112115830D01*
X74347024Y-112115830D02*
X74394643Y-112163450D01*
X74394643Y-112163450D02*
X74489881Y-112211069D01*
X74489881Y-112211069D02*
X74680357Y-112211069D01*
X74680357Y-112211069D02*
X74775595Y-112163450D01*
X74775595Y-112163450D02*
X74823214Y-112115830D01*
X74823214Y-112115830D02*
X74870833Y-112020592D01*
X74870833Y-112020592D02*
X74870833Y-111830116D01*
X74870833Y-111830116D02*
X74823214Y-111734878D01*
X74823214Y-111734878D02*
X74775595Y-111687259D01*
X74775595Y-111687259D02*
X74680357Y-111639640D01*
X167025595Y-131261069D02*
X167025595Y-130261069D01*
X167025595Y-130261069D02*
X167358928Y-130975354D01*
X167358928Y-130975354D02*
X167692261Y-130261069D01*
X167692261Y-130261069D02*
X167692261Y-131261069D01*
X168073214Y-130261069D02*
X168739880Y-131261069D01*
X168739880Y-130261069D02*
X168073214Y-131261069D01*
X169025595Y-130261069D02*
X169644642Y-130261069D01*
X169644642Y-130261069D02*
X169311309Y-130642021D01*
X169311309Y-130642021D02*
X169454166Y-130642021D01*
X169454166Y-130642021D02*
X169549404Y-130689640D01*
X169549404Y-130689640D02*
X169597023Y-130737259D01*
X169597023Y-130737259D02*
X169644642Y-130832497D01*
X169644642Y-130832497D02*
X169644642Y-131070592D01*
X169644642Y-131070592D02*
X169597023Y-131165830D01*
X169597023Y-131165830D02*
X169549404Y-131213450D01*
X169549404Y-131213450D02*
X169454166Y-131261069D01*
X169454166Y-131261069D02*
X169168452Y-131261069D01*
X169168452Y-131261069D02*
X169073214Y-131213450D01*
X169073214Y-131213450D02*
X169025595Y-131165830D01*
X170549404Y-130261069D02*
X170073214Y-130261069D01*
X170073214Y-130261069D02*
X170025595Y-130737259D01*
X170025595Y-130737259D02*
X170073214Y-130689640D01*
X170073214Y-130689640D02*
X170168452Y-130642021D01*
X170168452Y-130642021D02*
X170406547Y-130642021D01*
X170406547Y-130642021D02*
X170501785Y-130689640D01*
X170501785Y-130689640D02*
X170549404Y-130737259D01*
X170549404Y-130737259D02*
X170597023Y-130832497D01*
X170597023Y-130832497D02*
X170597023Y-131070592D01*
X170597023Y-131070592D02*
X170549404Y-131165830D01*
X170549404Y-131165830D02*
X170501785Y-131213450D01*
X170501785Y-131213450D02*
X170406547Y-131261069D01*
X170406547Y-131261069D02*
X170168452Y-131261069D01*
X170168452Y-131261069D02*
X170073214Y-131213450D01*
X170073214Y-131213450D02*
X170025595Y-131165830D01*
X186075595Y-55061069D02*
X186075595Y-54061069D01*
X186075595Y-54061069D02*
X186408928Y-54775354D01*
X186408928Y-54775354D02*
X186742261Y-54061069D01*
X186742261Y-54061069D02*
X186742261Y-55061069D01*
X187123214Y-54061069D02*
X187789880Y-55061069D01*
X187789880Y-54061069D02*
X187123214Y-55061069D01*
X188075595Y-54061069D02*
X188694642Y-54061069D01*
X188694642Y-54061069D02*
X188361309Y-54442021D01*
X188361309Y-54442021D02*
X188504166Y-54442021D01*
X188504166Y-54442021D02*
X188599404Y-54489640D01*
X188599404Y-54489640D02*
X188647023Y-54537259D01*
X188647023Y-54537259D02*
X188694642Y-54632497D01*
X188694642Y-54632497D02*
X188694642Y-54870592D01*
X188694642Y-54870592D02*
X188647023Y-54965830D01*
X188647023Y-54965830D02*
X188599404Y-55013450D01*
X188599404Y-55013450D02*
X188504166Y-55061069D01*
X188504166Y-55061069D02*
X188218452Y-55061069D01*
X188218452Y-55061069D02*
X188123214Y-55013450D01*
X188123214Y-55013450D02*
X188075595Y-54965830D01*
X189551785Y-54061069D02*
X189361309Y-54061069D01*
X189361309Y-54061069D02*
X189266071Y-54108688D01*
X189266071Y-54108688D02*
X189218452Y-54156307D01*
X189218452Y-54156307D02*
X189123214Y-54299164D01*
X189123214Y-54299164D02*
X189075595Y-54489640D01*
X189075595Y-54489640D02*
X189075595Y-54870592D01*
X189075595Y-54870592D02*
X189123214Y-54965830D01*
X189123214Y-54965830D02*
X189170833Y-55013450D01*
X189170833Y-55013450D02*
X189266071Y-55061069D01*
X189266071Y-55061069D02*
X189456547Y-55061069D01*
X189456547Y-55061069D02*
X189551785Y-55013450D01*
X189551785Y-55013450D02*
X189599404Y-54965830D01*
X189599404Y-54965830D02*
X189647023Y-54870592D01*
X189647023Y-54870592D02*
X189647023Y-54632497D01*
X189647023Y-54632497D02*
X189599404Y-54537259D01*
X189599404Y-54537259D02*
X189551785Y-54489640D01*
X189551785Y-54489640D02*
X189456547Y-54442021D01*
X189456547Y-54442021D02*
X189266071Y-54442021D01*
X189266071Y-54442021D02*
X189170833Y-54489640D01*
X189170833Y-54489640D02*
X189123214Y-54537259D01*
X189123214Y-54537259D02*
X189075595Y-54632497D01*
X53201786Y-55061069D02*
X53201786Y-54061069D01*
X53201786Y-54061069D02*
X53535119Y-54775354D01*
X53535119Y-54775354D02*
X53868452Y-54061069D01*
X53868452Y-54061069D02*
X53868452Y-55061069D01*
X54249405Y-54061069D02*
X54916071Y-55061069D01*
X54916071Y-54061069D02*
X54249405Y-55061069D01*
X55820833Y-55061069D02*
X55249405Y-55061069D01*
X55535119Y-55061069D02*
X55535119Y-54061069D01*
X55535119Y-54061069D02*
X55439881Y-54203926D01*
X55439881Y-54203926D02*
X55344643Y-54299164D01*
X55344643Y-54299164D02*
X55249405Y-54346783D01*
X243225595Y-131261069D02*
X243225595Y-130261069D01*
X243225595Y-130261069D02*
X243558928Y-130975354D01*
X243558928Y-130975354D02*
X243892261Y-130261069D01*
X243892261Y-130261069D02*
X243892261Y-131261069D01*
X244273214Y-130261069D02*
X244939880Y-131261069D01*
X244939880Y-130261069D02*
X244273214Y-131261069D01*
X245797023Y-130261069D02*
X245320833Y-130261069D01*
X245320833Y-130261069D02*
X245273214Y-130737259D01*
X245273214Y-130737259D02*
X245320833Y-130689640D01*
X245320833Y-130689640D02*
X245416071Y-130642021D01*
X245416071Y-130642021D02*
X245654166Y-130642021D01*
X245654166Y-130642021D02*
X245749404Y-130689640D01*
X245749404Y-130689640D02*
X245797023Y-130737259D01*
X245797023Y-130737259D02*
X245844642Y-130832497D01*
X245844642Y-130832497D02*
X245844642Y-131070592D01*
X245844642Y-131070592D02*
X245797023Y-131165830D01*
X245797023Y-131165830D02*
X245749404Y-131213450D01*
X245749404Y-131213450D02*
X245654166Y-131261069D01*
X245654166Y-131261069D02*
X245416071Y-131261069D01*
X245416071Y-131261069D02*
X245320833Y-131213450D01*
X245320833Y-131213450D02*
X245273214Y-131165830D01*
X246749404Y-130261069D02*
X246273214Y-130261069D01*
X246273214Y-130261069D02*
X246225595Y-130737259D01*
X246225595Y-130737259D02*
X246273214Y-130689640D01*
X246273214Y-130689640D02*
X246368452Y-130642021D01*
X246368452Y-130642021D02*
X246606547Y-130642021D01*
X246606547Y-130642021D02*
X246701785Y-130689640D01*
X246701785Y-130689640D02*
X246749404Y-130737259D01*
X246749404Y-130737259D02*
X246797023Y-130832497D01*
X246797023Y-130832497D02*
X246797023Y-131070592D01*
X246797023Y-131070592D02*
X246749404Y-131165830D01*
X246749404Y-131165830D02*
X246701785Y-131213450D01*
X246701785Y-131213450D02*
X246606547Y-131261069D01*
X246606547Y-131261069D02*
X246368452Y-131261069D01*
X246368452Y-131261069D02*
X246273214Y-131213450D01*
X246273214Y-131213450D02*
X246225595Y-131165830D01*
X53201786Y-131261069D02*
X53201786Y-130261069D01*
X53201786Y-130261069D02*
X53535119Y-130975354D01*
X53535119Y-130975354D02*
X53868452Y-130261069D01*
X53868452Y-130261069D02*
X53868452Y-131261069D01*
X54249405Y-130261069D02*
X54916071Y-131261069D01*
X54916071Y-130261069D02*
X54249405Y-131261069D01*
X55344643Y-131261069D02*
X55535119Y-131261069D01*
X55535119Y-131261069D02*
X55630357Y-131213450D01*
X55630357Y-131213450D02*
X55677976Y-131165830D01*
X55677976Y-131165830D02*
X55773214Y-131022973D01*
X55773214Y-131022973D02*
X55820833Y-130832497D01*
X55820833Y-130832497D02*
X55820833Y-130451545D01*
X55820833Y-130451545D02*
X55773214Y-130356307D01*
X55773214Y-130356307D02*
X55725595Y-130308688D01*
X55725595Y-130308688D02*
X55630357Y-130261069D01*
X55630357Y-130261069D02*
X55439881Y-130261069D01*
X55439881Y-130261069D02*
X55344643Y-130308688D01*
X55344643Y-130308688D02*
X55297024Y-130356307D01*
X55297024Y-130356307D02*
X55249405Y-130451545D01*
X55249405Y-130451545D02*
X55249405Y-130689640D01*
X55249405Y-130689640D02*
X55297024Y-130784878D01*
X55297024Y-130784878D02*
X55344643Y-130832497D01*
X55344643Y-130832497D02*
X55439881Y-130880116D01*
X55439881Y-130880116D02*
X55630357Y-130880116D01*
X55630357Y-130880116D02*
X55725595Y-130832497D01*
X55725595Y-130832497D02*
X55773214Y-130784878D01*
X55773214Y-130784878D02*
X55820833Y-130689640D01*
X186075595Y-112211069D02*
X186075595Y-111211069D01*
X186075595Y-111211069D02*
X186408928Y-111925354D01*
X186408928Y-111925354D02*
X186742261Y-111211069D01*
X186742261Y-111211069D02*
X186742261Y-112211069D01*
X187123214Y-111211069D02*
X187789880Y-112211069D01*
X187789880Y-111211069D02*
X187123214Y-112211069D01*
X188075595Y-111211069D02*
X188694642Y-111211069D01*
X188694642Y-111211069D02*
X188361309Y-111592021D01*
X188361309Y-111592021D02*
X188504166Y-111592021D01*
X188504166Y-111592021D02*
X188599404Y-111639640D01*
X188599404Y-111639640D02*
X188647023Y-111687259D01*
X188647023Y-111687259D02*
X188694642Y-111782497D01*
X188694642Y-111782497D02*
X188694642Y-112020592D01*
X188694642Y-112020592D02*
X188647023Y-112115830D01*
X188647023Y-112115830D02*
X188599404Y-112163450D01*
X188599404Y-112163450D02*
X188504166Y-112211069D01*
X188504166Y-112211069D02*
X188218452Y-112211069D01*
X188218452Y-112211069D02*
X188123214Y-112163450D01*
X188123214Y-112163450D02*
X188075595Y-112115830D01*
X189170833Y-112211069D02*
X189361309Y-112211069D01*
X189361309Y-112211069D02*
X189456547Y-112163450D01*
X189456547Y-112163450D02*
X189504166Y-112115830D01*
X189504166Y-112115830D02*
X189599404Y-111972973D01*
X189599404Y-111972973D02*
X189647023Y-111782497D01*
X189647023Y-111782497D02*
X189647023Y-111401545D01*
X189647023Y-111401545D02*
X189599404Y-111306307D01*
X189599404Y-111306307D02*
X189551785Y-111258688D01*
X189551785Y-111258688D02*
X189456547Y-111211069D01*
X189456547Y-111211069D02*
X189266071Y-111211069D01*
X189266071Y-111211069D02*
X189170833Y-111258688D01*
X189170833Y-111258688D02*
X189123214Y-111306307D01*
X189123214Y-111306307D02*
X189075595Y-111401545D01*
X189075595Y-111401545D02*
X189075595Y-111639640D01*
X189075595Y-111639640D02*
X189123214Y-111734878D01*
X189123214Y-111734878D02*
X189170833Y-111782497D01*
X189170833Y-111782497D02*
X189266071Y-111830116D01*
X189266071Y-111830116D02*
X189456547Y-111830116D01*
X189456547Y-111830116D02*
X189551785Y-111782497D01*
X189551785Y-111782497D02*
X189599404Y-111734878D01*
X189599404Y-111734878D02*
X189647023Y-111639640D01*
X90825595Y-55061069D02*
X90825595Y-54061069D01*
X90825595Y-54061069D02*
X91158928Y-54775354D01*
X91158928Y-54775354D02*
X91492261Y-54061069D01*
X91492261Y-54061069D02*
X91492261Y-55061069D01*
X91873214Y-54061069D02*
X92539880Y-55061069D01*
X92539880Y-54061069D02*
X91873214Y-55061069D01*
X93444642Y-55061069D02*
X92873214Y-55061069D01*
X93158928Y-55061069D02*
X93158928Y-54061069D01*
X93158928Y-54061069D02*
X93063690Y-54203926D01*
X93063690Y-54203926D02*
X92968452Y-54299164D01*
X92968452Y-54299164D02*
X92873214Y-54346783D01*
X94397023Y-55061069D02*
X93825595Y-55061069D01*
X94111309Y-55061069D02*
X94111309Y-54061069D01*
X94111309Y-54061069D02*
X94016071Y-54203926D01*
X94016071Y-54203926D02*
X93920833Y-54299164D01*
X93920833Y-54299164D02*
X93825595Y-54346783D01*
X128925595Y-112211069D02*
X128925595Y-111211069D01*
X128925595Y-111211069D02*
X129258928Y-111925354D01*
X129258928Y-111925354D02*
X129592261Y-111211069D01*
X129592261Y-111211069D02*
X129592261Y-112211069D01*
X129973214Y-111211069D02*
X130639880Y-112211069D01*
X130639880Y-111211069D02*
X129973214Y-112211069D01*
X130973214Y-111306307D02*
X131020833Y-111258688D01*
X131020833Y-111258688D02*
X131116071Y-111211069D01*
X131116071Y-111211069D02*
X131354166Y-111211069D01*
X131354166Y-111211069D02*
X131449404Y-111258688D01*
X131449404Y-111258688D02*
X131497023Y-111306307D01*
X131497023Y-111306307D02*
X131544642Y-111401545D01*
X131544642Y-111401545D02*
X131544642Y-111496783D01*
X131544642Y-111496783D02*
X131497023Y-111639640D01*
X131497023Y-111639640D02*
X130925595Y-112211069D01*
X130925595Y-112211069D02*
X131544642Y-112211069D01*
X132401785Y-111544402D02*
X132401785Y-112211069D01*
X132163690Y-111163450D02*
X131925595Y-111877735D01*
X131925595Y-111877735D02*
X132544642Y-111877735D01*
X186075595Y-74111069D02*
X186075595Y-73111069D01*
X186075595Y-73111069D02*
X186408928Y-73825354D01*
X186408928Y-73825354D02*
X186742261Y-73111069D01*
X186742261Y-73111069D02*
X186742261Y-74111069D01*
X187123214Y-73111069D02*
X187789880Y-74111069D01*
X187789880Y-73111069D02*
X187123214Y-74111069D01*
X188075595Y-73111069D02*
X188694642Y-73111069D01*
X188694642Y-73111069D02*
X188361309Y-73492021D01*
X188361309Y-73492021D02*
X188504166Y-73492021D01*
X188504166Y-73492021D02*
X188599404Y-73539640D01*
X188599404Y-73539640D02*
X188647023Y-73587259D01*
X188647023Y-73587259D02*
X188694642Y-73682497D01*
X188694642Y-73682497D02*
X188694642Y-73920592D01*
X188694642Y-73920592D02*
X188647023Y-74015830D01*
X188647023Y-74015830D02*
X188599404Y-74063450D01*
X188599404Y-74063450D02*
X188504166Y-74111069D01*
X188504166Y-74111069D02*
X188218452Y-74111069D01*
X188218452Y-74111069D02*
X188123214Y-74063450D01*
X188123214Y-74063450D02*
X188075595Y-74015830D01*
X189027976Y-73111069D02*
X189694642Y-73111069D01*
X189694642Y-73111069D02*
X189266071Y-74111069D01*
X167025595Y-74111069D02*
X167025595Y-73111069D01*
X167025595Y-73111069D02*
X167358928Y-73825354D01*
X167358928Y-73825354D02*
X167692261Y-73111069D01*
X167692261Y-73111069D02*
X167692261Y-74111069D01*
X168073214Y-73111069D02*
X168739880Y-74111069D01*
X168739880Y-73111069D02*
X168073214Y-74111069D01*
X169025595Y-73111069D02*
X169644642Y-73111069D01*
X169644642Y-73111069D02*
X169311309Y-73492021D01*
X169311309Y-73492021D02*
X169454166Y-73492021D01*
X169454166Y-73492021D02*
X169549404Y-73539640D01*
X169549404Y-73539640D02*
X169597023Y-73587259D01*
X169597023Y-73587259D02*
X169644642Y-73682497D01*
X169644642Y-73682497D02*
X169644642Y-73920592D01*
X169644642Y-73920592D02*
X169597023Y-74015830D01*
X169597023Y-74015830D02*
X169549404Y-74063450D01*
X169549404Y-74063450D02*
X169454166Y-74111069D01*
X169454166Y-74111069D02*
X169168452Y-74111069D01*
X169168452Y-74111069D02*
X169073214Y-74063450D01*
X169073214Y-74063450D02*
X169025595Y-74015830D01*
X170025595Y-73206307D02*
X170073214Y-73158688D01*
X170073214Y-73158688D02*
X170168452Y-73111069D01*
X170168452Y-73111069D02*
X170406547Y-73111069D01*
X170406547Y-73111069D02*
X170501785Y-73158688D01*
X170501785Y-73158688D02*
X170549404Y-73206307D01*
X170549404Y-73206307D02*
X170597023Y-73301545D01*
X170597023Y-73301545D02*
X170597023Y-73396783D01*
X170597023Y-73396783D02*
X170549404Y-73539640D01*
X170549404Y-73539640D02*
X169977976Y-74111069D01*
X169977976Y-74111069D02*
X170597023Y-74111069D01*
X109875595Y-131261069D02*
X109875595Y-130261069D01*
X109875595Y-130261069D02*
X110208928Y-130975354D01*
X110208928Y-130975354D02*
X110542261Y-130261069D01*
X110542261Y-130261069D02*
X110542261Y-131261069D01*
X110923214Y-130261069D02*
X111589880Y-131261069D01*
X111589880Y-130261069D02*
X110923214Y-131261069D01*
X111923214Y-130356307D02*
X111970833Y-130308688D01*
X111970833Y-130308688D02*
X112066071Y-130261069D01*
X112066071Y-130261069D02*
X112304166Y-130261069D01*
X112304166Y-130261069D02*
X112399404Y-130308688D01*
X112399404Y-130308688D02*
X112447023Y-130356307D01*
X112447023Y-130356307D02*
X112494642Y-130451545D01*
X112494642Y-130451545D02*
X112494642Y-130546783D01*
X112494642Y-130546783D02*
X112447023Y-130689640D01*
X112447023Y-130689640D02*
X111875595Y-131261069D01*
X111875595Y-131261069D02*
X112494642Y-131261069D01*
X113113690Y-130261069D02*
X113208928Y-130261069D01*
X113208928Y-130261069D02*
X113304166Y-130308688D01*
X113304166Y-130308688D02*
X113351785Y-130356307D01*
X113351785Y-130356307D02*
X113399404Y-130451545D01*
X113399404Y-130451545D02*
X113447023Y-130642021D01*
X113447023Y-130642021D02*
X113447023Y-130880116D01*
X113447023Y-130880116D02*
X113399404Y-131070592D01*
X113399404Y-131070592D02*
X113351785Y-131165830D01*
X113351785Y-131165830D02*
X113304166Y-131213450D01*
X113304166Y-131213450D02*
X113208928Y-131261069D01*
X113208928Y-131261069D02*
X113113690Y-131261069D01*
X113113690Y-131261069D02*
X113018452Y-131213450D01*
X113018452Y-131213450D02*
X112970833Y-131165830D01*
X112970833Y-131165830D02*
X112923214Y-131070592D01*
X112923214Y-131070592D02*
X112875595Y-130880116D01*
X112875595Y-130880116D02*
X112875595Y-130642021D01*
X112875595Y-130642021D02*
X112923214Y-130451545D01*
X112923214Y-130451545D02*
X112970833Y-130356307D01*
X112970833Y-130356307D02*
X113018452Y-130308688D01*
X113018452Y-130308688D02*
X113113690Y-130261069D01*
X161354819Y-17416666D02*
X160878628Y-17749999D01*
X161354819Y-17988094D02*
X160354819Y-17988094D01*
X160354819Y-17988094D02*
X160354819Y-17607142D01*
X160354819Y-17607142D02*
X160402438Y-17511904D01*
X160402438Y-17511904D02*
X160450057Y-17464285D01*
X160450057Y-17464285D02*
X160545295Y-17416666D01*
X160545295Y-17416666D02*
X160688152Y-17416666D01*
X160688152Y-17416666D02*
X160783390Y-17464285D01*
X160783390Y-17464285D02*
X160831009Y-17511904D01*
X160831009Y-17511904D02*
X160878628Y-17607142D01*
X160878628Y-17607142D02*
X160878628Y-17988094D01*
X160354819Y-16559523D02*
X160354819Y-16749999D01*
X160354819Y-16749999D02*
X160402438Y-16845237D01*
X160402438Y-16845237D02*
X160450057Y-16892856D01*
X160450057Y-16892856D02*
X160592914Y-16988094D01*
X160592914Y-16988094D02*
X160783390Y-17035713D01*
X160783390Y-17035713D02*
X161164342Y-17035713D01*
X161164342Y-17035713D02*
X161259580Y-16988094D01*
X161259580Y-16988094D02*
X161307200Y-16940475D01*
X161307200Y-16940475D02*
X161354819Y-16845237D01*
X161354819Y-16845237D02*
X161354819Y-16654761D01*
X161354819Y-16654761D02*
X161307200Y-16559523D01*
X161307200Y-16559523D02*
X161259580Y-16511904D01*
X161259580Y-16511904D02*
X161164342Y-16464285D01*
X161164342Y-16464285D02*
X160926247Y-16464285D01*
X160926247Y-16464285D02*
X160831009Y-16511904D01*
X160831009Y-16511904D02*
X160783390Y-16559523D01*
X160783390Y-16559523D02*
X160735771Y-16654761D01*
X160735771Y-16654761D02*
X160735771Y-16845237D01*
X160735771Y-16845237D02*
X160783390Y-16940475D01*
X160783390Y-16940475D02*
X160831009Y-16988094D01*
X160831009Y-16988094D02*
X160926247Y-17035713D01*
X224175595Y-93161069D02*
X224175595Y-92161069D01*
X224175595Y-92161069D02*
X224508928Y-92875354D01*
X224508928Y-92875354D02*
X224842261Y-92161069D01*
X224842261Y-92161069D02*
X224842261Y-93161069D01*
X225223214Y-92161069D02*
X225889880Y-93161069D01*
X225889880Y-92161069D02*
X225223214Y-93161069D01*
X226699404Y-92494402D02*
X226699404Y-93161069D01*
X226461309Y-92113450D02*
X226223214Y-92827735D01*
X226223214Y-92827735D02*
X226842261Y-92827735D01*
X227366071Y-92589640D02*
X227270833Y-92542021D01*
X227270833Y-92542021D02*
X227223214Y-92494402D01*
X227223214Y-92494402D02*
X227175595Y-92399164D01*
X227175595Y-92399164D02*
X227175595Y-92351545D01*
X227175595Y-92351545D02*
X227223214Y-92256307D01*
X227223214Y-92256307D02*
X227270833Y-92208688D01*
X227270833Y-92208688D02*
X227366071Y-92161069D01*
X227366071Y-92161069D02*
X227556547Y-92161069D01*
X227556547Y-92161069D02*
X227651785Y-92208688D01*
X227651785Y-92208688D02*
X227699404Y-92256307D01*
X227699404Y-92256307D02*
X227747023Y-92351545D01*
X227747023Y-92351545D02*
X227747023Y-92399164D01*
X227747023Y-92399164D02*
X227699404Y-92494402D01*
X227699404Y-92494402D02*
X227651785Y-92542021D01*
X227651785Y-92542021D02*
X227556547Y-92589640D01*
X227556547Y-92589640D02*
X227366071Y-92589640D01*
X227366071Y-92589640D02*
X227270833Y-92637259D01*
X227270833Y-92637259D02*
X227223214Y-92684878D01*
X227223214Y-92684878D02*
X227175595Y-92780116D01*
X227175595Y-92780116D02*
X227175595Y-92970592D01*
X227175595Y-92970592D02*
X227223214Y-93065830D01*
X227223214Y-93065830D02*
X227270833Y-93113450D01*
X227270833Y-93113450D02*
X227366071Y-93161069D01*
X227366071Y-93161069D02*
X227556547Y-93161069D01*
X227556547Y-93161069D02*
X227651785Y-93113450D01*
X227651785Y-93113450D02*
X227699404Y-93065830D01*
X227699404Y-93065830D02*
X227747023Y-92970592D01*
X227747023Y-92970592D02*
X227747023Y-92780116D01*
X227747023Y-92780116D02*
X227699404Y-92684878D01*
X227699404Y-92684878D02*
X227651785Y-92637259D01*
X227651785Y-92637259D02*
X227556547Y-92589640D01*
X167025595Y-93161069D02*
X167025595Y-92161069D01*
X167025595Y-92161069D02*
X167358928Y-92875354D01*
X167358928Y-92875354D02*
X167692261Y-92161069D01*
X167692261Y-92161069D02*
X167692261Y-93161069D01*
X168073214Y-92161069D02*
X168739880Y-93161069D01*
X168739880Y-92161069D02*
X168073214Y-93161069D01*
X169025595Y-92161069D02*
X169644642Y-92161069D01*
X169644642Y-92161069D02*
X169311309Y-92542021D01*
X169311309Y-92542021D02*
X169454166Y-92542021D01*
X169454166Y-92542021D02*
X169549404Y-92589640D01*
X169549404Y-92589640D02*
X169597023Y-92637259D01*
X169597023Y-92637259D02*
X169644642Y-92732497D01*
X169644642Y-92732497D02*
X169644642Y-92970592D01*
X169644642Y-92970592D02*
X169597023Y-93065830D01*
X169597023Y-93065830D02*
X169549404Y-93113450D01*
X169549404Y-93113450D02*
X169454166Y-93161069D01*
X169454166Y-93161069D02*
X169168452Y-93161069D01*
X169168452Y-93161069D02*
X169073214Y-93113450D01*
X169073214Y-93113450D02*
X169025595Y-93065830D01*
X169977976Y-92161069D02*
X170597023Y-92161069D01*
X170597023Y-92161069D02*
X170263690Y-92542021D01*
X170263690Y-92542021D02*
X170406547Y-92542021D01*
X170406547Y-92542021D02*
X170501785Y-92589640D01*
X170501785Y-92589640D02*
X170549404Y-92637259D01*
X170549404Y-92637259D02*
X170597023Y-92732497D01*
X170597023Y-92732497D02*
X170597023Y-92970592D01*
X170597023Y-92970592D02*
X170549404Y-93065830D01*
X170549404Y-93065830D02*
X170501785Y-93113450D01*
X170501785Y-93113450D02*
X170406547Y-93161069D01*
X170406547Y-93161069D02*
X170120833Y-93161069D01*
X170120833Y-93161069D02*
X170025595Y-93113450D01*
X170025595Y-93113450D02*
X169977976Y-93065830D01*
X72251786Y-55061069D02*
X72251786Y-54061069D01*
X72251786Y-54061069D02*
X72585119Y-54775354D01*
X72585119Y-54775354D02*
X72918452Y-54061069D01*
X72918452Y-54061069D02*
X72918452Y-55061069D01*
X73299405Y-54061069D02*
X73966071Y-55061069D01*
X73966071Y-54061069D02*
X73299405Y-55061069D01*
X74299405Y-54156307D02*
X74347024Y-54108688D01*
X74347024Y-54108688D02*
X74442262Y-54061069D01*
X74442262Y-54061069D02*
X74680357Y-54061069D01*
X74680357Y-54061069D02*
X74775595Y-54108688D01*
X74775595Y-54108688D02*
X74823214Y-54156307D01*
X74823214Y-54156307D02*
X74870833Y-54251545D01*
X74870833Y-54251545D02*
X74870833Y-54346783D01*
X74870833Y-54346783D02*
X74823214Y-54489640D01*
X74823214Y-54489640D02*
X74251786Y-55061069D01*
X74251786Y-55061069D02*
X74870833Y-55061069D01*
X90825595Y-131261069D02*
X90825595Y-130261069D01*
X90825595Y-130261069D02*
X91158928Y-130975354D01*
X91158928Y-130975354D02*
X91492261Y-130261069D01*
X91492261Y-130261069D02*
X91492261Y-131261069D01*
X91873214Y-130261069D02*
X92539880Y-131261069D01*
X92539880Y-130261069D02*
X91873214Y-131261069D01*
X93444642Y-131261069D02*
X92873214Y-131261069D01*
X93158928Y-131261069D02*
X93158928Y-130261069D01*
X93158928Y-130261069D02*
X93063690Y-130403926D01*
X93063690Y-130403926D02*
X92968452Y-130499164D01*
X92968452Y-130499164D02*
X92873214Y-130546783D01*
X94349404Y-130261069D02*
X93873214Y-130261069D01*
X93873214Y-130261069D02*
X93825595Y-130737259D01*
X93825595Y-130737259D02*
X93873214Y-130689640D01*
X93873214Y-130689640D02*
X93968452Y-130642021D01*
X93968452Y-130642021D02*
X94206547Y-130642021D01*
X94206547Y-130642021D02*
X94301785Y-130689640D01*
X94301785Y-130689640D02*
X94349404Y-130737259D01*
X94349404Y-130737259D02*
X94397023Y-130832497D01*
X94397023Y-130832497D02*
X94397023Y-131070592D01*
X94397023Y-131070592D02*
X94349404Y-131165830D01*
X94349404Y-131165830D02*
X94301785Y-131213450D01*
X94301785Y-131213450D02*
X94206547Y-131261069D01*
X94206547Y-131261069D02*
X93968452Y-131261069D01*
X93968452Y-131261069D02*
X93873214Y-131213450D01*
X93873214Y-131213450D02*
X93825595Y-131165830D01*
X53201786Y-93161069D02*
X53201786Y-92161069D01*
X53201786Y-92161069D02*
X53535119Y-92875354D01*
X53535119Y-92875354D02*
X53868452Y-92161069D01*
X53868452Y-92161069D02*
X53868452Y-93161069D01*
X54249405Y-92161069D02*
X54916071Y-93161069D01*
X54916071Y-92161069D02*
X54249405Y-93161069D01*
X55773214Y-92161069D02*
X55297024Y-92161069D01*
X55297024Y-92161069D02*
X55249405Y-92637259D01*
X55249405Y-92637259D02*
X55297024Y-92589640D01*
X55297024Y-92589640D02*
X55392262Y-92542021D01*
X55392262Y-92542021D02*
X55630357Y-92542021D01*
X55630357Y-92542021D02*
X55725595Y-92589640D01*
X55725595Y-92589640D02*
X55773214Y-92637259D01*
X55773214Y-92637259D02*
X55820833Y-92732497D01*
X55820833Y-92732497D02*
X55820833Y-92970592D01*
X55820833Y-92970592D02*
X55773214Y-93065830D01*
X55773214Y-93065830D02*
X55725595Y-93113450D01*
X55725595Y-93113450D02*
X55630357Y-93161069D01*
X55630357Y-93161069D02*
X55392262Y-93161069D01*
X55392262Y-93161069D02*
X55297024Y-93113450D01*
X55297024Y-93113450D02*
X55249405Y-93065830D01*
X243225595Y-93161069D02*
X243225595Y-92161069D01*
X243225595Y-92161069D02*
X243558928Y-92875354D01*
X243558928Y-92875354D02*
X243892261Y-92161069D01*
X243892261Y-92161069D02*
X243892261Y-93161069D01*
X244273214Y-92161069D02*
X244939880Y-93161069D01*
X244939880Y-92161069D02*
X244273214Y-93161069D01*
X245797023Y-92161069D02*
X245320833Y-92161069D01*
X245320833Y-92161069D02*
X245273214Y-92637259D01*
X245273214Y-92637259D02*
X245320833Y-92589640D01*
X245320833Y-92589640D02*
X245416071Y-92542021D01*
X245416071Y-92542021D02*
X245654166Y-92542021D01*
X245654166Y-92542021D02*
X245749404Y-92589640D01*
X245749404Y-92589640D02*
X245797023Y-92637259D01*
X245797023Y-92637259D02*
X245844642Y-92732497D01*
X245844642Y-92732497D02*
X245844642Y-92970592D01*
X245844642Y-92970592D02*
X245797023Y-93065830D01*
X245797023Y-93065830D02*
X245749404Y-93113450D01*
X245749404Y-93113450D02*
X245654166Y-93161069D01*
X245654166Y-93161069D02*
X245416071Y-93161069D01*
X245416071Y-93161069D02*
X245320833Y-93113450D01*
X245320833Y-93113450D02*
X245273214Y-93065830D01*
X246177976Y-92161069D02*
X246797023Y-92161069D01*
X246797023Y-92161069D02*
X246463690Y-92542021D01*
X246463690Y-92542021D02*
X246606547Y-92542021D01*
X246606547Y-92542021D02*
X246701785Y-92589640D01*
X246701785Y-92589640D02*
X246749404Y-92637259D01*
X246749404Y-92637259D02*
X246797023Y-92732497D01*
X246797023Y-92732497D02*
X246797023Y-92970592D01*
X246797023Y-92970592D02*
X246749404Y-93065830D01*
X246749404Y-93065830D02*
X246701785Y-93113450D01*
X246701785Y-93113450D02*
X246606547Y-93161069D01*
X246606547Y-93161069D02*
X246320833Y-93161069D01*
X246320833Y-93161069D02*
X246225595Y-93113450D01*
X246225595Y-93113450D02*
X246177976Y-93065830D01*
X224175595Y-55061069D02*
X224175595Y-54061069D01*
X224175595Y-54061069D02*
X224508928Y-54775354D01*
X224508928Y-54775354D02*
X224842261Y-54061069D01*
X224842261Y-54061069D02*
X224842261Y-55061069D01*
X225223214Y-54061069D02*
X225889880Y-55061069D01*
X225889880Y-54061069D02*
X225223214Y-55061069D01*
X226699404Y-54394402D02*
X226699404Y-55061069D01*
X226461309Y-54013450D02*
X226223214Y-54727735D01*
X226223214Y-54727735D02*
X226842261Y-54727735D01*
X227651785Y-54061069D02*
X227461309Y-54061069D01*
X227461309Y-54061069D02*
X227366071Y-54108688D01*
X227366071Y-54108688D02*
X227318452Y-54156307D01*
X227318452Y-54156307D02*
X227223214Y-54299164D01*
X227223214Y-54299164D02*
X227175595Y-54489640D01*
X227175595Y-54489640D02*
X227175595Y-54870592D01*
X227175595Y-54870592D02*
X227223214Y-54965830D01*
X227223214Y-54965830D02*
X227270833Y-55013450D01*
X227270833Y-55013450D02*
X227366071Y-55061069D01*
X227366071Y-55061069D02*
X227556547Y-55061069D01*
X227556547Y-55061069D02*
X227651785Y-55013450D01*
X227651785Y-55013450D02*
X227699404Y-54965830D01*
X227699404Y-54965830D02*
X227747023Y-54870592D01*
X227747023Y-54870592D02*
X227747023Y-54632497D01*
X227747023Y-54632497D02*
X227699404Y-54537259D01*
X227699404Y-54537259D02*
X227651785Y-54489640D01*
X227651785Y-54489640D02*
X227556547Y-54442021D01*
X227556547Y-54442021D02*
X227366071Y-54442021D01*
X227366071Y-54442021D02*
X227270833Y-54489640D01*
X227270833Y-54489640D02*
X227223214Y-54537259D01*
X227223214Y-54537259D02*
X227175595Y-54632497D01*
X262275595Y-74111069D02*
X262275595Y-73111069D01*
X262275595Y-73111069D02*
X262608928Y-73825354D01*
X262608928Y-73825354D02*
X262942261Y-73111069D01*
X262942261Y-73111069D02*
X262942261Y-74111069D01*
X263323214Y-73111069D02*
X263989880Y-74111069D01*
X263989880Y-73111069D02*
X263323214Y-74111069D01*
X264847023Y-73111069D02*
X264370833Y-73111069D01*
X264370833Y-73111069D02*
X264323214Y-73587259D01*
X264323214Y-73587259D02*
X264370833Y-73539640D01*
X264370833Y-73539640D02*
X264466071Y-73492021D01*
X264466071Y-73492021D02*
X264704166Y-73492021D01*
X264704166Y-73492021D02*
X264799404Y-73539640D01*
X264799404Y-73539640D02*
X264847023Y-73587259D01*
X264847023Y-73587259D02*
X264894642Y-73682497D01*
X264894642Y-73682497D02*
X264894642Y-73920592D01*
X264894642Y-73920592D02*
X264847023Y-74015830D01*
X264847023Y-74015830D02*
X264799404Y-74063450D01*
X264799404Y-74063450D02*
X264704166Y-74111069D01*
X264704166Y-74111069D02*
X264466071Y-74111069D01*
X264466071Y-74111069D02*
X264370833Y-74063450D01*
X264370833Y-74063450D02*
X264323214Y-74015830D01*
X265227976Y-73111069D02*
X265894642Y-73111069D01*
X265894642Y-73111069D02*
X265466071Y-74111069D01*
X167025595Y-55061069D02*
X167025595Y-54061069D01*
X167025595Y-54061069D02*
X167358928Y-54775354D01*
X167358928Y-54775354D02*
X167692261Y-54061069D01*
X167692261Y-54061069D02*
X167692261Y-55061069D01*
X168073214Y-54061069D02*
X168739880Y-55061069D01*
X168739880Y-54061069D02*
X168073214Y-55061069D01*
X169025595Y-54061069D02*
X169644642Y-54061069D01*
X169644642Y-54061069D02*
X169311309Y-54442021D01*
X169311309Y-54442021D02*
X169454166Y-54442021D01*
X169454166Y-54442021D02*
X169549404Y-54489640D01*
X169549404Y-54489640D02*
X169597023Y-54537259D01*
X169597023Y-54537259D02*
X169644642Y-54632497D01*
X169644642Y-54632497D02*
X169644642Y-54870592D01*
X169644642Y-54870592D02*
X169597023Y-54965830D01*
X169597023Y-54965830D02*
X169549404Y-55013450D01*
X169549404Y-55013450D02*
X169454166Y-55061069D01*
X169454166Y-55061069D02*
X169168452Y-55061069D01*
X169168452Y-55061069D02*
X169073214Y-55013450D01*
X169073214Y-55013450D02*
X169025595Y-54965830D01*
X170597023Y-55061069D02*
X170025595Y-55061069D01*
X170311309Y-55061069D02*
X170311309Y-54061069D01*
X170311309Y-54061069D02*
X170216071Y-54203926D01*
X170216071Y-54203926D02*
X170120833Y-54299164D01*
X170120833Y-54299164D02*
X170025595Y-54346783D01*
X137054820Y-35461904D02*
X137864343Y-35461904D01*
X137864343Y-35461904D02*
X137959581Y-35414285D01*
X137959581Y-35414285D02*
X138007201Y-35366666D01*
X138007201Y-35366666D02*
X138054820Y-35271428D01*
X138054820Y-35271428D02*
X138054820Y-35080952D01*
X138054820Y-35080952D02*
X138007201Y-34985714D01*
X138007201Y-34985714D02*
X137959581Y-34938095D01*
X137959581Y-34938095D02*
X137864343Y-34890476D01*
X137864343Y-34890476D02*
X137054820Y-34890476D01*
X137150058Y-34461904D02*
X137102439Y-34414285D01*
X137102439Y-34414285D02*
X137054820Y-34319047D01*
X137054820Y-34319047D02*
X137054820Y-34080952D01*
X137054820Y-34080952D02*
X137102439Y-33985714D01*
X137102439Y-33985714D02*
X137150058Y-33938095D01*
X137150058Y-33938095D02*
X137245296Y-33890476D01*
X137245296Y-33890476D02*
X137340534Y-33890476D01*
X137340534Y-33890476D02*
X137483391Y-33938095D01*
X137483391Y-33938095D02*
X138054820Y-34509523D01*
X138054820Y-34509523D02*
X138054820Y-33890476D01*
X128925595Y-131261069D02*
X128925595Y-130261069D01*
X128925595Y-130261069D02*
X129258928Y-130975354D01*
X129258928Y-130975354D02*
X129592261Y-130261069D01*
X129592261Y-130261069D02*
X129592261Y-131261069D01*
X129973214Y-130261069D02*
X130639880Y-131261069D01*
X130639880Y-130261069D02*
X129973214Y-131261069D01*
X130973214Y-130356307D02*
X131020833Y-130308688D01*
X131020833Y-130308688D02*
X131116071Y-130261069D01*
X131116071Y-130261069D02*
X131354166Y-130261069D01*
X131354166Y-130261069D02*
X131449404Y-130308688D01*
X131449404Y-130308688D02*
X131497023Y-130356307D01*
X131497023Y-130356307D02*
X131544642Y-130451545D01*
X131544642Y-130451545D02*
X131544642Y-130546783D01*
X131544642Y-130546783D02*
X131497023Y-130689640D01*
X131497023Y-130689640D02*
X130925595Y-131261069D01*
X130925595Y-131261069D02*
X131544642Y-131261069D01*
X132449404Y-130261069D02*
X131973214Y-130261069D01*
X131973214Y-130261069D02*
X131925595Y-130737259D01*
X131925595Y-130737259D02*
X131973214Y-130689640D01*
X131973214Y-130689640D02*
X132068452Y-130642021D01*
X132068452Y-130642021D02*
X132306547Y-130642021D01*
X132306547Y-130642021D02*
X132401785Y-130689640D01*
X132401785Y-130689640D02*
X132449404Y-130737259D01*
X132449404Y-130737259D02*
X132497023Y-130832497D01*
X132497023Y-130832497D02*
X132497023Y-131070592D01*
X132497023Y-131070592D02*
X132449404Y-131165830D01*
X132449404Y-131165830D02*
X132401785Y-131213450D01*
X132401785Y-131213450D02*
X132306547Y-131261069D01*
X132306547Y-131261069D02*
X132068452Y-131261069D01*
X132068452Y-131261069D02*
X131973214Y-131213450D01*
X131973214Y-131213450D02*
X131925595Y-131165830D01*
X121983333Y-28520830D02*
X121935714Y-28568450D01*
X121935714Y-28568450D02*
X121792857Y-28616069D01*
X121792857Y-28616069D02*
X121697619Y-28616069D01*
X121697619Y-28616069D02*
X121554762Y-28568450D01*
X121554762Y-28568450D02*
X121459524Y-28473211D01*
X121459524Y-28473211D02*
X121411905Y-28377973D01*
X121411905Y-28377973D02*
X121364286Y-28187497D01*
X121364286Y-28187497D02*
X121364286Y-28044640D01*
X121364286Y-28044640D02*
X121411905Y-27854164D01*
X121411905Y-27854164D02*
X121459524Y-27758926D01*
X121459524Y-27758926D02*
X121554762Y-27663688D01*
X121554762Y-27663688D02*
X121697619Y-27616069D01*
X121697619Y-27616069D02*
X121792857Y-27616069D01*
X121792857Y-27616069D02*
X121935714Y-27663688D01*
X121935714Y-27663688D02*
X121983333Y-27711307D01*
X122840476Y-27949402D02*
X122840476Y-28616069D01*
X122602381Y-27568450D02*
X122364286Y-28282735D01*
X122364286Y-28282735D02*
X122983333Y-28282735D01*
X205125595Y-55061069D02*
X205125595Y-54061069D01*
X205125595Y-54061069D02*
X205458928Y-54775354D01*
X205458928Y-54775354D02*
X205792261Y-54061069D01*
X205792261Y-54061069D02*
X205792261Y-55061069D01*
X206173214Y-54061069D02*
X206839880Y-55061069D01*
X206839880Y-54061069D02*
X206173214Y-55061069D01*
X207649404Y-54394402D02*
X207649404Y-55061069D01*
X207411309Y-54013450D02*
X207173214Y-54727735D01*
X207173214Y-54727735D02*
X207792261Y-54727735D01*
X208697023Y-55061069D02*
X208125595Y-55061069D01*
X208411309Y-55061069D02*
X208411309Y-54061069D01*
X208411309Y-54061069D02*
X208316071Y-54203926D01*
X208316071Y-54203926D02*
X208220833Y-54299164D01*
X208220833Y-54299164D02*
X208125595Y-54346783D01*
X53201786Y-112211069D02*
X53201786Y-111211069D01*
X53201786Y-111211069D02*
X53535119Y-111925354D01*
X53535119Y-111925354D02*
X53868452Y-111211069D01*
X53868452Y-111211069D02*
X53868452Y-112211069D01*
X54249405Y-111211069D02*
X54916071Y-112211069D01*
X54916071Y-111211069D02*
X54249405Y-112211069D01*
X55201786Y-111211069D02*
X55868452Y-111211069D01*
X55868452Y-111211069D02*
X55439881Y-112211069D01*
X158054819Y-21166666D02*
X157578628Y-21499999D01*
X158054819Y-21738094D02*
X157054819Y-21738094D01*
X157054819Y-21738094D02*
X157054819Y-21357142D01*
X157054819Y-21357142D02*
X157102438Y-21261904D01*
X157102438Y-21261904D02*
X157150057Y-21214285D01*
X157150057Y-21214285D02*
X157245295Y-21166666D01*
X157245295Y-21166666D02*
X157388152Y-21166666D01*
X157388152Y-21166666D02*
X157483390Y-21214285D01*
X157483390Y-21214285D02*
X157531009Y-21261904D01*
X157531009Y-21261904D02*
X157578628Y-21357142D01*
X157578628Y-21357142D02*
X157578628Y-21738094D01*
X157054819Y-20261904D02*
X157054819Y-20738094D01*
X157054819Y-20738094D02*
X157531009Y-20785713D01*
X157531009Y-20785713D02*
X157483390Y-20738094D01*
X157483390Y-20738094D02*
X157435771Y-20642856D01*
X157435771Y-20642856D02*
X157435771Y-20404761D01*
X157435771Y-20404761D02*
X157483390Y-20309523D01*
X157483390Y-20309523D02*
X157531009Y-20261904D01*
X157531009Y-20261904D02*
X157626247Y-20214285D01*
X157626247Y-20214285D02*
X157864342Y-20214285D01*
X157864342Y-20214285D02*
X157959580Y-20261904D01*
X157959580Y-20261904D02*
X158007200Y-20309523D01*
X158007200Y-20309523D02*
X158054819Y-20404761D01*
X158054819Y-20404761D02*
X158054819Y-20642856D01*
X158054819Y-20642856D02*
X158007200Y-20738094D01*
X158007200Y-20738094D02*
X157959580Y-20785713D01*
X147975595Y-74111069D02*
X147975595Y-73111069D01*
X147975595Y-73111069D02*
X148308928Y-73825354D01*
X148308928Y-73825354D02*
X148642261Y-73111069D01*
X148642261Y-73111069D02*
X148642261Y-74111069D01*
X149023214Y-73111069D02*
X149689880Y-74111069D01*
X149689880Y-73111069D02*
X149023214Y-74111069D01*
X150023214Y-73206307D02*
X150070833Y-73158688D01*
X150070833Y-73158688D02*
X150166071Y-73111069D01*
X150166071Y-73111069D02*
X150404166Y-73111069D01*
X150404166Y-73111069D02*
X150499404Y-73158688D01*
X150499404Y-73158688D02*
X150547023Y-73206307D01*
X150547023Y-73206307D02*
X150594642Y-73301545D01*
X150594642Y-73301545D02*
X150594642Y-73396783D01*
X150594642Y-73396783D02*
X150547023Y-73539640D01*
X150547023Y-73539640D02*
X149975595Y-74111069D01*
X149975595Y-74111069D02*
X150594642Y-74111069D01*
X150927976Y-73111069D02*
X151594642Y-73111069D01*
X151594642Y-73111069D02*
X151166071Y-74111069D01*
X109875595Y-93161069D02*
X109875595Y-92161069D01*
X109875595Y-92161069D02*
X110208928Y-92875354D01*
X110208928Y-92875354D02*
X110542261Y-92161069D01*
X110542261Y-92161069D02*
X110542261Y-93161069D01*
X110923214Y-92161069D02*
X111589880Y-93161069D01*
X111589880Y-92161069D02*
X110923214Y-93161069D01*
X112494642Y-93161069D02*
X111923214Y-93161069D01*
X112208928Y-93161069D02*
X112208928Y-92161069D01*
X112208928Y-92161069D02*
X112113690Y-92303926D01*
X112113690Y-92303926D02*
X112018452Y-92399164D01*
X112018452Y-92399164D02*
X111923214Y-92446783D01*
X113066071Y-92589640D02*
X112970833Y-92542021D01*
X112970833Y-92542021D02*
X112923214Y-92494402D01*
X112923214Y-92494402D02*
X112875595Y-92399164D01*
X112875595Y-92399164D02*
X112875595Y-92351545D01*
X112875595Y-92351545D02*
X112923214Y-92256307D01*
X112923214Y-92256307D02*
X112970833Y-92208688D01*
X112970833Y-92208688D02*
X113066071Y-92161069D01*
X113066071Y-92161069D02*
X113256547Y-92161069D01*
X113256547Y-92161069D02*
X113351785Y-92208688D01*
X113351785Y-92208688D02*
X113399404Y-92256307D01*
X113399404Y-92256307D02*
X113447023Y-92351545D01*
X113447023Y-92351545D02*
X113447023Y-92399164D01*
X113447023Y-92399164D02*
X113399404Y-92494402D01*
X113399404Y-92494402D02*
X113351785Y-92542021D01*
X113351785Y-92542021D02*
X113256547Y-92589640D01*
X113256547Y-92589640D02*
X113066071Y-92589640D01*
X113066071Y-92589640D02*
X112970833Y-92637259D01*
X112970833Y-92637259D02*
X112923214Y-92684878D01*
X112923214Y-92684878D02*
X112875595Y-92780116D01*
X112875595Y-92780116D02*
X112875595Y-92970592D01*
X112875595Y-92970592D02*
X112923214Y-93065830D01*
X112923214Y-93065830D02*
X112970833Y-93113450D01*
X112970833Y-93113450D02*
X113066071Y-93161069D01*
X113066071Y-93161069D02*
X113256547Y-93161069D01*
X113256547Y-93161069D02*
X113351785Y-93113450D01*
X113351785Y-93113450D02*
X113399404Y-93065830D01*
X113399404Y-93065830D02*
X113447023Y-92970592D01*
X113447023Y-92970592D02*
X113447023Y-92780116D01*
X113447023Y-92780116D02*
X113399404Y-92684878D01*
X113399404Y-92684878D02*
X113351785Y-92637259D01*
X113351785Y-92637259D02*
X113256547Y-92589640D01*
X224175595Y-131261069D02*
X224175595Y-130261069D01*
X224175595Y-130261069D02*
X224508928Y-130975354D01*
X224508928Y-130975354D02*
X224842261Y-130261069D01*
X224842261Y-130261069D02*
X224842261Y-131261069D01*
X225223214Y-130261069D02*
X225889880Y-131261069D01*
X225889880Y-130261069D02*
X225223214Y-131261069D01*
X226747023Y-130261069D02*
X226270833Y-130261069D01*
X226270833Y-130261069D02*
X226223214Y-130737259D01*
X226223214Y-130737259D02*
X226270833Y-130689640D01*
X226270833Y-130689640D02*
X226366071Y-130642021D01*
X226366071Y-130642021D02*
X226604166Y-130642021D01*
X226604166Y-130642021D02*
X226699404Y-130689640D01*
X226699404Y-130689640D02*
X226747023Y-130737259D01*
X226747023Y-130737259D02*
X226794642Y-130832497D01*
X226794642Y-130832497D02*
X226794642Y-131070592D01*
X226794642Y-131070592D02*
X226747023Y-131165830D01*
X226747023Y-131165830D02*
X226699404Y-131213450D01*
X226699404Y-131213450D02*
X226604166Y-131261069D01*
X226604166Y-131261069D02*
X226366071Y-131261069D01*
X226366071Y-131261069D02*
X226270833Y-131213450D01*
X226270833Y-131213450D02*
X226223214Y-131165830D01*
X227413690Y-130261069D02*
X227508928Y-130261069D01*
X227508928Y-130261069D02*
X227604166Y-130308688D01*
X227604166Y-130308688D02*
X227651785Y-130356307D01*
X227651785Y-130356307D02*
X227699404Y-130451545D01*
X227699404Y-130451545D02*
X227747023Y-130642021D01*
X227747023Y-130642021D02*
X227747023Y-130880116D01*
X227747023Y-130880116D02*
X227699404Y-131070592D01*
X227699404Y-131070592D02*
X227651785Y-131165830D01*
X227651785Y-131165830D02*
X227604166Y-131213450D01*
X227604166Y-131213450D02*
X227508928Y-131261069D01*
X227508928Y-131261069D02*
X227413690Y-131261069D01*
X227413690Y-131261069D02*
X227318452Y-131213450D01*
X227318452Y-131213450D02*
X227270833Y-131165830D01*
X227270833Y-131165830D02*
X227223214Y-131070592D01*
X227223214Y-131070592D02*
X227175595Y-130880116D01*
X227175595Y-130880116D02*
X227175595Y-130642021D01*
X227175595Y-130642021D02*
X227223214Y-130451545D01*
X227223214Y-130451545D02*
X227270833Y-130356307D01*
X227270833Y-130356307D02*
X227318452Y-130308688D01*
X227318452Y-130308688D02*
X227413690Y-130261069D01*
X125733333Y-45770830D02*
X125685714Y-45818450D01*
X125685714Y-45818450D02*
X125542857Y-45866069D01*
X125542857Y-45866069D02*
X125447619Y-45866069D01*
X125447619Y-45866069D02*
X125304762Y-45818450D01*
X125304762Y-45818450D02*
X125209524Y-45723211D01*
X125209524Y-45723211D02*
X125161905Y-45627973D01*
X125161905Y-45627973D02*
X125114286Y-45437497D01*
X125114286Y-45437497D02*
X125114286Y-45294640D01*
X125114286Y-45294640D02*
X125161905Y-45104164D01*
X125161905Y-45104164D02*
X125209524Y-45008926D01*
X125209524Y-45008926D02*
X125304762Y-44913688D01*
X125304762Y-44913688D02*
X125447619Y-44866069D01*
X125447619Y-44866069D02*
X125542857Y-44866069D01*
X125542857Y-44866069D02*
X125685714Y-44913688D01*
X125685714Y-44913688D02*
X125733333Y-44961307D01*
X126066667Y-44866069D02*
X126685714Y-44866069D01*
X126685714Y-44866069D02*
X126352381Y-45247021D01*
X126352381Y-45247021D02*
X126495238Y-45247021D01*
X126495238Y-45247021D02*
X126590476Y-45294640D01*
X126590476Y-45294640D02*
X126638095Y-45342259D01*
X126638095Y-45342259D02*
X126685714Y-45437497D01*
X126685714Y-45437497D02*
X126685714Y-45675592D01*
X126685714Y-45675592D02*
X126638095Y-45770830D01*
X126638095Y-45770830D02*
X126590476Y-45818450D01*
X126590476Y-45818450D02*
X126495238Y-45866069D01*
X126495238Y-45866069D02*
X126209524Y-45866069D01*
X126209524Y-45866069D02*
X126114286Y-45818450D01*
X126114286Y-45818450D02*
X126066667Y-45770830D01*
X243225595Y-55061069D02*
X243225595Y-54061069D01*
X243225595Y-54061069D02*
X243558928Y-54775354D01*
X243558928Y-54775354D02*
X243892261Y-54061069D01*
X243892261Y-54061069D02*
X243892261Y-55061069D01*
X244273214Y-54061069D02*
X244939880Y-55061069D01*
X244939880Y-54061069D02*
X244273214Y-55061069D01*
X245797023Y-54061069D02*
X245320833Y-54061069D01*
X245320833Y-54061069D02*
X245273214Y-54537259D01*
X245273214Y-54537259D02*
X245320833Y-54489640D01*
X245320833Y-54489640D02*
X245416071Y-54442021D01*
X245416071Y-54442021D02*
X245654166Y-54442021D01*
X245654166Y-54442021D02*
X245749404Y-54489640D01*
X245749404Y-54489640D02*
X245797023Y-54537259D01*
X245797023Y-54537259D02*
X245844642Y-54632497D01*
X245844642Y-54632497D02*
X245844642Y-54870592D01*
X245844642Y-54870592D02*
X245797023Y-54965830D01*
X245797023Y-54965830D02*
X245749404Y-55013450D01*
X245749404Y-55013450D02*
X245654166Y-55061069D01*
X245654166Y-55061069D02*
X245416071Y-55061069D01*
X245416071Y-55061069D02*
X245320833Y-55013450D01*
X245320833Y-55013450D02*
X245273214Y-54965830D01*
X246797023Y-55061069D02*
X246225595Y-55061069D01*
X246511309Y-55061069D02*
X246511309Y-54061069D01*
X246511309Y-54061069D02*
X246416071Y-54203926D01*
X246416071Y-54203926D02*
X246320833Y-54299164D01*
X246320833Y-54299164D02*
X246225595Y-54346783D01*
X186075595Y-131261069D02*
X186075595Y-130261069D01*
X186075595Y-130261069D02*
X186408928Y-130975354D01*
X186408928Y-130975354D02*
X186742261Y-130261069D01*
X186742261Y-130261069D02*
X186742261Y-131261069D01*
X187123214Y-130261069D02*
X187789880Y-131261069D01*
X187789880Y-130261069D02*
X187123214Y-131261069D01*
X188599404Y-130594402D02*
X188599404Y-131261069D01*
X188361309Y-130213450D02*
X188123214Y-130927735D01*
X188123214Y-130927735D02*
X188742261Y-130927735D01*
X189313690Y-130261069D02*
X189408928Y-130261069D01*
X189408928Y-130261069D02*
X189504166Y-130308688D01*
X189504166Y-130308688D02*
X189551785Y-130356307D01*
X189551785Y-130356307D02*
X189599404Y-130451545D01*
X189599404Y-130451545D02*
X189647023Y-130642021D01*
X189647023Y-130642021D02*
X189647023Y-130880116D01*
X189647023Y-130880116D02*
X189599404Y-131070592D01*
X189599404Y-131070592D02*
X189551785Y-131165830D01*
X189551785Y-131165830D02*
X189504166Y-131213450D01*
X189504166Y-131213450D02*
X189408928Y-131261069D01*
X189408928Y-131261069D02*
X189313690Y-131261069D01*
X189313690Y-131261069D02*
X189218452Y-131213450D01*
X189218452Y-131213450D02*
X189170833Y-131165830D01*
X189170833Y-131165830D02*
X189123214Y-131070592D01*
X189123214Y-131070592D02*
X189075595Y-130880116D01*
X189075595Y-130880116D02*
X189075595Y-130642021D01*
X189075595Y-130642021D02*
X189123214Y-130451545D01*
X189123214Y-130451545D02*
X189170833Y-130356307D01*
X189170833Y-130356307D02*
X189218452Y-130308688D01*
X189218452Y-130308688D02*
X189313690Y-130261069D01*
X90825595Y-74111069D02*
X90825595Y-73111069D01*
X90825595Y-73111069D02*
X91158928Y-73825354D01*
X91158928Y-73825354D02*
X91492261Y-73111069D01*
X91492261Y-73111069D02*
X91492261Y-74111069D01*
X91873214Y-73111069D02*
X92539880Y-74111069D01*
X92539880Y-73111069D02*
X91873214Y-74111069D01*
X93444642Y-74111069D02*
X92873214Y-74111069D01*
X93158928Y-74111069D02*
X93158928Y-73111069D01*
X93158928Y-73111069D02*
X93063690Y-73253926D01*
X93063690Y-73253926D02*
X92968452Y-73349164D01*
X92968452Y-73349164D02*
X92873214Y-73396783D01*
X93825595Y-73206307D02*
X93873214Y-73158688D01*
X93873214Y-73158688D02*
X93968452Y-73111069D01*
X93968452Y-73111069D02*
X94206547Y-73111069D01*
X94206547Y-73111069D02*
X94301785Y-73158688D01*
X94301785Y-73158688D02*
X94349404Y-73206307D01*
X94349404Y-73206307D02*
X94397023Y-73301545D01*
X94397023Y-73301545D02*
X94397023Y-73396783D01*
X94397023Y-73396783D02*
X94349404Y-73539640D01*
X94349404Y-73539640D02*
X93777976Y-74111069D01*
X93777976Y-74111069D02*
X94397023Y-74111069D01*
X224175595Y-74111069D02*
X224175595Y-73111069D01*
X224175595Y-73111069D02*
X224508928Y-73825354D01*
X224508928Y-73825354D02*
X224842261Y-73111069D01*
X224842261Y-73111069D02*
X224842261Y-74111069D01*
X225223214Y-73111069D02*
X225889880Y-74111069D01*
X225889880Y-73111069D02*
X225223214Y-74111069D01*
X226699404Y-73444402D02*
X226699404Y-74111069D01*
X226461309Y-73063450D02*
X226223214Y-73777735D01*
X226223214Y-73777735D02*
X226842261Y-73777735D01*
X227127976Y-73111069D02*
X227794642Y-73111069D01*
X227794642Y-73111069D02*
X227366071Y-74111069D01*
X262275595Y-93161069D02*
X262275595Y-92161069D01*
X262275595Y-92161069D02*
X262608928Y-92875354D01*
X262608928Y-92875354D02*
X262942261Y-92161069D01*
X262942261Y-92161069D02*
X262942261Y-93161069D01*
X263323214Y-92161069D02*
X263989880Y-93161069D01*
X263989880Y-92161069D02*
X263323214Y-93161069D01*
X264847023Y-92161069D02*
X264370833Y-92161069D01*
X264370833Y-92161069D02*
X264323214Y-92637259D01*
X264323214Y-92637259D02*
X264370833Y-92589640D01*
X264370833Y-92589640D02*
X264466071Y-92542021D01*
X264466071Y-92542021D02*
X264704166Y-92542021D01*
X264704166Y-92542021D02*
X264799404Y-92589640D01*
X264799404Y-92589640D02*
X264847023Y-92637259D01*
X264847023Y-92637259D02*
X264894642Y-92732497D01*
X264894642Y-92732497D02*
X264894642Y-92970592D01*
X264894642Y-92970592D02*
X264847023Y-93065830D01*
X264847023Y-93065830D02*
X264799404Y-93113450D01*
X264799404Y-93113450D02*
X264704166Y-93161069D01*
X264704166Y-93161069D02*
X264466071Y-93161069D01*
X264466071Y-93161069D02*
X264370833Y-93113450D01*
X264370833Y-93113450D02*
X264323214Y-93065830D01*
X265466071Y-92589640D02*
X265370833Y-92542021D01*
X265370833Y-92542021D02*
X265323214Y-92494402D01*
X265323214Y-92494402D02*
X265275595Y-92399164D01*
X265275595Y-92399164D02*
X265275595Y-92351545D01*
X265275595Y-92351545D02*
X265323214Y-92256307D01*
X265323214Y-92256307D02*
X265370833Y-92208688D01*
X265370833Y-92208688D02*
X265466071Y-92161069D01*
X265466071Y-92161069D02*
X265656547Y-92161069D01*
X265656547Y-92161069D02*
X265751785Y-92208688D01*
X265751785Y-92208688D02*
X265799404Y-92256307D01*
X265799404Y-92256307D02*
X265847023Y-92351545D01*
X265847023Y-92351545D02*
X265847023Y-92399164D01*
X265847023Y-92399164D02*
X265799404Y-92494402D01*
X265799404Y-92494402D02*
X265751785Y-92542021D01*
X265751785Y-92542021D02*
X265656547Y-92589640D01*
X265656547Y-92589640D02*
X265466071Y-92589640D01*
X265466071Y-92589640D02*
X265370833Y-92637259D01*
X265370833Y-92637259D02*
X265323214Y-92684878D01*
X265323214Y-92684878D02*
X265275595Y-92780116D01*
X265275595Y-92780116D02*
X265275595Y-92970592D01*
X265275595Y-92970592D02*
X265323214Y-93065830D01*
X265323214Y-93065830D02*
X265370833Y-93113450D01*
X265370833Y-93113450D02*
X265466071Y-93161069D01*
X265466071Y-93161069D02*
X265656547Y-93161069D01*
X265656547Y-93161069D02*
X265751785Y-93113450D01*
X265751785Y-93113450D02*
X265799404Y-93065830D01*
X265799404Y-93065830D02*
X265847023Y-92970592D01*
X265847023Y-92970592D02*
X265847023Y-92780116D01*
X265847023Y-92780116D02*
X265799404Y-92684878D01*
X265799404Y-92684878D02*
X265751785Y-92637259D01*
X265751785Y-92637259D02*
X265656547Y-92589640D01*
X262275595Y-112211069D02*
X262275595Y-111211069D01*
X262275595Y-111211069D02*
X262608928Y-111925354D01*
X262608928Y-111925354D02*
X262942261Y-111211069D01*
X262942261Y-111211069D02*
X262942261Y-112211069D01*
X263323214Y-111211069D02*
X263989880Y-112211069D01*
X263989880Y-111211069D02*
X263323214Y-112211069D01*
X264847023Y-111211069D02*
X264370833Y-111211069D01*
X264370833Y-111211069D02*
X264323214Y-111687259D01*
X264323214Y-111687259D02*
X264370833Y-111639640D01*
X264370833Y-111639640D02*
X264466071Y-111592021D01*
X264466071Y-111592021D02*
X264704166Y-111592021D01*
X264704166Y-111592021D02*
X264799404Y-111639640D01*
X264799404Y-111639640D02*
X264847023Y-111687259D01*
X264847023Y-111687259D02*
X264894642Y-111782497D01*
X264894642Y-111782497D02*
X264894642Y-112020592D01*
X264894642Y-112020592D02*
X264847023Y-112115830D01*
X264847023Y-112115830D02*
X264799404Y-112163450D01*
X264799404Y-112163450D02*
X264704166Y-112211069D01*
X264704166Y-112211069D02*
X264466071Y-112211069D01*
X264466071Y-112211069D02*
X264370833Y-112163450D01*
X264370833Y-112163450D02*
X264323214Y-112115830D01*
X265370833Y-112211069D02*
X265561309Y-112211069D01*
X265561309Y-112211069D02*
X265656547Y-112163450D01*
X265656547Y-112163450D02*
X265704166Y-112115830D01*
X265704166Y-112115830D02*
X265799404Y-111972973D01*
X265799404Y-111972973D02*
X265847023Y-111782497D01*
X265847023Y-111782497D02*
X265847023Y-111401545D01*
X265847023Y-111401545D02*
X265799404Y-111306307D01*
X265799404Y-111306307D02*
X265751785Y-111258688D01*
X265751785Y-111258688D02*
X265656547Y-111211069D01*
X265656547Y-111211069D02*
X265466071Y-111211069D01*
X265466071Y-111211069D02*
X265370833Y-111258688D01*
X265370833Y-111258688D02*
X265323214Y-111306307D01*
X265323214Y-111306307D02*
X265275595Y-111401545D01*
X265275595Y-111401545D02*
X265275595Y-111639640D01*
X265275595Y-111639640D02*
X265323214Y-111734878D01*
X265323214Y-111734878D02*
X265370833Y-111782497D01*
X265370833Y-111782497D02*
X265466071Y-111830116D01*
X265466071Y-111830116D02*
X265656547Y-111830116D01*
X265656547Y-111830116D02*
X265751785Y-111782497D01*
X265751785Y-111782497D02*
X265799404Y-111734878D01*
X265799404Y-111734878D02*
X265847023Y-111639640D01*
X205125595Y-93161069D02*
X205125595Y-92161069D01*
X205125595Y-92161069D02*
X205458928Y-92875354D01*
X205458928Y-92875354D02*
X205792261Y-92161069D01*
X205792261Y-92161069D02*
X205792261Y-93161069D01*
X206173214Y-92161069D02*
X206839880Y-93161069D01*
X206839880Y-92161069D02*
X206173214Y-93161069D01*
X207649404Y-92494402D02*
X207649404Y-93161069D01*
X207411309Y-92113450D02*
X207173214Y-92827735D01*
X207173214Y-92827735D02*
X207792261Y-92827735D01*
X208077976Y-92161069D02*
X208697023Y-92161069D01*
X208697023Y-92161069D02*
X208363690Y-92542021D01*
X208363690Y-92542021D02*
X208506547Y-92542021D01*
X208506547Y-92542021D02*
X208601785Y-92589640D01*
X208601785Y-92589640D02*
X208649404Y-92637259D01*
X208649404Y-92637259D02*
X208697023Y-92732497D01*
X208697023Y-92732497D02*
X208697023Y-92970592D01*
X208697023Y-92970592D02*
X208649404Y-93065830D01*
X208649404Y-93065830D02*
X208601785Y-93113450D01*
X208601785Y-93113450D02*
X208506547Y-93161069D01*
X208506547Y-93161069D02*
X208220833Y-93161069D01*
X208220833Y-93161069D02*
X208125595Y-93113450D01*
X208125595Y-93113450D02*
X208077976Y-93065830D01*
X243225595Y-112211069D02*
X243225595Y-111211069D01*
X243225595Y-111211069D02*
X243558928Y-111925354D01*
X243558928Y-111925354D02*
X243892261Y-111211069D01*
X243892261Y-111211069D02*
X243892261Y-112211069D01*
X244273214Y-111211069D02*
X244939880Y-112211069D01*
X244939880Y-111211069D02*
X244273214Y-112211069D01*
X245797023Y-111211069D02*
X245320833Y-111211069D01*
X245320833Y-111211069D02*
X245273214Y-111687259D01*
X245273214Y-111687259D02*
X245320833Y-111639640D01*
X245320833Y-111639640D02*
X245416071Y-111592021D01*
X245416071Y-111592021D02*
X245654166Y-111592021D01*
X245654166Y-111592021D02*
X245749404Y-111639640D01*
X245749404Y-111639640D02*
X245797023Y-111687259D01*
X245797023Y-111687259D02*
X245844642Y-111782497D01*
X245844642Y-111782497D02*
X245844642Y-112020592D01*
X245844642Y-112020592D02*
X245797023Y-112115830D01*
X245797023Y-112115830D02*
X245749404Y-112163450D01*
X245749404Y-112163450D02*
X245654166Y-112211069D01*
X245654166Y-112211069D02*
X245416071Y-112211069D01*
X245416071Y-112211069D02*
X245320833Y-112163450D01*
X245320833Y-112163450D02*
X245273214Y-112115830D01*
X246701785Y-111544402D02*
X246701785Y-112211069D01*
X246463690Y-111163450D02*
X246225595Y-111877735D01*
X246225595Y-111877735D02*
X246844642Y-111877735D01*
X109875595Y-112211069D02*
X109875595Y-111211069D01*
X109875595Y-111211069D02*
X110208928Y-111925354D01*
X110208928Y-111925354D02*
X110542261Y-111211069D01*
X110542261Y-111211069D02*
X110542261Y-112211069D01*
X110923214Y-111211069D02*
X111589880Y-112211069D01*
X111589880Y-111211069D02*
X110923214Y-112211069D01*
X112494642Y-112211069D02*
X111923214Y-112211069D01*
X112208928Y-112211069D02*
X112208928Y-111211069D01*
X112208928Y-111211069D02*
X112113690Y-111353926D01*
X112113690Y-111353926D02*
X112018452Y-111449164D01*
X112018452Y-111449164D02*
X111923214Y-111496783D01*
X112970833Y-112211069D02*
X113161309Y-112211069D01*
X113161309Y-112211069D02*
X113256547Y-112163450D01*
X113256547Y-112163450D02*
X113304166Y-112115830D01*
X113304166Y-112115830D02*
X113399404Y-111972973D01*
X113399404Y-111972973D02*
X113447023Y-111782497D01*
X113447023Y-111782497D02*
X113447023Y-111401545D01*
X113447023Y-111401545D02*
X113399404Y-111306307D01*
X113399404Y-111306307D02*
X113351785Y-111258688D01*
X113351785Y-111258688D02*
X113256547Y-111211069D01*
X113256547Y-111211069D02*
X113066071Y-111211069D01*
X113066071Y-111211069D02*
X112970833Y-111258688D01*
X112970833Y-111258688D02*
X112923214Y-111306307D01*
X112923214Y-111306307D02*
X112875595Y-111401545D01*
X112875595Y-111401545D02*
X112875595Y-111639640D01*
X112875595Y-111639640D02*
X112923214Y-111734878D01*
X112923214Y-111734878D02*
X112970833Y-111782497D01*
X112970833Y-111782497D02*
X113066071Y-111830116D01*
X113066071Y-111830116D02*
X113256547Y-111830116D01*
X113256547Y-111830116D02*
X113351785Y-111782497D01*
X113351785Y-111782497D02*
X113399404Y-111734878D01*
X113399404Y-111734878D02*
X113447023Y-111639640D01*
X90825595Y-112211069D02*
X90825595Y-111211069D01*
X90825595Y-111211069D02*
X91158928Y-111925354D01*
X91158928Y-111925354D02*
X91492261Y-111211069D01*
X91492261Y-111211069D02*
X91492261Y-112211069D01*
X91873214Y-111211069D02*
X92539880Y-112211069D01*
X92539880Y-111211069D02*
X91873214Y-112211069D01*
X93444642Y-112211069D02*
X92873214Y-112211069D01*
X93158928Y-112211069D02*
X93158928Y-111211069D01*
X93158928Y-111211069D02*
X93063690Y-111353926D01*
X93063690Y-111353926D02*
X92968452Y-111449164D01*
X92968452Y-111449164D02*
X92873214Y-111496783D01*
X94301785Y-111544402D02*
X94301785Y-112211069D01*
X94063690Y-111163450D02*
X93825595Y-111877735D01*
X93825595Y-111877735D02*
X94444642Y-111877735D01*
X134983333Y-24160830D02*
X134935714Y-24208450D01*
X134935714Y-24208450D02*
X134792857Y-24256069D01*
X134792857Y-24256069D02*
X134697619Y-24256069D01*
X134697619Y-24256069D02*
X134554762Y-24208450D01*
X134554762Y-24208450D02*
X134459524Y-24113211D01*
X134459524Y-24113211D02*
X134411905Y-24017973D01*
X134411905Y-24017973D02*
X134364286Y-23827497D01*
X134364286Y-23827497D02*
X134364286Y-23684640D01*
X134364286Y-23684640D02*
X134411905Y-23494164D01*
X134411905Y-23494164D02*
X134459524Y-23398926D01*
X134459524Y-23398926D02*
X134554762Y-23303688D01*
X134554762Y-23303688D02*
X134697619Y-23256069D01*
X134697619Y-23256069D02*
X134792857Y-23256069D01*
X134792857Y-23256069D02*
X134935714Y-23303688D01*
X134935714Y-23303688D02*
X134983333Y-23351307D01*
X135888095Y-23256069D02*
X135411905Y-23256069D01*
X135411905Y-23256069D02*
X135364286Y-23732259D01*
X135364286Y-23732259D02*
X135411905Y-23684640D01*
X135411905Y-23684640D02*
X135507143Y-23637021D01*
X135507143Y-23637021D02*
X135745238Y-23637021D01*
X135745238Y-23637021D02*
X135840476Y-23684640D01*
X135840476Y-23684640D02*
X135888095Y-23732259D01*
X135888095Y-23732259D02*
X135935714Y-23827497D01*
X135935714Y-23827497D02*
X135935714Y-24065592D01*
X135935714Y-24065592D02*
X135888095Y-24160830D01*
X135888095Y-24160830D02*
X135840476Y-24208450D01*
X135840476Y-24208450D02*
X135745238Y-24256069D01*
X135745238Y-24256069D02*
X135507143Y-24256069D01*
X135507143Y-24256069D02*
X135411905Y-24208450D01*
X135411905Y-24208450D02*
X135364286Y-24160830D01*
X128925595Y-74111069D02*
X128925595Y-73111069D01*
X128925595Y-73111069D02*
X129258928Y-73825354D01*
X129258928Y-73825354D02*
X129592261Y-73111069D01*
X129592261Y-73111069D02*
X129592261Y-74111069D01*
X129973214Y-73111069D02*
X130639880Y-74111069D01*
X130639880Y-73111069D02*
X129973214Y-74111069D01*
X130973214Y-73206307D02*
X131020833Y-73158688D01*
X131020833Y-73158688D02*
X131116071Y-73111069D01*
X131116071Y-73111069D02*
X131354166Y-73111069D01*
X131354166Y-73111069D02*
X131449404Y-73158688D01*
X131449404Y-73158688D02*
X131497023Y-73206307D01*
X131497023Y-73206307D02*
X131544642Y-73301545D01*
X131544642Y-73301545D02*
X131544642Y-73396783D01*
X131544642Y-73396783D02*
X131497023Y-73539640D01*
X131497023Y-73539640D02*
X130925595Y-74111069D01*
X130925595Y-74111069D02*
X131544642Y-74111069D01*
X131925595Y-73206307D02*
X131973214Y-73158688D01*
X131973214Y-73158688D02*
X132068452Y-73111069D01*
X132068452Y-73111069D02*
X132306547Y-73111069D01*
X132306547Y-73111069D02*
X132401785Y-73158688D01*
X132401785Y-73158688D02*
X132449404Y-73206307D01*
X132449404Y-73206307D02*
X132497023Y-73301545D01*
X132497023Y-73301545D02*
X132497023Y-73396783D01*
X132497023Y-73396783D02*
X132449404Y-73539640D01*
X132449404Y-73539640D02*
X131877976Y-74111069D01*
X131877976Y-74111069D02*
X132497023Y-74111069D01*
X136333333Y-43286069D02*
X136000000Y-42809878D01*
X135761905Y-43286069D02*
X135761905Y-42286069D01*
X135761905Y-42286069D02*
X136142857Y-42286069D01*
X136142857Y-42286069D02*
X136238095Y-42333688D01*
X136238095Y-42333688D02*
X136285714Y-42381307D01*
X136285714Y-42381307D02*
X136333333Y-42476545D01*
X136333333Y-42476545D02*
X136333333Y-42619402D01*
X136333333Y-42619402D02*
X136285714Y-42714640D01*
X136285714Y-42714640D02*
X136238095Y-42762259D01*
X136238095Y-42762259D02*
X136142857Y-42809878D01*
X136142857Y-42809878D02*
X135761905Y-42809878D01*
X137285714Y-43286069D02*
X136714286Y-43286069D01*
X137000000Y-43286069D02*
X137000000Y-42286069D01*
X137000000Y-42286069D02*
X136904762Y-42428926D01*
X136904762Y-42428926D02*
X136809524Y-42524164D01*
X136809524Y-42524164D02*
X136714286Y-42571783D01*
X147975595Y-55061069D02*
X147975595Y-54061069D01*
X147975595Y-54061069D02*
X148308928Y-54775354D01*
X148308928Y-54775354D02*
X148642261Y-54061069D01*
X148642261Y-54061069D02*
X148642261Y-55061069D01*
X149023214Y-54061069D02*
X149689880Y-55061069D01*
X149689880Y-54061069D02*
X149023214Y-55061069D01*
X150023214Y-54156307D02*
X150070833Y-54108688D01*
X150070833Y-54108688D02*
X150166071Y-54061069D01*
X150166071Y-54061069D02*
X150404166Y-54061069D01*
X150404166Y-54061069D02*
X150499404Y-54108688D01*
X150499404Y-54108688D02*
X150547023Y-54156307D01*
X150547023Y-54156307D02*
X150594642Y-54251545D01*
X150594642Y-54251545D02*
X150594642Y-54346783D01*
X150594642Y-54346783D02*
X150547023Y-54489640D01*
X150547023Y-54489640D02*
X149975595Y-55061069D01*
X149975595Y-55061069D02*
X150594642Y-55061069D01*
X151451785Y-54061069D02*
X151261309Y-54061069D01*
X151261309Y-54061069D02*
X151166071Y-54108688D01*
X151166071Y-54108688D02*
X151118452Y-54156307D01*
X151118452Y-54156307D02*
X151023214Y-54299164D01*
X151023214Y-54299164D02*
X150975595Y-54489640D01*
X150975595Y-54489640D02*
X150975595Y-54870592D01*
X150975595Y-54870592D02*
X151023214Y-54965830D01*
X151023214Y-54965830D02*
X151070833Y-55013450D01*
X151070833Y-55013450D02*
X151166071Y-55061069D01*
X151166071Y-55061069D02*
X151356547Y-55061069D01*
X151356547Y-55061069D02*
X151451785Y-55013450D01*
X151451785Y-55013450D02*
X151499404Y-54965830D01*
X151499404Y-54965830D02*
X151547023Y-54870592D01*
X151547023Y-54870592D02*
X151547023Y-54632497D01*
X151547023Y-54632497D02*
X151499404Y-54537259D01*
X151499404Y-54537259D02*
X151451785Y-54489640D01*
X151451785Y-54489640D02*
X151356547Y-54442021D01*
X151356547Y-54442021D02*
X151166071Y-54442021D01*
X151166071Y-54442021D02*
X151070833Y-54489640D01*
X151070833Y-54489640D02*
X151023214Y-54537259D01*
X151023214Y-54537259D02*
X150975595Y-54632497D01*
X147975595Y-93161069D02*
X147975595Y-92161069D01*
X147975595Y-92161069D02*
X148308928Y-92875354D01*
X148308928Y-92875354D02*
X148642261Y-92161069D01*
X148642261Y-92161069D02*
X148642261Y-93161069D01*
X149023214Y-92161069D02*
X149689880Y-93161069D01*
X149689880Y-92161069D02*
X149023214Y-93161069D01*
X150023214Y-92256307D02*
X150070833Y-92208688D01*
X150070833Y-92208688D02*
X150166071Y-92161069D01*
X150166071Y-92161069D02*
X150404166Y-92161069D01*
X150404166Y-92161069D02*
X150499404Y-92208688D01*
X150499404Y-92208688D02*
X150547023Y-92256307D01*
X150547023Y-92256307D02*
X150594642Y-92351545D01*
X150594642Y-92351545D02*
X150594642Y-92446783D01*
X150594642Y-92446783D02*
X150547023Y-92589640D01*
X150547023Y-92589640D02*
X149975595Y-93161069D01*
X149975595Y-93161069D02*
X150594642Y-93161069D01*
X151166071Y-92589640D02*
X151070833Y-92542021D01*
X151070833Y-92542021D02*
X151023214Y-92494402D01*
X151023214Y-92494402D02*
X150975595Y-92399164D01*
X150975595Y-92399164D02*
X150975595Y-92351545D01*
X150975595Y-92351545D02*
X151023214Y-92256307D01*
X151023214Y-92256307D02*
X151070833Y-92208688D01*
X151070833Y-92208688D02*
X151166071Y-92161069D01*
X151166071Y-92161069D02*
X151356547Y-92161069D01*
X151356547Y-92161069D02*
X151451785Y-92208688D01*
X151451785Y-92208688D02*
X151499404Y-92256307D01*
X151499404Y-92256307D02*
X151547023Y-92351545D01*
X151547023Y-92351545D02*
X151547023Y-92399164D01*
X151547023Y-92399164D02*
X151499404Y-92494402D01*
X151499404Y-92494402D02*
X151451785Y-92542021D01*
X151451785Y-92542021D02*
X151356547Y-92589640D01*
X151356547Y-92589640D02*
X151166071Y-92589640D01*
X151166071Y-92589640D02*
X151070833Y-92637259D01*
X151070833Y-92637259D02*
X151023214Y-92684878D01*
X151023214Y-92684878D02*
X150975595Y-92780116D01*
X150975595Y-92780116D02*
X150975595Y-92970592D01*
X150975595Y-92970592D02*
X151023214Y-93065830D01*
X151023214Y-93065830D02*
X151070833Y-93113450D01*
X151070833Y-93113450D02*
X151166071Y-93161069D01*
X151166071Y-93161069D02*
X151356547Y-93161069D01*
X151356547Y-93161069D02*
X151451785Y-93113450D01*
X151451785Y-93113450D02*
X151499404Y-93065830D01*
X151499404Y-93065830D02*
X151547023Y-92970592D01*
X151547023Y-92970592D02*
X151547023Y-92780116D01*
X151547023Y-92780116D02*
X151499404Y-92684878D01*
X151499404Y-92684878D02*
X151451785Y-92637259D01*
X151451785Y-92637259D02*
X151356547Y-92589640D01*
X224175595Y-112211069D02*
X224175595Y-111211069D01*
X224175595Y-111211069D02*
X224508928Y-111925354D01*
X224508928Y-111925354D02*
X224842261Y-111211069D01*
X224842261Y-111211069D02*
X224842261Y-112211069D01*
X225223214Y-111211069D02*
X225889880Y-112211069D01*
X225889880Y-111211069D02*
X225223214Y-112211069D01*
X226699404Y-111544402D02*
X226699404Y-112211069D01*
X226461309Y-111163450D02*
X226223214Y-111877735D01*
X226223214Y-111877735D02*
X226842261Y-111877735D01*
X227270833Y-112211069D02*
X227461309Y-112211069D01*
X227461309Y-112211069D02*
X227556547Y-112163450D01*
X227556547Y-112163450D02*
X227604166Y-112115830D01*
X227604166Y-112115830D02*
X227699404Y-111972973D01*
X227699404Y-111972973D02*
X227747023Y-111782497D01*
X227747023Y-111782497D02*
X227747023Y-111401545D01*
X227747023Y-111401545D02*
X227699404Y-111306307D01*
X227699404Y-111306307D02*
X227651785Y-111258688D01*
X227651785Y-111258688D02*
X227556547Y-111211069D01*
X227556547Y-111211069D02*
X227366071Y-111211069D01*
X227366071Y-111211069D02*
X227270833Y-111258688D01*
X227270833Y-111258688D02*
X227223214Y-111306307D01*
X227223214Y-111306307D02*
X227175595Y-111401545D01*
X227175595Y-111401545D02*
X227175595Y-111639640D01*
X227175595Y-111639640D02*
X227223214Y-111734878D01*
X227223214Y-111734878D02*
X227270833Y-111782497D01*
X227270833Y-111782497D02*
X227366071Y-111830116D01*
X227366071Y-111830116D02*
X227556547Y-111830116D01*
X227556547Y-111830116D02*
X227651785Y-111782497D01*
X227651785Y-111782497D02*
X227699404Y-111734878D01*
X227699404Y-111734878D02*
X227747023Y-111639640D01*
X205125595Y-112211069D02*
X205125595Y-111211069D01*
X205125595Y-111211069D02*
X205458928Y-111925354D01*
X205458928Y-111925354D02*
X205792261Y-111211069D01*
X205792261Y-111211069D02*
X205792261Y-112211069D01*
X206173214Y-111211069D02*
X206839880Y-112211069D01*
X206839880Y-111211069D02*
X206173214Y-112211069D01*
X207649404Y-111544402D02*
X207649404Y-112211069D01*
X207411309Y-111163450D02*
X207173214Y-111877735D01*
X207173214Y-111877735D02*
X207792261Y-111877735D01*
X208601785Y-111544402D02*
X208601785Y-112211069D01*
X208363690Y-111163450D02*
X208125595Y-111877735D01*
X208125595Y-111877735D02*
X208744642Y-111877735D01*
X154754815Y-25156666D02*
X154278624Y-25489999D01*
X154754815Y-25728094D02*
X153754815Y-25728094D01*
X153754815Y-25728094D02*
X153754815Y-25347142D01*
X153754815Y-25347142D02*
X153802434Y-25251904D01*
X153802434Y-25251904D02*
X153850053Y-25204285D01*
X153850053Y-25204285D02*
X153945291Y-25156666D01*
X153945291Y-25156666D02*
X154088148Y-25156666D01*
X154088148Y-25156666D02*
X154183386Y-25204285D01*
X154183386Y-25204285D02*
X154231005Y-25251904D01*
X154231005Y-25251904D02*
X154278624Y-25347142D01*
X154278624Y-25347142D02*
X154278624Y-25728094D01*
X153850053Y-24775713D02*
X153802434Y-24728094D01*
X153802434Y-24728094D02*
X153754815Y-24632856D01*
X153754815Y-24632856D02*
X153754815Y-24394761D01*
X153754815Y-24394761D02*
X153802434Y-24299523D01*
X153802434Y-24299523D02*
X153850053Y-24251904D01*
X153850053Y-24251904D02*
X153945291Y-24204285D01*
X153945291Y-24204285D02*
X154040529Y-24204285D01*
X154040529Y-24204285D02*
X154183386Y-24251904D01*
X154183386Y-24251904D02*
X154754815Y-24823332D01*
X154754815Y-24823332D02*
X154754815Y-24204285D01*
X72251786Y-74111069D02*
X72251786Y-73111069D01*
X72251786Y-73111069D02*
X72585119Y-73825354D01*
X72585119Y-73825354D02*
X72918452Y-73111069D01*
X72918452Y-73111069D02*
X72918452Y-74111069D01*
X73299405Y-73111069D02*
X73966071Y-74111069D01*
X73966071Y-73111069D02*
X73299405Y-74111069D01*
X74775595Y-73444402D02*
X74775595Y-74111069D01*
X74537500Y-73063450D02*
X74299405Y-73777735D01*
X74299405Y-73777735D02*
X74918452Y-73777735D01*
X186075595Y-93161069D02*
X186075595Y-92161069D01*
X186075595Y-92161069D02*
X186408928Y-92875354D01*
X186408928Y-92875354D02*
X186742261Y-92161069D01*
X186742261Y-92161069D02*
X186742261Y-93161069D01*
X187123214Y-92161069D02*
X187789880Y-93161069D01*
X187789880Y-92161069D02*
X187123214Y-93161069D01*
X188075595Y-92161069D02*
X188694642Y-92161069D01*
X188694642Y-92161069D02*
X188361309Y-92542021D01*
X188361309Y-92542021D02*
X188504166Y-92542021D01*
X188504166Y-92542021D02*
X188599404Y-92589640D01*
X188599404Y-92589640D02*
X188647023Y-92637259D01*
X188647023Y-92637259D02*
X188694642Y-92732497D01*
X188694642Y-92732497D02*
X188694642Y-92970592D01*
X188694642Y-92970592D02*
X188647023Y-93065830D01*
X188647023Y-93065830D02*
X188599404Y-93113450D01*
X188599404Y-93113450D02*
X188504166Y-93161069D01*
X188504166Y-93161069D02*
X188218452Y-93161069D01*
X188218452Y-93161069D02*
X188123214Y-93113450D01*
X188123214Y-93113450D02*
X188075595Y-93065830D01*
X189266071Y-92589640D02*
X189170833Y-92542021D01*
X189170833Y-92542021D02*
X189123214Y-92494402D01*
X189123214Y-92494402D02*
X189075595Y-92399164D01*
X189075595Y-92399164D02*
X189075595Y-92351545D01*
X189075595Y-92351545D02*
X189123214Y-92256307D01*
X189123214Y-92256307D02*
X189170833Y-92208688D01*
X189170833Y-92208688D02*
X189266071Y-92161069D01*
X189266071Y-92161069D02*
X189456547Y-92161069D01*
X189456547Y-92161069D02*
X189551785Y-92208688D01*
X189551785Y-92208688D02*
X189599404Y-92256307D01*
X189599404Y-92256307D02*
X189647023Y-92351545D01*
X189647023Y-92351545D02*
X189647023Y-92399164D01*
X189647023Y-92399164D02*
X189599404Y-92494402D01*
X189599404Y-92494402D02*
X189551785Y-92542021D01*
X189551785Y-92542021D02*
X189456547Y-92589640D01*
X189456547Y-92589640D02*
X189266071Y-92589640D01*
X189266071Y-92589640D02*
X189170833Y-92637259D01*
X189170833Y-92637259D02*
X189123214Y-92684878D01*
X189123214Y-92684878D02*
X189075595Y-92780116D01*
X189075595Y-92780116D02*
X189075595Y-92970592D01*
X189075595Y-92970592D02*
X189123214Y-93065830D01*
X189123214Y-93065830D02*
X189170833Y-93113450D01*
X189170833Y-93113450D02*
X189266071Y-93161069D01*
X189266071Y-93161069D02*
X189456547Y-93161069D01*
X189456547Y-93161069D02*
X189551785Y-93113450D01*
X189551785Y-93113450D02*
X189599404Y-93065830D01*
X189599404Y-93065830D02*
X189647023Y-92970592D01*
X189647023Y-92970592D02*
X189647023Y-92780116D01*
X189647023Y-92780116D02*
X189599404Y-92684878D01*
X189599404Y-92684878D02*
X189551785Y-92637259D01*
X189551785Y-92637259D02*
X189456547Y-92589640D01*
X147975595Y-112211069D02*
X147975595Y-111211069D01*
X147975595Y-111211069D02*
X148308928Y-111925354D01*
X148308928Y-111925354D02*
X148642261Y-111211069D01*
X148642261Y-111211069D02*
X148642261Y-112211069D01*
X149023214Y-111211069D02*
X149689880Y-112211069D01*
X149689880Y-111211069D02*
X149023214Y-112211069D01*
X150023214Y-111306307D02*
X150070833Y-111258688D01*
X150070833Y-111258688D02*
X150166071Y-111211069D01*
X150166071Y-111211069D02*
X150404166Y-111211069D01*
X150404166Y-111211069D02*
X150499404Y-111258688D01*
X150499404Y-111258688D02*
X150547023Y-111306307D01*
X150547023Y-111306307D02*
X150594642Y-111401545D01*
X150594642Y-111401545D02*
X150594642Y-111496783D01*
X150594642Y-111496783D02*
X150547023Y-111639640D01*
X150547023Y-111639640D02*
X149975595Y-112211069D01*
X149975595Y-112211069D02*
X150594642Y-112211069D01*
X151070833Y-112211069D02*
X151261309Y-112211069D01*
X151261309Y-112211069D02*
X151356547Y-112163450D01*
X151356547Y-112163450D02*
X151404166Y-112115830D01*
X151404166Y-112115830D02*
X151499404Y-111972973D01*
X151499404Y-111972973D02*
X151547023Y-111782497D01*
X151547023Y-111782497D02*
X151547023Y-111401545D01*
X151547023Y-111401545D02*
X151499404Y-111306307D01*
X151499404Y-111306307D02*
X151451785Y-111258688D01*
X151451785Y-111258688D02*
X151356547Y-111211069D01*
X151356547Y-111211069D02*
X151166071Y-111211069D01*
X151166071Y-111211069D02*
X151070833Y-111258688D01*
X151070833Y-111258688D02*
X151023214Y-111306307D01*
X151023214Y-111306307D02*
X150975595Y-111401545D01*
X150975595Y-111401545D02*
X150975595Y-111639640D01*
X150975595Y-111639640D02*
X151023214Y-111734878D01*
X151023214Y-111734878D02*
X151070833Y-111782497D01*
X151070833Y-111782497D02*
X151166071Y-111830116D01*
X151166071Y-111830116D02*
X151356547Y-111830116D01*
X151356547Y-111830116D02*
X151451785Y-111782497D01*
X151451785Y-111782497D02*
X151499404Y-111734878D01*
X151499404Y-111734878D02*
X151547023Y-111639640D01*
X71775595Y-131261069D02*
X71775595Y-130261069D01*
X71775595Y-130261069D02*
X72108928Y-130975354D01*
X72108928Y-130975354D02*
X72442261Y-130261069D01*
X72442261Y-130261069D02*
X72442261Y-131261069D01*
X72823214Y-130261069D02*
X73489880Y-131261069D01*
X73489880Y-130261069D02*
X72823214Y-131261069D01*
X74394642Y-131261069D02*
X73823214Y-131261069D01*
X74108928Y-131261069D02*
X74108928Y-130261069D01*
X74108928Y-130261069D02*
X74013690Y-130403926D01*
X74013690Y-130403926D02*
X73918452Y-130499164D01*
X73918452Y-130499164D02*
X73823214Y-130546783D01*
X75013690Y-130261069D02*
X75108928Y-130261069D01*
X75108928Y-130261069D02*
X75204166Y-130308688D01*
X75204166Y-130308688D02*
X75251785Y-130356307D01*
X75251785Y-130356307D02*
X75299404Y-130451545D01*
X75299404Y-130451545D02*
X75347023Y-130642021D01*
X75347023Y-130642021D02*
X75347023Y-130880116D01*
X75347023Y-130880116D02*
X75299404Y-131070592D01*
X75299404Y-131070592D02*
X75251785Y-131165830D01*
X75251785Y-131165830D02*
X75204166Y-131213450D01*
X75204166Y-131213450D02*
X75108928Y-131261069D01*
X75108928Y-131261069D02*
X75013690Y-131261069D01*
X75013690Y-131261069D02*
X74918452Y-131213450D01*
X74918452Y-131213450D02*
X74870833Y-131165830D01*
X74870833Y-131165830D02*
X74823214Y-131070592D01*
X74823214Y-131070592D02*
X74775595Y-130880116D01*
X74775595Y-130880116D02*
X74775595Y-130642021D01*
X74775595Y-130642021D02*
X74823214Y-130451545D01*
X74823214Y-130451545D02*
X74870833Y-130356307D01*
X74870833Y-130356307D02*
X74918452Y-130308688D01*
X74918452Y-130308688D02*
X75013690Y-130261069D01*
X167025595Y-112211069D02*
X167025595Y-111211069D01*
X167025595Y-111211069D02*
X167358928Y-111925354D01*
X167358928Y-111925354D02*
X167692261Y-111211069D01*
X167692261Y-111211069D02*
X167692261Y-112211069D01*
X168073214Y-111211069D02*
X168739880Y-112211069D01*
X168739880Y-111211069D02*
X168073214Y-112211069D01*
X169025595Y-111211069D02*
X169644642Y-111211069D01*
X169644642Y-111211069D02*
X169311309Y-111592021D01*
X169311309Y-111592021D02*
X169454166Y-111592021D01*
X169454166Y-111592021D02*
X169549404Y-111639640D01*
X169549404Y-111639640D02*
X169597023Y-111687259D01*
X169597023Y-111687259D02*
X169644642Y-111782497D01*
X169644642Y-111782497D02*
X169644642Y-112020592D01*
X169644642Y-112020592D02*
X169597023Y-112115830D01*
X169597023Y-112115830D02*
X169549404Y-112163450D01*
X169549404Y-112163450D02*
X169454166Y-112211069D01*
X169454166Y-112211069D02*
X169168452Y-112211069D01*
X169168452Y-112211069D02*
X169073214Y-112163450D01*
X169073214Y-112163450D02*
X169025595Y-112115830D01*
X170501785Y-111544402D02*
X170501785Y-112211069D01*
X170263690Y-111163450D02*
X170025595Y-111877735D01*
X170025595Y-111877735D02*
X170644642Y-111877735D01*
X109875595Y-74111069D02*
X109875595Y-73111069D01*
X109875595Y-73111069D02*
X110208928Y-73825354D01*
X110208928Y-73825354D02*
X110542261Y-73111069D01*
X110542261Y-73111069D02*
X110542261Y-74111069D01*
X110923214Y-73111069D02*
X111589880Y-74111069D01*
X111589880Y-73111069D02*
X110923214Y-74111069D01*
X112494642Y-74111069D02*
X111923214Y-74111069D01*
X112208928Y-74111069D02*
X112208928Y-73111069D01*
X112208928Y-73111069D02*
X112113690Y-73253926D01*
X112113690Y-73253926D02*
X112018452Y-73349164D01*
X112018452Y-73349164D02*
X111923214Y-73396783D01*
X112827976Y-73111069D02*
X113494642Y-73111069D01*
X113494642Y-73111069D02*
X113066071Y-74111069D01*
X137829580Y-38897916D02*
X137877200Y-38945535D01*
X137877200Y-38945535D02*
X137924819Y-39088392D01*
X137924819Y-39088392D02*
X137924819Y-39183630D01*
X137924819Y-39183630D02*
X137877200Y-39326487D01*
X137877200Y-39326487D02*
X137781961Y-39421725D01*
X137781961Y-39421725D02*
X137686723Y-39469344D01*
X137686723Y-39469344D02*
X137496247Y-39516963D01*
X137496247Y-39516963D02*
X137353390Y-39516963D01*
X137353390Y-39516963D02*
X137162914Y-39469344D01*
X137162914Y-39469344D02*
X137067676Y-39421725D01*
X137067676Y-39421725D02*
X136972438Y-39326487D01*
X136972438Y-39326487D02*
X136924819Y-39183630D01*
X136924819Y-39183630D02*
X136924819Y-39088392D01*
X136924819Y-39088392D02*
X136972438Y-38945535D01*
X136972438Y-38945535D02*
X137020057Y-38897916D01*
X137020057Y-38516963D02*
X136972438Y-38469344D01*
X136972438Y-38469344D02*
X136924819Y-38374106D01*
X136924819Y-38374106D02*
X136924819Y-38136011D01*
X136924819Y-38136011D02*
X136972438Y-38040773D01*
X136972438Y-38040773D02*
X137020057Y-37993154D01*
X137020057Y-37993154D02*
X137115295Y-37945535D01*
X137115295Y-37945535D02*
X137210533Y-37945535D01*
X137210533Y-37945535D02*
X137353390Y-37993154D01*
X137353390Y-37993154D02*
X137924819Y-38564582D01*
X137924819Y-38564582D02*
X137924819Y-37945535D01*
D11*
%TO.C,R3*%
X148164996Y-24687936D02*
X148164996Y-25142064D01*
X149634996Y-24687936D02*
X149634996Y-25142064D01*
D10*
%TO.C,MX30*%
X149122676Y-125806030D02*
X149122676Y-126036030D01*
X149122676Y-128886030D02*
X149122676Y-129356030D01*
X149622676Y-129856030D02*
X154187500Y-129856030D01*
X150672676Y-125806030D02*
X149122676Y-125806030D01*
X158072676Y-125806030D02*
X152172676Y-125806030D01*
X160072676Y-128606030D02*
X160072676Y-127806030D01*
X160072676Y-131456030D02*
X160072676Y-131696030D01*
X149622676Y-129856030D02*
G75*
G02*
X149122676Y-129356030I1J500001D01*
G01*
X154187500Y-129856030D02*
G75*
G02*
X156481822Y-131696030I866J-2349332D01*
G01*
X158072676Y-125806030D02*
G75*
G02*
X160072670Y-127806030I4J-1999990D01*
G01*
%TO.C,MX13*%
X91972676Y-87706030D02*
X91972676Y-87936030D01*
X91972676Y-90786030D02*
X91972676Y-91256030D01*
X92472676Y-91756030D02*
X97037500Y-91756030D01*
X93522676Y-87706030D02*
X91972676Y-87706030D01*
X100922676Y-87706030D02*
X95022676Y-87706030D01*
X102922676Y-90506030D02*
X102922676Y-89706030D01*
X102922676Y-93356030D02*
X102922676Y-93596030D01*
X92472676Y-91756030D02*
G75*
G02*
X91972676Y-91256030I1J500001D01*
G01*
X97037500Y-91756030D02*
G75*
G02*
X99331822Y-93596030I866J-2349332D01*
G01*
X100922676Y-87706030D02*
G75*
G02*
X102922670Y-89706030I4J-1999990D01*
G01*
%TO.C,MX23*%
X130072676Y-87706030D02*
X130072676Y-87936030D01*
X130072676Y-90786030D02*
X130072676Y-91256030D01*
X130572676Y-91756030D02*
X135137500Y-91756030D01*
X131622676Y-87706030D02*
X130072676Y-87706030D01*
X139022676Y-87706030D02*
X133122676Y-87706030D01*
X141022676Y-90506030D02*
X141022676Y-89706030D01*
X141022676Y-93356030D02*
X141022676Y-93596030D01*
X130572676Y-91756030D02*
G75*
G02*
X130072676Y-91256030I1J500001D01*
G01*
X135137500Y-91756030D02*
G75*
G02*
X137431822Y-93596030I866J-2349332D01*
G01*
X139022676Y-87706030D02*
G75*
G02*
X141022670Y-89706030I4J-1999990D01*
G01*
%TO.C,MX21*%
X130072676Y-49606030D02*
X130072676Y-49836030D01*
X130072676Y-52686030D02*
X130072676Y-53156030D01*
X130572676Y-53656030D02*
X135137500Y-53656030D01*
X131622676Y-49606030D02*
X130072676Y-49606030D01*
X139022676Y-49606030D02*
X133122676Y-49606030D01*
X141022676Y-52406030D02*
X141022676Y-51606030D01*
X141022676Y-55256030D02*
X141022676Y-55496030D01*
X130572676Y-53656030D02*
G75*
G02*
X130072676Y-53156030I1J500001D01*
G01*
X135137500Y-53656030D02*
G75*
G02*
X137431822Y-55496030I866J-2349332D01*
G01*
X139022676Y-49606030D02*
G75*
G02*
X141022670Y-51606030I4J-1999990D01*
G01*
%TO.C,MX52*%
X244372676Y-68656030D02*
X244372676Y-68886030D01*
X244372676Y-71736030D02*
X244372676Y-72206030D01*
X244872676Y-72706030D02*
X249437500Y-72706030D01*
X245922676Y-68656030D02*
X244372676Y-68656030D01*
X253322676Y-68656030D02*
X247422676Y-68656030D01*
X255322676Y-71456030D02*
X255322676Y-70656030D01*
X255322676Y-74306030D02*
X255322676Y-74546030D01*
X244872676Y-72706030D02*
G75*
G02*
X244372676Y-72206030I1J500001D01*
G01*
X249437500Y-72706030D02*
G75*
G02*
X251731822Y-74546030I866J-2349332D01*
G01*
X253322676Y-68656030D02*
G75*
G02*
X255322670Y-70656030I4J-1999990D01*
G01*
D11*
%TO.C,Y1*%
X116750000Y-36481250D02*
X120050000Y-36481250D01*
X120050000Y-36481250D02*
X120050000Y-32481250D01*
D10*
%TO.C,MX16*%
X111022676Y-49606030D02*
X111022676Y-49836030D01*
X111022676Y-52686030D02*
X111022676Y-53156030D01*
X111522676Y-53656030D02*
X116087500Y-53656030D01*
X112572676Y-49606030D02*
X111022676Y-49606030D01*
X119972676Y-49606030D02*
X114072676Y-49606030D01*
X121972676Y-52406030D02*
X121972676Y-51606030D01*
X121972676Y-55256030D02*
X121972676Y-55496030D01*
X111522676Y-53656030D02*
G75*
G02*
X111022676Y-53156030I1J500001D01*
G01*
X116087500Y-53656030D02*
G75*
G02*
X118381822Y-55496030I866J-2349332D01*
G01*
X119972676Y-49606030D02*
G75*
G02*
X121972670Y-51606030I4J-1999990D01*
G01*
%TO.C,MX56*%
X263422676Y-49606030D02*
X263422676Y-49836030D01*
X263422676Y-52686030D02*
X263422676Y-53156030D01*
X263922676Y-53656030D02*
X268487500Y-53656030D01*
X264972676Y-49606030D02*
X263422676Y-49606030D01*
X272372676Y-49606030D02*
X266472676Y-49606030D01*
X274372676Y-52406030D02*
X274372676Y-51606030D01*
X274372676Y-55256030D02*
X274372676Y-55496030D01*
X263922676Y-53656030D02*
G75*
G02*
X263422676Y-53156030I1J500001D01*
G01*
X268487500Y-53656030D02*
G75*
G02*
X270781822Y-55496030I866J-2349332D01*
G01*
X272372676Y-49606030D02*
G75*
G02*
X274372670Y-51606030I4J-1999990D01*
G01*
D11*
%TO.C,R4*%
X121922936Y-22496250D02*
X122377064Y-22496250D01*
X121922936Y-23966250D02*
X122377064Y-23966250D01*
D10*
%TO.C,MX60*%
X263422676Y-125806030D02*
X263422676Y-126036030D01*
X263422676Y-128886030D02*
X263422676Y-129356030D01*
X263922676Y-129856030D02*
X268487500Y-129856030D01*
X264972676Y-125806030D02*
X263422676Y-125806030D01*
X272372676Y-125806030D02*
X266472676Y-125806030D01*
X274372676Y-128606030D02*
X274372676Y-127806030D01*
X274372676Y-131456030D02*
X274372676Y-131696030D01*
X263922676Y-129856030D02*
G75*
G02*
X263422676Y-129356030I1J500001D01*
G01*
X268487500Y-129856030D02*
G75*
G02*
X270781822Y-131696030I866J-2349332D01*
G01*
X272372676Y-125806030D02*
G75*
G02*
X274372670Y-127806030I4J-1999990D01*
G01*
D11*
%TO.C,J1*%
X145899996Y-21110000D02*
X145899996Y-13850000D01*
X147399996Y-21110000D02*
X145899996Y-21110000D01*
X155399996Y-21110000D02*
X153899996Y-21110000D01*
X155399996Y-21110000D02*
X155399996Y-13850000D01*
D10*
%TO.C,MX6*%
X72922676Y-87706030D02*
X72922676Y-87936030D01*
X72922676Y-90786030D02*
X72922676Y-91256030D01*
X73422676Y-91756030D02*
X77987500Y-91756030D01*
X74472676Y-87706030D02*
X72922676Y-87706030D01*
X81872676Y-87706030D02*
X75972676Y-87706030D01*
X83872676Y-90506030D02*
X83872676Y-89706030D01*
X83872676Y-93356030D02*
X83872676Y-93596030D01*
X73422676Y-91756030D02*
G75*
G02*
X72922676Y-91256030I1J500001D01*
G01*
X77987500Y-91756030D02*
G75*
G02*
X80281822Y-93596030I866J-2349332D01*
G01*
X81872676Y-87706030D02*
G75*
G02*
X83872670Y-89706030I4J-1999990D01*
G01*
%TO.C,MX3*%
X53872676Y-68656030D02*
X53872676Y-68886030D01*
X53872676Y-71736030D02*
X53872676Y-72206030D01*
X54372676Y-72706030D02*
X58937500Y-72706030D01*
X55422676Y-68656030D02*
X53872676Y-68656030D01*
X62822676Y-68656030D02*
X56922676Y-68656030D01*
X64822676Y-71456030D02*
X64822676Y-70656030D01*
X64822676Y-74306030D02*
X64822676Y-74546030D01*
X54372676Y-72706030D02*
G75*
G02*
X53872676Y-72206030I1J500001D01*
G01*
X58937500Y-72706030D02*
G75*
G02*
X61231822Y-74546030I866J-2349332D01*
G01*
X62822676Y-68656030D02*
G75*
G02*
X64822670Y-70656030I4J-1999990D01*
G01*
%TO.C,MX42*%
X206272676Y-68656030D02*
X206272676Y-68886030D01*
X206272676Y-71736030D02*
X206272676Y-72206030D01*
X206772676Y-72706030D02*
X211337500Y-72706030D01*
X207822676Y-68656030D02*
X206272676Y-68656030D01*
X215222676Y-68656030D02*
X209322676Y-68656030D01*
X217222676Y-71456030D02*
X217222676Y-70656030D01*
X217222676Y-74306030D02*
X217222676Y-74546030D01*
X206772676Y-72706030D02*
G75*
G02*
X206272676Y-72206030I1J500001D01*
G01*
X211337500Y-72706030D02*
G75*
G02*
X213631822Y-74546030I866J-2349332D01*
G01*
X215222676Y-68656030D02*
G75*
G02*
X217222670Y-70656030I4J-1999990D01*
G01*
%TO.C,MX45*%
X206272676Y-125806030D02*
X206272676Y-126036030D01*
X206272676Y-128886030D02*
X206272676Y-129356030D01*
X206772676Y-129856030D02*
X211337500Y-129856030D01*
X207822676Y-125806030D02*
X206272676Y-125806030D01*
X215222676Y-125806030D02*
X209322676Y-125806030D01*
X217222676Y-128606030D02*
X217222676Y-127806030D01*
X217222676Y-131456030D02*
X217222676Y-131696030D01*
X206772676Y-129856030D02*
G75*
G02*
X206272676Y-129356030I1J500001D01*
G01*
X211337500Y-129856030D02*
G75*
G02*
X213631822Y-131696030I866J-2349332D01*
G01*
X215222676Y-125806030D02*
G75*
G02*
X217222670Y-127806030I4J-1999990D01*
G01*
%TO.C,MX8*%
X72922676Y-106756030D02*
X72922676Y-106986030D01*
X72922676Y-109836030D02*
X72922676Y-110306030D01*
X73422676Y-110806030D02*
X77987500Y-110806030D01*
X74472676Y-106756030D02*
X72922676Y-106756030D01*
X81872676Y-106756030D02*
X75972676Y-106756030D01*
X83872676Y-109556030D02*
X83872676Y-108756030D01*
X83872676Y-112406030D02*
X83872676Y-112646030D01*
X73422676Y-110806030D02*
G75*
G02*
X72922676Y-110306030I1J500001D01*
G01*
X77987500Y-110806030D02*
G75*
G02*
X80281822Y-112646030I866J-2349332D01*
G01*
X81872676Y-106756030D02*
G75*
G02*
X83872670Y-108756030I4J-1999990D01*
G01*
%TO.C,MX35*%
X168172676Y-125806030D02*
X168172676Y-126036030D01*
X168172676Y-128886030D02*
X168172676Y-129356030D01*
X168672676Y-129856030D02*
X173237500Y-129856030D01*
X169722676Y-125806030D02*
X168172676Y-125806030D01*
X177122676Y-125806030D02*
X171222676Y-125806030D01*
X179122676Y-128606030D02*
X179122676Y-127806030D01*
X179122676Y-131456030D02*
X179122676Y-131696030D01*
X168672676Y-129856030D02*
G75*
G02*
X168172676Y-129356030I1J500001D01*
G01*
X173237500Y-129856030D02*
G75*
G02*
X175531822Y-131696030I866J-2349332D01*
G01*
X177122676Y-125806030D02*
G75*
G02*
X179122670Y-127806030I4J-1999990D01*
G01*
%TO.C,MX36*%
X187222676Y-49606030D02*
X187222676Y-49836030D01*
X187222676Y-52686030D02*
X187222676Y-53156030D01*
X187722676Y-53656030D02*
X192287500Y-53656030D01*
X188772676Y-49606030D02*
X187222676Y-49606030D01*
X196172676Y-49606030D02*
X190272676Y-49606030D01*
X198172676Y-52406030D02*
X198172676Y-51606030D01*
X198172676Y-55256030D02*
X198172676Y-55496030D01*
X187722676Y-53656030D02*
G75*
G02*
X187222676Y-53156030I1J500001D01*
G01*
X192287500Y-53656030D02*
G75*
G02*
X194581822Y-55496030I866J-2349332D01*
G01*
X196172676Y-49606030D02*
G75*
G02*
X198172670Y-51606030I4J-1999990D01*
G01*
%TO.C,MX1*%
X53872676Y-49606030D02*
X53872676Y-49836030D01*
X53872676Y-52686030D02*
X53872676Y-53156030D01*
X54372676Y-53656030D02*
X58937500Y-53656030D01*
X55422676Y-49606030D02*
X53872676Y-49606030D01*
X62822676Y-49606030D02*
X56922676Y-49606030D01*
X64822676Y-52406030D02*
X64822676Y-51606030D01*
X64822676Y-55256030D02*
X64822676Y-55496030D01*
X54372676Y-53656030D02*
G75*
G02*
X53872676Y-53156030I1J500001D01*
G01*
X58937500Y-53656030D02*
G75*
G02*
X61231822Y-55496030I866J-2349332D01*
G01*
X62822676Y-49606030D02*
G75*
G02*
X64822670Y-51606030I4J-1999990D01*
G01*
%TO.C,MX55*%
X244372676Y-125806030D02*
X244372676Y-126036030D01*
X244372676Y-128886030D02*
X244372676Y-129356030D01*
X244872676Y-129856030D02*
X249437500Y-129856030D01*
X245922676Y-125806030D02*
X244372676Y-125806030D01*
X253322676Y-125806030D02*
X247422676Y-125806030D01*
X255322676Y-128606030D02*
X255322676Y-127806030D01*
X255322676Y-131456030D02*
X255322676Y-131696030D01*
X244872676Y-129856030D02*
G75*
G02*
X244372676Y-129356030I1J500001D01*
G01*
X249437500Y-129856030D02*
G75*
G02*
X251731822Y-131696030I866J-2349332D01*
G01*
X253322676Y-125806030D02*
G75*
G02*
X255322670Y-127806030I4J-1999990D01*
G01*
%TO.C,MX9*%
X53872676Y-125806030D02*
X53872676Y-126036030D01*
X53872676Y-128886030D02*
X53872676Y-129356030D01*
X54372676Y-129856030D02*
X58937500Y-129856030D01*
X55422676Y-125806030D02*
X53872676Y-125806030D01*
X62822676Y-125806030D02*
X56922676Y-125806030D01*
X64822676Y-128606030D02*
X64822676Y-127806030D01*
X64822676Y-131456030D02*
X64822676Y-131696030D01*
X54372676Y-129856030D02*
G75*
G02*
X53872676Y-129356030I1J500001D01*
G01*
X58937500Y-129856030D02*
G75*
G02*
X61231822Y-131696030I866J-2349332D01*
G01*
X62822676Y-125806030D02*
G75*
G02*
X64822670Y-127806030I4J-1999990D01*
G01*
%TO.C,MX39*%
X187222676Y-106756030D02*
X187222676Y-106986030D01*
X187222676Y-109836030D02*
X187222676Y-110306030D01*
X187722676Y-110806030D02*
X192287500Y-110806030D01*
X188772676Y-106756030D02*
X187222676Y-106756030D01*
X196172676Y-106756030D02*
X190272676Y-106756030D01*
X198172676Y-109556030D02*
X198172676Y-108756030D01*
X198172676Y-112406030D02*
X198172676Y-112646030D01*
X187722676Y-110806030D02*
G75*
G02*
X187222676Y-110306030I1J500001D01*
G01*
X192287500Y-110806030D02*
G75*
G02*
X194581822Y-112646030I866J-2349332D01*
G01*
X196172676Y-106756030D02*
G75*
G02*
X198172670Y-108756030I4J-1999990D01*
G01*
%TO.C,MX11*%
X91972676Y-49606030D02*
X91972676Y-49836030D01*
X91972676Y-52686030D02*
X91972676Y-53156030D01*
X92472676Y-53656030D02*
X97037500Y-53656030D01*
X93522676Y-49606030D02*
X91972676Y-49606030D01*
X100922676Y-49606030D02*
X95022676Y-49606030D01*
X102922676Y-52406030D02*
X102922676Y-51606030D01*
X102922676Y-55256030D02*
X102922676Y-55496030D01*
X92472676Y-53656030D02*
G75*
G02*
X91972676Y-53156030I1J500001D01*
G01*
X97037500Y-53656030D02*
G75*
G02*
X99331822Y-55496030I866J-2349332D01*
G01*
X100922676Y-49606030D02*
G75*
G02*
X102922670Y-51606030I4J-1999990D01*
G01*
%TO.C,MX24*%
X130072676Y-106756030D02*
X130072676Y-106986030D01*
X130072676Y-109836030D02*
X130072676Y-110306030D01*
X130572676Y-110806030D02*
X135137500Y-110806030D01*
X131622676Y-106756030D02*
X130072676Y-106756030D01*
X139022676Y-106756030D02*
X133122676Y-106756030D01*
X141022676Y-109556030D02*
X141022676Y-108756030D01*
X141022676Y-112406030D02*
X141022676Y-112646030D01*
X130572676Y-110806030D02*
G75*
G02*
X130072676Y-110306030I1J500001D01*
G01*
X135137500Y-110806030D02*
G75*
G02*
X137431822Y-112646030I866J-2349332D01*
G01*
X139022676Y-106756030D02*
G75*
G02*
X141022670Y-108756030I4J-1999990D01*
G01*
%TO.C,MX37*%
X187222676Y-68656030D02*
X187222676Y-68886030D01*
X187222676Y-71736030D02*
X187222676Y-72206030D01*
X187722676Y-72706030D02*
X192287500Y-72706030D01*
X188772676Y-68656030D02*
X187222676Y-68656030D01*
X196172676Y-68656030D02*
X190272676Y-68656030D01*
X198172676Y-71456030D02*
X198172676Y-70656030D01*
X198172676Y-74306030D02*
X198172676Y-74546030D01*
X187722676Y-72706030D02*
G75*
G02*
X187222676Y-72206030I1J500001D01*
G01*
X192287500Y-72706030D02*
G75*
G02*
X194581822Y-74546030I866J-2349332D01*
G01*
X196172676Y-68656030D02*
G75*
G02*
X198172670Y-70656030I4J-1999990D01*
G01*
%TO.C,MX32*%
X168172676Y-68656030D02*
X168172676Y-68886030D01*
X168172676Y-71736030D02*
X168172676Y-72206030D01*
X168672676Y-72706030D02*
X173237500Y-72706030D01*
X169722676Y-68656030D02*
X168172676Y-68656030D01*
X177122676Y-68656030D02*
X171222676Y-68656030D01*
X179122676Y-71456030D02*
X179122676Y-70656030D01*
X179122676Y-74306030D02*
X179122676Y-74546030D01*
X168672676Y-72706030D02*
G75*
G02*
X168172676Y-72206030I1J500001D01*
G01*
X173237500Y-72706030D02*
G75*
G02*
X175531822Y-74546030I866J-2349332D01*
G01*
X177122676Y-68656030D02*
G75*
G02*
X179122670Y-70656030I4J-1999990D01*
G01*
%TO.C,MX20*%
X111022676Y-125806030D02*
X111022676Y-126036030D01*
X111022676Y-128886030D02*
X111022676Y-129356030D01*
X111522676Y-129856030D02*
X116087500Y-129856030D01*
X112572676Y-125806030D02*
X111022676Y-125806030D01*
X119972676Y-125806030D02*
X114072676Y-125806030D01*
X121972676Y-128606030D02*
X121972676Y-127806030D01*
X121972676Y-131456030D02*
X121972676Y-131696030D01*
X111522676Y-129856030D02*
G75*
G02*
X111022676Y-129356030I1J500001D01*
G01*
X116087500Y-129856030D02*
G75*
G02*
X118381822Y-131696030I866J-2349332D01*
G01*
X119972676Y-125806030D02*
G75*
G02*
X121972670Y-127806030I4J-1999990D01*
G01*
D11*
%TO.C,R6*%
X158515000Y-17022936D02*
X158515000Y-17477064D01*
X159985000Y-17022936D02*
X159985000Y-17477064D01*
D10*
%TO.C,MX48*%
X225322676Y-87706030D02*
X225322676Y-87936030D01*
X225322676Y-90786030D02*
X225322676Y-91256030D01*
X225822676Y-91756030D02*
X230387500Y-91756030D01*
X226872676Y-87706030D02*
X225322676Y-87706030D01*
X234272676Y-87706030D02*
X228372676Y-87706030D01*
X236272676Y-90506030D02*
X236272676Y-89706030D01*
X236272676Y-93356030D02*
X236272676Y-93596030D01*
X225822676Y-91756030D02*
G75*
G02*
X225322676Y-91256030I1J500001D01*
G01*
X230387500Y-91756030D02*
G75*
G02*
X232681822Y-93596030I866J-2349332D01*
G01*
X234272676Y-87706030D02*
G75*
G02*
X236272670Y-89706030I4J-1999990D01*
G01*
%TO.C,MX33*%
X168172676Y-87706030D02*
X168172676Y-87936030D01*
X168172676Y-90786030D02*
X168172676Y-91256030D01*
X168672676Y-91756030D02*
X173237500Y-91756030D01*
X169722676Y-87706030D02*
X168172676Y-87706030D01*
X177122676Y-87706030D02*
X171222676Y-87706030D01*
X179122676Y-90506030D02*
X179122676Y-89706030D01*
X179122676Y-93356030D02*
X179122676Y-93596030D01*
X168672676Y-91756030D02*
G75*
G02*
X168172676Y-91256030I1J500001D01*
G01*
X173237500Y-91756030D02*
G75*
G02*
X175531822Y-93596030I866J-2349332D01*
G01*
X177122676Y-87706030D02*
G75*
G02*
X179122670Y-89706030I4J-1999990D01*
G01*
%TO.C,MX2*%
X72922676Y-49606030D02*
X72922676Y-49836030D01*
X72922676Y-52686030D02*
X72922676Y-53156030D01*
X73422676Y-53656030D02*
X77987500Y-53656030D01*
X74472676Y-49606030D02*
X72922676Y-49606030D01*
X81872676Y-49606030D02*
X75972676Y-49606030D01*
X83872676Y-52406030D02*
X83872676Y-51606030D01*
X83872676Y-55256030D02*
X83872676Y-55496030D01*
X73422676Y-53656030D02*
G75*
G02*
X72922676Y-53156030I1J500001D01*
G01*
X77987500Y-53656030D02*
G75*
G02*
X80281822Y-55496030I866J-2349332D01*
G01*
X81872676Y-49606030D02*
G75*
G02*
X83872670Y-51606030I4J-1999990D01*
G01*
%TO.C,MX15*%
X91972676Y-125806030D02*
X91972676Y-126036030D01*
X91972676Y-128886030D02*
X91972676Y-129356030D01*
X92472676Y-129856030D02*
X97037500Y-129856030D01*
X93522676Y-125806030D02*
X91972676Y-125806030D01*
X100922676Y-125806030D02*
X95022676Y-125806030D01*
X102922676Y-128606030D02*
X102922676Y-127806030D01*
X102922676Y-131456030D02*
X102922676Y-131696030D01*
X92472676Y-129856030D02*
G75*
G02*
X91972676Y-129356030I1J500001D01*
G01*
X97037500Y-129856030D02*
G75*
G02*
X99331822Y-131696030I866J-2349332D01*
G01*
X100922676Y-125806030D02*
G75*
G02*
X102922670Y-127806030I4J-1999990D01*
G01*
%TO.C,MX5*%
X53872676Y-87706030D02*
X53872676Y-87936030D01*
X53872676Y-90786030D02*
X53872676Y-91256030D01*
X54372676Y-91756030D02*
X58937500Y-91756030D01*
X55422676Y-87706030D02*
X53872676Y-87706030D01*
X62822676Y-87706030D02*
X56922676Y-87706030D01*
X64822676Y-90506030D02*
X64822676Y-89706030D01*
X64822676Y-93356030D02*
X64822676Y-93596030D01*
X54372676Y-91756030D02*
G75*
G02*
X53872676Y-91256030I1J500001D01*
G01*
X58937500Y-91756030D02*
G75*
G02*
X61231822Y-93596030I866J-2349332D01*
G01*
X62822676Y-87706030D02*
G75*
G02*
X64822670Y-89706030I4J-1999990D01*
G01*
%TO.C,MX53*%
X244372676Y-87706030D02*
X244372676Y-87936030D01*
X244372676Y-90786030D02*
X244372676Y-91256030D01*
X244872676Y-91756030D02*
X249437500Y-91756030D01*
X245922676Y-87706030D02*
X244372676Y-87706030D01*
X253322676Y-87706030D02*
X247422676Y-87706030D01*
X255322676Y-90506030D02*
X255322676Y-89706030D01*
X255322676Y-93356030D02*
X255322676Y-93596030D01*
X244872676Y-91756030D02*
G75*
G02*
X244372676Y-91256030I1J500001D01*
G01*
X249437500Y-91756030D02*
G75*
G02*
X251731822Y-93596030I866J-2349332D01*
G01*
X253322676Y-87706030D02*
G75*
G02*
X255322670Y-89706030I4J-1999990D01*
G01*
%TO.C,MX46*%
X225322676Y-49606030D02*
X225322676Y-49836030D01*
X225322676Y-52686030D02*
X225322676Y-53156030D01*
X225822676Y-53656030D02*
X230387500Y-53656030D01*
X226872676Y-49606030D02*
X225322676Y-49606030D01*
X234272676Y-49606030D02*
X228372676Y-49606030D01*
X236272676Y-52406030D02*
X236272676Y-51606030D01*
X236272676Y-55256030D02*
X236272676Y-55496030D01*
X225822676Y-53656030D02*
G75*
G02*
X225322676Y-53156030I1J500001D01*
G01*
X230387500Y-53656030D02*
G75*
G02*
X232681822Y-55496030I866J-2349332D01*
G01*
X234272676Y-49606030D02*
G75*
G02*
X236272670Y-51606030I4J-1999990D01*
G01*
%TO.C,MX57*%
X263422676Y-68656030D02*
X263422676Y-68886030D01*
X263422676Y-71736030D02*
X263422676Y-72206030D01*
X263922676Y-72706030D02*
X268487500Y-72706030D01*
X264972676Y-68656030D02*
X263422676Y-68656030D01*
X272372676Y-68656030D02*
X266472676Y-68656030D01*
X274372676Y-71456030D02*
X274372676Y-70656030D01*
X274372676Y-74306030D02*
X274372676Y-74546030D01*
X263922676Y-72706030D02*
G75*
G02*
X263422676Y-72206030I1J500001D01*
G01*
X268487500Y-72706030D02*
G75*
G02*
X270781822Y-74546030I866J-2349332D01*
G01*
X272372676Y-68656030D02*
G75*
G02*
X274372670Y-70656030I4J-1999990D01*
G01*
%TO.C,MX31*%
X168172676Y-49606030D02*
X168172676Y-49836030D01*
X168172676Y-52686030D02*
X168172676Y-53156030D01*
X168672676Y-53656030D02*
X173237500Y-53656030D01*
X169722676Y-49606030D02*
X168172676Y-49606030D01*
X177122676Y-49606030D02*
X171222676Y-49606030D01*
X179122676Y-52406030D02*
X179122676Y-51606030D01*
X179122676Y-55256030D02*
X179122676Y-55496030D01*
X168672676Y-53656030D02*
G75*
G02*
X168172676Y-53156030I1J500001D01*
G01*
X173237500Y-53656030D02*
G75*
G02*
X175531822Y-55496030I866J-2349332D01*
G01*
X177122676Y-49606030D02*
G75*
G02*
X179122670Y-51606030I4J-1999990D01*
G01*
%TO.C,U2*%
X124975000Y-29525000D02*
X124975000Y-30200000D01*
X124975000Y-29525000D02*
X125650000Y-29525000D01*
X124975000Y-39875000D02*
X124975000Y-39200000D01*
X124975000Y-39875000D02*
X125650000Y-39875000D01*
X135325000Y-29525000D02*
X134710000Y-29524999D01*
X135325000Y-29525000D02*
X135325000Y-30200000D01*
X135325000Y-39875000D02*
X134650000Y-39875000D01*
X135325000Y-39875000D02*
X135325000Y-39200000D01*
D11*
X135160000Y-29180001D02*
X134690000Y-28840000D01*
X135160000Y-28500000D01*
X135160000Y-29180001D01*
G36*
X135160000Y-29180001D02*
G01*
X134690000Y-28840000D01*
X135160000Y-28500000D01*
X135160000Y-29180001D01*
G37*
D10*
%TO.C,MX25*%
X130072676Y-125806030D02*
X130072676Y-126036030D01*
X130072676Y-128886030D02*
X130072676Y-129356030D01*
X130572676Y-129856030D02*
X135137500Y-129856030D01*
X131622676Y-125806030D02*
X130072676Y-125806030D01*
X139022676Y-125806030D02*
X133122676Y-125806030D01*
X141022676Y-128606030D02*
X141022676Y-127806030D01*
X141022676Y-131456030D02*
X141022676Y-131696030D01*
X130572676Y-129856030D02*
G75*
G02*
X130072676Y-129356030I1J500001D01*
G01*
X135137500Y-129856030D02*
G75*
G02*
X137431822Y-131696030I866J-2349332D01*
G01*
X139022676Y-125806030D02*
G75*
G02*
X141022670Y-127806030I4J-1999990D01*
G01*
D11*
%TO.C,C4*%
X122411252Y-25746250D02*
X121888748Y-25746250D01*
X122411252Y-27216250D02*
X121888748Y-27216250D01*
D10*
%TO.C,MX41*%
X206272676Y-49606030D02*
X206272676Y-49836030D01*
X206272676Y-52686030D02*
X206272676Y-53156030D01*
X206772676Y-53656030D02*
X211337500Y-53656030D01*
X207822676Y-49606030D02*
X206272676Y-49606030D01*
X215222676Y-49606030D02*
X209322676Y-49606030D01*
X217222676Y-52406030D02*
X217222676Y-51606030D01*
X217222676Y-55256030D02*
X217222676Y-55496030D01*
X206772676Y-53656030D02*
G75*
G02*
X206272676Y-53156030I1J500001D01*
G01*
X211337500Y-53656030D02*
G75*
G02*
X213631822Y-55496030I866J-2349332D01*
G01*
X215222676Y-49606030D02*
G75*
G02*
X217222670Y-51606030I4J-1999990D01*
G01*
%TO.C,MX7*%
X53872676Y-106756030D02*
X53872676Y-106986030D01*
X53872676Y-109836030D02*
X53872676Y-110306030D01*
X54372676Y-110806030D02*
X58937500Y-110806030D01*
X55422676Y-106756030D02*
X53872676Y-106756030D01*
X62822676Y-106756030D02*
X56922676Y-106756030D01*
X64822676Y-109556030D02*
X64822676Y-108756030D01*
X64822676Y-112406030D02*
X64822676Y-112646030D01*
X54372676Y-110806030D02*
G75*
G02*
X53872676Y-110306030I1J500001D01*
G01*
X58937500Y-110806030D02*
G75*
G02*
X61231822Y-112646030I866J-2349332D01*
G01*
X62822676Y-106756030D02*
G75*
G02*
X64822670Y-108756030I4J-1999990D01*
G01*
D11*
%TO.C,R5*%
X158515000Y-21227064D02*
X158515000Y-20772936D01*
X159985000Y-21227064D02*
X159985000Y-20772936D01*
D10*
%TO.C,MX27*%
X149122676Y-68656030D02*
X149122676Y-68886030D01*
X149122676Y-71736030D02*
X149122676Y-72206030D01*
X149622676Y-72706030D02*
X154187500Y-72706030D01*
X150672676Y-68656030D02*
X149122676Y-68656030D01*
X158072676Y-68656030D02*
X152172676Y-68656030D01*
X160072676Y-71456030D02*
X160072676Y-70656030D01*
X160072676Y-74306030D02*
X160072676Y-74546030D01*
X149622676Y-72706030D02*
G75*
G02*
X149122676Y-72206030I1J500001D01*
G01*
X154187500Y-72706030D02*
G75*
G02*
X156481822Y-74546030I866J-2349332D01*
G01*
X158072676Y-68656030D02*
G75*
G02*
X160072670Y-70656030I4J-1999990D01*
G01*
%TO.C,MX18*%
X111022676Y-87706030D02*
X111022676Y-87936030D01*
X111022676Y-90786030D02*
X111022676Y-91256030D01*
X111522676Y-91756030D02*
X116087500Y-91756030D01*
X112572676Y-87706030D02*
X111022676Y-87706030D01*
X119972676Y-87706030D02*
X114072676Y-87706030D01*
X121972676Y-90506030D02*
X121972676Y-89706030D01*
X121972676Y-93356030D02*
X121972676Y-93596030D01*
X111522676Y-91756030D02*
G75*
G02*
X111022676Y-91256030I1J500001D01*
G01*
X116087500Y-91756030D02*
G75*
G02*
X118381822Y-93596030I866J-2349332D01*
G01*
X119972676Y-87706030D02*
G75*
G02*
X121972670Y-89706030I4J-1999990D01*
G01*
%TO.C,MX50*%
X225322676Y-125806030D02*
X225322676Y-126036030D01*
X225322676Y-128886030D02*
X225322676Y-129356030D01*
X225822676Y-129856030D02*
X230387500Y-129856030D01*
X226872676Y-125806030D02*
X225322676Y-125806030D01*
X234272676Y-125806030D02*
X228372676Y-125806030D01*
X236272676Y-128606030D02*
X236272676Y-127806030D01*
X236272676Y-131456030D02*
X236272676Y-131696030D01*
X225822676Y-129856030D02*
G75*
G02*
X225322676Y-129356030I1J500001D01*
G01*
X230387500Y-129856030D02*
G75*
G02*
X232681822Y-131696030I866J-2349332D01*
G01*
X234272676Y-125806030D02*
G75*
G02*
X236272670Y-127806030I4J-1999990D01*
G01*
D11*
%TO.C,C3*%
X126161252Y-42996250D02*
X125638748Y-42996250D01*
X126161252Y-44466250D02*
X125638748Y-44466250D01*
D10*
%TO.C,MX51*%
X244372676Y-49606030D02*
X244372676Y-49836030D01*
X244372676Y-52686030D02*
X244372676Y-53156030D01*
X244872676Y-53656030D02*
X249437500Y-53656030D01*
X245922676Y-49606030D02*
X244372676Y-49606030D01*
X253322676Y-49606030D02*
X247422676Y-49606030D01*
X255322676Y-52406030D02*
X255322676Y-51606030D01*
X255322676Y-55256030D02*
X255322676Y-55496030D01*
X244872676Y-53656030D02*
G75*
G02*
X244372676Y-53156030I1J500001D01*
G01*
X249437500Y-53656030D02*
G75*
G02*
X251731822Y-55496030I866J-2349332D01*
G01*
X253322676Y-49606030D02*
G75*
G02*
X255322670Y-51606030I4J-1999990D01*
G01*
%TO.C,MX40*%
X187222676Y-125806030D02*
X187222676Y-126036030D01*
X187222676Y-128886030D02*
X187222676Y-129356030D01*
X187722676Y-129856030D02*
X192287500Y-129856030D01*
X188772676Y-125806030D02*
X187222676Y-125806030D01*
X196172676Y-125806030D02*
X190272676Y-125806030D01*
X198172676Y-128606030D02*
X198172676Y-127806030D01*
X198172676Y-131456030D02*
X198172676Y-131696030D01*
X187722676Y-129856030D02*
G75*
G02*
X187222676Y-129356030I1J500001D01*
G01*
X192287500Y-129856030D02*
G75*
G02*
X194581822Y-131696030I866J-2349332D01*
G01*
X196172676Y-125806030D02*
G75*
G02*
X198172670Y-127806030I4J-1999990D01*
G01*
%TO.C,MX12*%
X91972676Y-68656030D02*
X91972676Y-68886030D01*
X91972676Y-71736030D02*
X91972676Y-72206030D01*
X92472676Y-72706030D02*
X97037500Y-72706030D01*
X93522676Y-68656030D02*
X91972676Y-68656030D01*
X100922676Y-68656030D02*
X95022676Y-68656030D01*
X102922676Y-71456030D02*
X102922676Y-70656030D01*
X102922676Y-74306030D02*
X102922676Y-74546030D01*
X92472676Y-72706030D02*
G75*
G02*
X91972676Y-72206030I1J500001D01*
G01*
X97037500Y-72706030D02*
G75*
G02*
X99331822Y-74546030I866J-2349332D01*
G01*
X100922676Y-68656030D02*
G75*
G02*
X102922670Y-70656030I4J-1999990D01*
G01*
%TO.C,MX47*%
X225322676Y-68656030D02*
X225322676Y-68886030D01*
X225322676Y-71736030D02*
X225322676Y-72206030D01*
X225822676Y-72706030D02*
X230387500Y-72706030D01*
X226872676Y-68656030D02*
X225322676Y-68656030D01*
X234272676Y-68656030D02*
X228372676Y-68656030D01*
X236272676Y-71456030D02*
X236272676Y-70656030D01*
X236272676Y-74306030D02*
X236272676Y-74546030D01*
X225822676Y-72706030D02*
G75*
G02*
X225322676Y-72206030I1J500001D01*
G01*
X230387500Y-72706030D02*
G75*
G02*
X232681822Y-74546030I866J-2349332D01*
G01*
X234272676Y-68656030D02*
G75*
G02*
X236272670Y-70656030I4J-1999990D01*
G01*
%TO.C,MX58*%
X263422676Y-87706030D02*
X263422676Y-87936030D01*
X263422676Y-90786030D02*
X263422676Y-91256030D01*
X263922676Y-91756030D02*
X268487500Y-91756030D01*
X264972676Y-87706030D02*
X263422676Y-87706030D01*
X272372676Y-87706030D02*
X266472676Y-87706030D01*
X274372676Y-90506030D02*
X274372676Y-89706030D01*
X274372676Y-93356030D02*
X274372676Y-93596030D01*
X263922676Y-91756030D02*
G75*
G02*
X263422676Y-91256030I1J500001D01*
G01*
X268487500Y-91756030D02*
G75*
G02*
X270781822Y-93596030I866J-2349332D01*
G01*
X272372676Y-87706030D02*
G75*
G02*
X274372670Y-89706030I4J-1999990D01*
G01*
%TO.C,MX59*%
X263422676Y-106756030D02*
X263422676Y-106986030D01*
X263422676Y-109836030D02*
X263422676Y-110306030D01*
X263922676Y-110806030D02*
X268487500Y-110806030D01*
X264972676Y-106756030D02*
X263422676Y-106756030D01*
X272372676Y-106756030D02*
X266472676Y-106756030D01*
X274372676Y-109556030D02*
X274372676Y-108756030D01*
X274372676Y-112406030D02*
X274372676Y-112646030D01*
X263922676Y-110806030D02*
G75*
G02*
X263422676Y-110306030I1J500001D01*
G01*
X268487500Y-110806030D02*
G75*
G02*
X270781822Y-112646030I866J-2349332D01*
G01*
X272372676Y-106756030D02*
G75*
G02*
X274372670Y-108756030I4J-1999990D01*
G01*
%TO.C,MX43*%
X206272676Y-87706030D02*
X206272676Y-87936030D01*
X206272676Y-90786030D02*
X206272676Y-91256030D01*
X206772676Y-91756030D02*
X211337500Y-91756030D01*
X207822676Y-87706030D02*
X206272676Y-87706030D01*
X215222676Y-87706030D02*
X209322676Y-87706030D01*
X217222676Y-90506030D02*
X217222676Y-89706030D01*
X217222676Y-93356030D02*
X217222676Y-93596030D01*
X206772676Y-91756030D02*
G75*
G02*
X206272676Y-91256030I1J500001D01*
G01*
X211337500Y-91756030D02*
G75*
G02*
X213631822Y-93596030I866J-2349332D01*
G01*
X215222676Y-87706030D02*
G75*
G02*
X217222670Y-89706030I4J-1999990D01*
G01*
D11*
%TO.C,C6*%
X118138748Y-36996250D02*
X118661252Y-36996250D01*
X118138748Y-38466250D02*
X118661252Y-38466250D01*
D10*
%TO.C,MX54*%
X244372676Y-106756030D02*
X244372676Y-106986030D01*
X244372676Y-109836030D02*
X244372676Y-110306030D01*
X244872676Y-110806030D02*
X249437500Y-110806030D01*
X245922676Y-106756030D02*
X244372676Y-106756030D01*
X253322676Y-106756030D02*
X247422676Y-106756030D01*
X255322676Y-109556030D02*
X255322676Y-108756030D01*
X255322676Y-112406030D02*
X255322676Y-112646030D01*
X244872676Y-110806030D02*
G75*
G02*
X244372676Y-110306030I1J500001D01*
G01*
X249437500Y-110806030D02*
G75*
G02*
X251731822Y-112646030I866J-2349332D01*
G01*
X253322676Y-106756030D02*
G75*
G02*
X255322670Y-108756030I4J-1999990D01*
G01*
%TO.C,MX19*%
X111022676Y-106756030D02*
X111022676Y-106986030D01*
X111022676Y-109836030D02*
X111022676Y-110306030D01*
X111522676Y-110806030D02*
X116087500Y-110806030D01*
X112572676Y-106756030D02*
X111022676Y-106756030D01*
X119972676Y-106756030D02*
X114072676Y-106756030D01*
X121972676Y-109556030D02*
X121972676Y-108756030D01*
X121972676Y-112406030D02*
X121972676Y-112646030D01*
X111522676Y-110806030D02*
G75*
G02*
X111022676Y-110306030I1J500001D01*
G01*
X116087500Y-110806030D02*
G75*
G02*
X118381822Y-112646030I866J-2349332D01*
G01*
X119972676Y-106756030D02*
G75*
G02*
X121972670Y-108756030I4J-1999990D01*
G01*
%TO.C,MX14*%
X91972676Y-106756030D02*
X91972676Y-106986030D01*
X91972676Y-109836030D02*
X91972676Y-110306030D01*
X92472676Y-110806030D02*
X97037500Y-110806030D01*
X93522676Y-106756030D02*
X91972676Y-106756030D01*
X100922676Y-106756030D02*
X95022676Y-106756030D01*
X102922676Y-109556030D02*
X102922676Y-108756030D01*
X102922676Y-112406030D02*
X102922676Y-112646030D01*
X92472676Y-110806030D02*
G75*
G02*
X91972676Y-110306030I1J500001D01*
G01*
X97037500Y-110806030D02*
G75*
G02*
X99331822Y-112646030I866J-2349332D01*
G01*
X100922676Y-106756030D02*
G75*
G02*
X102922670Y-108756030I4J-1999990D01*
G01*
D11*
%TO.C,C5*%
X134888748Y-24746250D02*
X135411252Y-24746250D01*
X134888748Y-26216250D02*
X135411252Y-26216250D01*
D10*
%TO.C,MX22*%
X130072676Y-68656030D02*
X130072676Y-68886030D01*
X130072676Y-71736030D02*
X130072676Y-72206030D01*
X130572676Y-72706030D02*
X135137500Y-72706030D01*
X131622676Y-68656030D02*
X130072676Y-68656030D01*
X139022676Y-68656030D02*
X133122676Y-68656030D01*
X141022676Y-71456030D02*
X141022676Y-70656030D01*
X141022676Y-74306030D02*
X141022676Y-74546030D01*
X130572676Y-72706030D02*
G75*
G02*
X130072676Y-72206030I1J500001D01*
G01*
X135137500Y-72706030D02*
G75*
G02*
X137431822Y-74546030I866J-2349332D01*
G01*
X139022676Y-68656030D02*
G75*
G02*
X141022670Y-70656030I4J-1999990D01*
G01*
D11*
%TO.C,R1*%
X136272936Y-43746250D02*
X136727064Y-43746250D01*
X136272936Y-45216250D02*
X136727064Y-45216250D01*
D10*
%TO.C,MX26*%
X149122676Y-49606030D02*
X149122676Y-49836030D01*
X149122676Y-52686030D02*
X149122676Y-53156030D01*
X149622676Y-53656030D02*
X154187500Y-53656030D01*
X150672676Y-49606030D02*
X149122676Y-49606030D01*
X158072676Y-49606030D02*
X152172676Y-49606030D01*
X160072676Y-52406030D02*
X160072676Y-51606030D01*
X160072676Y-55256030D02*
X160072676Y-55496030D01*
X149622676Y-53656030D02*
G75*
G02*
X149122676Y-53156030I1J500001D01*
G01*
X154187500Y-53656030D02*
G75*
G02*
X156481822Y-55496030I866J-2349332D01*
G01*
X158072676Y-49606030D02*
G75*
G02*
X160072670Y-51606030I4J-1999990D01*
G01*
%TO.C,MX28*%
X149122676Y-87706030D02*
X149122676Y-87936030D01*
X149122676Y-90786030D02*
X149122676Y-91256030D01*
X149622676Y-91756030D02*
X154187500Y-91756030D01*
X150672676Y-87706030D02*
X149122676Y-87706030D01*
X158072676Y-87706030D02*
X152172676Y-87706030D01*
X160072676Y-90506030D02*
X160072676Y-89706030D01*
X160072676Y-93356030D02*
X160072676Y-93596030D01*
X149622676Y-91756030D02*
G75*
G02*
X149122676Y-91256030I1J500001D01*
G01*
X154187500Y-91756030D02*
G75*
G02*
X156481822Y-93596030I866J-2349332D01*
G01*
X158072676Y-87706030D02*
G75*
G02*
X160072670Y-89706030I4J-1999990D01*
G01*
D11*
%TO.C,C7*%
X118661252Y-30496250D02*
X118138748Y-30496250D01*
X118661252Y-31966250D02*
X118138748Y-31966250D01*
D10*
%TO.C,MX49*%
X225322676Y-106756030D02*
X225322676Y-106986030D01*
X225322676Y-109836030D02*
X225322676Y-110306030D01*
X225822676Y-110806030D02*
X230387500Y-110806030D01*
X226872676Y-106756030D02*
X225322676Y-106756030D01*
X234272676Y-106756030D02*
X228372676Y-106756030D01*
X236272676Y-109556030D02*
X236272676Y-108756030D01*
X236272676Y-112406030D02*
X236272676Y-112646030D01*
X225822676Y-110806030D02*
G75*
G02*
X225322676Y-110306030I1J500001D01*
G01*
X230387500Y-110806030D02*
G75*
G02*
X232681822Y-112646030I866J-2349332D01*
G01*
X234272676Y-106756030D02*
G75*
G02*
X236272670Y-108756030I4J-1999990D01*
G01*
D11*
%TO.C,C1*%
X125015000Y-24511252D02*
X125015000Y-23988748D01*
X126485000Y-24511252D02*
X126485000Y-23988748D01*
D10*
%TO.C,MX44*%
X206272676Y-106756030D02*
X206272676Y-106986030D01*
X206272676Y-109836030D02*
X206272676Y-110306030D01*
X206772676Y-110806030D02*
X211337500Y-110806030D01*
X207822676Y-106756030D02*
X206272676Y-106756030D01*
X215222676Y-106756030D02*
X209322676Y-106756030D01*
X217222676Y-109556030D02*
X217222676Y-108756030D01*
X217222676Y-112406030D02*
X217222676Y-112646030D01*
X206772676Y-110806030D02*
G75*
G02*
X206272676Y-110306030I1J500001D01*
G01*
X211337500Y-110806030D02*
G75*
G02*
X213631822Y-112646030I866J-2349332D01*
G01*
X215222676Y-106756030D02*
G75*
G02*
X217222670Y-108756030I4J-1999990D01*
G01*
D11*
%TO.C,R2*%
X151914996Y-24762936D02*
X151914996Y-25217064D01*
X153384996Y-24762936D02*
X153384996Y-25217064D01*
D10*
%TO.C,MX4*%
X72922676Y-68656030D02*
X72922676Y-68886030D01*
X72922676Y-71736030D02*
X72922676Y-72206030D01*
X73422676Y-72706030D02*
X77987500Y-72706030D01*
X74472676Y-68656030D02*
X72922676Y-68656030D01*
X81872676Y-68656030D02*
X75972676Y-68656030D01*
X83872676Y-71456030D02*
X83872676Y-70656030D01*
X83872676Y-74306030D02*
X83872676Y-74546030D01*
X73422676Y-72706030D02*
G75*
G02*
X72922676Y-72206030I1J500001D01*
G01*
X77987500Y-72706030D02*
G75*
G02*
X80281822Y-74546030I866J-2349332D01*
G01*
X81872676Y-68656030D02*
G75*
G02*
X83872670Y-70656030I4J-1999990D01*
G01*
%TO.C,MX38*%
X187222676Y-87706030D02*
X187222676Y-87936030D01*
X187222676Y-90786030D02*
X187222676Y-91256030D01*
X187722676Y-91756030D02*
X192287500Y-91756030D01*
X188772676Y-87706030D02*
X187222676Y-87706030D01*
X196172676Y-87706030D02*
X190272676Y-87706030D01*
X198172676Y-90506030D02*
X198172676Y-89706030D01*
X198172676Y-93356030D02*
X198172676Y-93596030D01*
X187722676Y-91756030D02*
G75*
G02*
X187222676Y-91256030I1J500001D01*
G01*
X192287500Y-91756030D02*
G75*
G02*
X194581822Y-93596030I866J-2349332D01*
G01*
X196172676Y-87706030D02*
G75*
G02*
X198172670Y-89706030I4J-1999990D01*
G01*
%TO.C,MX29*%
X149122676Y-106756030D02*
X149122676Y-106986030D01*
X149122676Y-109836030D02*
X149122676Y-110306030D01*
X149622676Y-110806030D02*
X154187500Y-110806030D01*
X150672676Y-106756030D02*
X149122676Y-106756030D01*
X158072676Y-106756030D02*
X152172676Y-106756030D01*
X160072676Y-109556030D02*
X160072676Y-108756030D01*
X160072676Y-112406030D02*
X160072676Y-112646030D01*
X149622676Y-110806030D02*
G75*
G02*
X149122676Y-110306030I1J500001D01*
G01*
X154187500Y-110806030D02*
G75*
G02*
X156481822Y-112646030I866J-2349332D01*
G01*
X158072676Y-106756030D02*
G75*
G02*
X160072670Y-108756030I4J-1999990D01*
G01*
%TO.C,MX10*%
X72922676Y-125806030D02*
X72922676Y-126036030D01*
X72922676Y-128886030D02*
X72922676Y-129356030D01*
X73422676Y-129856030D02*
X77987500Y-129856030D01*
X74472676Y-125806030D02*
X72922676Y-125806030D01*
X81872676Y-125806030D02*
X75972676Y-125806030D01*
X83872676Y-128606030D02*
X83872676Y-127806030D01*
X83872676Y-131456030D02*
X83872676Y-131696030D01*
X73422676Y-129856030D02*
G75*
G02*
X72922676Y-129356030I1J500001D01*
G01*
X77987500Y-129856030D02*
G75*
G02*
X80281822Y-131696030I866J-2349332D01*
G01*
X81872676Y-125806030D02*
G75*
G02*
X83872670Y-127806030I4J-1999990D01*
G01*
%TO.C,MX34*%
X168172676Y-106756030D02*
X168172676Y-106986030D01*
X168172676Y-109836030D02*
X168172676Y-110306030D01*
X168672676Y-110806030D02*
X173237500Y-110806030D01*
X169722676Y-106756030D02*
X168172676Y-106756030D01*
X177122676Y-106756030D02*
X171222676Y-106756030D01*
X179122676Y-109556030D02*
X179122676Y-108756030D01*
X179122676Y-112406030D02*
X179122676Y-112646030D01*
X168672676Y-110806030D02*
G75*
G02*
X168172676Y-110306030I1J500001D01*
G01*
X173237500Y-110806030D02*
G75*
G02*
X175531822Y-112646030I866J-2349332D01*
G01*
X177122676Y-106756030D02*
G75*
G02*
X179122670Y-108756030I4J-1999990D01*
G01*
%TO.C,MX17*%
X111022676Y-68656030D02*
X111022676Y-68886030D01*
X111022676Y-71736030D02*
X111022676Y-72206030D01*
X111522676Y-72706030D02*
X116087500Y-72706030D01*
X112572676Y-68656030D02*
X111022676Y-68656030D01*
X119972676Y-68656030D02*
X114072676Y-68656030D01*
X121972676Y-71456030D02*
X121972676Y-70656030D01*
X121972676Y-74306030D02*
X121972676Y-74546030D01*
X111522676Y-72706030D02*
G75*
G02*
X111022676Y-72206030I1J500001D01*
G01*
X116087500Y-72706030D02*
G75*
G02*
X118381822Y-74546030I866J-2349332D01*
G01*
X119972676Y-68656030D02*
G75*
G02*
X121972670Y-70656030I4J-1999990D01*
G01*
D11*
%TO.C,C2*%
X138415000Y-38992502D02*
X138415000Y-38469998D01*
X139885000Y-38992502D02*
X139885000Y-38469998D01*
%TD*%
M02*
