%TF.GenerationSoftware,KiCad,Pcbnew,8.0.4*%
%TF.CreationDate,2024-09-02T18:18:05-04:00*%
%TF.ProjectId,BTKeyboardAttempt,42544b65-7962-46f6-9172-64417474656d,rev?*%
%TF.SameCoordinates,Original*%
%TF.FileFunction,Copper,L2,Bot*%
%TF.FilePolarity,Positive*%
%FSLAX46Y46*%
G04 Gerber Fmt 4.6, Leading zero omitted, Abs format (unit mm)*
G04 Created by KiCad (PCBNEW 8.0.4) date 2024-09-02 18:18:05*
%MOMM*%
%LPD*%
G01*
G04 APERTURE LIST*
G04 Aperture macros list*
%AMRoundRect*
0 Rectangle with rounded corners*
0 $1 Rounding radius*
0 $2 $3 $4 $5 $6 $7 $8 $9 X,Y pos of 4 corners*
0 Add a 4 corners polygon primitive as box body*
4,1,4,$2,$3,$4,$5,$6,$7,$8,$9,$2,$3,0*
0 Add four circle primitives for the rounded corners*
1,1,$1+$1,$2,$3*
1,1,$1+$1,$4,$5*
1,1,$1+$1,$6,$7*
1,1,$1+$1,$8,$9*
0 Add four rect primitives between the rounded corners*
20,1,$1+$1,$2,$3,$4,$5,0*
20,1,$1+$1,$4,$5,$6,$7,0*
20,1,$1+$1,$6,$7,$8,$9,0*
20,1,$1+$1,$8,$9,$2,$3,0*%
G04 Aperture macros list end*
%TA.AperFunction,ComponentPad*%
%ADD10C,3.300000*%
%TD*%
%TA.AperFunction,ComponentPad*%
%ADD11C,0.650000*%
%TD*%
%TA.AperFunction,ComponentPad*%
%ADD12O,0.800000X1.400000*%
%TD*%
%TA.AperFunction,SMDPad,CuDef*%
%ADD13RoundRect,0.225000X0.375000X-0.225000X0.375000X0.225000X-0.375000X0.225000X-0.375000X-0.225000X0*%
%TD*%
%TA.AperFunction,SMDPad,CuDef*%
%ADD14R,1.800000X1.100000*%
%TD*%
%TA.AperFunction,ViaPad*%
%ADD15C,0.600000*%
%TD*%
%TA.AperFunction,Conductor*%
%ADD16C,0.200000*%
%TD*%
G04 APERTURE END LIST*
D10*
%TO.P,MX30,1,1*%
%TO.N,COL5*%
X157797500Y-130016250D03*
%TO.P,MX30,2,2*%
%TO.N,Net-(D30-A)*%
X151447500Y-127476250D03*
%TD*%
%TO.P,MX13,1,1*%
%TO.N,COL2*%
X100647500Y-91916250D03*
%TO.P,MX13,2,2*%
%TO.N,Net-(D13-A)*%
X94297500Y-89376250D03*
%TD*%
%TO.P,MX23,1,1*%
%TO.N,COL4*%
X138747500Y-91916250D03*
%TO.P,MX23,2,2*%
%TO.N,Net-(D23-A)*%
X132397500Y-89376250D03*
%TD*%
%TO.P,MX21,1,1*%
%TO.N,COL4*%
X138747500Y-53816250D03*
%TO.P,MX21,2,2*%
%TO.N,Net-(D21-A)*%
X132397500Y-51276250D03*
%TD*%
%TO.P,MX52,1,1*%
%TO.N,COL10*%
X253047500Y-72866250D03*
%TO.P,MX52,2,2*%
%TO.N,Net-(D52-A)*%
X246697500Y-70326250D03*
%TD*%
%TO.P,MX16,1,1*%
%TO.N,COL3*%
X119697500Y-53816250D03*
%TO.P,MX16,2,2*%
%TO.N,Net-(D16-A)*%
X113347500Y-51276250D03*
%TD*%
%TO.P,MX56,1,1*%
%TO.N,COL11*%
X272097500Y-53816250D03*
%TO.P,MX56,2,2*%
%TO.N,Net-(D56-A)*%
X265747500Y-51276250D03*
%TD*%
%TO.P,MX60,1,1*%
%TO.N,COL11*%
X272097500Y-130016250D03*
%TO.P,MX60,2,2*%
%TO.N,Net-(D60-A)*%
X265747500Y-127476250D03*
%TD*%
D11*
%TO.P,J1,B1,GND*%
%TO.N,GND*%
X147849996Y-19450000D03*
%TO.P,J1,B2,TX2+*%
%TO.N,unconnected-(J1-TX2+-PadB2)*%
X148249996Y-18750000D03*
%TO.P,J1,B3,TX2-*%
%TO.N,unconnected-(J1-TX2--PadB3)*%
X149049996Y-18750000D03*
%TO.P,J1,B4,VBUS*%
%TO.N,+5V*%
X149449996Y-19450000D03*
%TO.P,J1,B5,CC2*%
%TO.N,Net-(J1-CC2)*%
X149849996Y-18750000D03*
%TO.P,J1,B6,D+*%
%TO.N,D+*%
X150249996Y-19450000D03*
%TO.P,J1,B7,D-*%
%TO.N,D-*%
X151049996Y-19450000D03*
%TO.P,J1,B8,SBU2*%
%TO.N,unconnected-(J1-SBU2-PadB8)*%
X151449996Y-18750000D03*
%TO.P,J1,B9,VBUS*%
%TO.N,+5V*%
X151849996Y-19450000D03*
%TO.P,J1,B10,RX1-*%
%TO.N,unconnected-(J1-RX1--PadB10)*%
X152249996Y-18750000D03*
%TO.P,J1,B11,RX1+*%
%TO.N,unconnected-(J1-RX1+-PadB11)*%
X153049996Y-18750000D03*
%TO.P,J1,B12,GND*%
%TO.N,GND*%
X153449996Y-19450000D03*
D12*
%TO.P,J1,S1,SHIELD*%
X155139996Y-12900000D03*
X154779996Y-18850000D03*
X146519996Y-18850000D03*
X146159996Y-12900000D03*
%TD*%
D10*
%TO.P,MX6,1,1*%
%TO.N,COL1*%
X81597500Y-91916250D03*
%TO.P,MX6,2,2*%
%TO.N,Net-(D6-A)*%
X75247500Y-89376250D03*
%TD*%
%TO.P,MX3,1,1*%
%TO.N,COL0*%
X62547500Y-72866250D03*
%TO.P,MX3,2,2*%
%TO.N,Net-(D3-A)*%
X56197500Y-70326250D03*
%TD*%
%TO.P,MX42,1,1*%
%TO.N,COL8*%
X214947500Y-72866250D03*
%TO.P,MX42,2,2*%
%TO.N,Net-(D42-A)*%
X208597500Y-70326250D03*
%TD*%
%TO.P,MX45,1,1*%
%TO.N,COL8*%
X214947500Y-130016250D03*
%TO.P,MX45,2,2*%
%TO.N,Net-(D45-A)*%
X208597500Y-127476250D03*
%TD*%
%TO.P,MX8,1,1*%
%TO.N,COL1*%
X81597500Y-110966250D03*
%TO.P,MX8,2,2*%
%TO.N,Net-(D8-A)*%
X75247500Y-108426250D03*
%TD*%
%TO.P,MX35,1,1*%
%TO.N,COL6*%
X176847500Y-130016250D03*
%TO.P,MX35,2,2*%
%TO.N,Net-(D35-A)*%
X170497500Y-127476250D03*
%TD*%
%TO.P,MX36,1,1*%
%TO.N,COL7*%
X195897500Y-53816250D03*
%TO.P,MX36,2,2*%
%TO.N,Net-(D36-A)*%
X189547500Y-51276250D03*
%TD*%
%TO.P,MX1,1,1*%
%TO.N,COL0*%
X62547500Y-53816250D03*
%TO.P,MX1,2,2*%
%TO.N,Net-(D1-A)*%
X56197500Y-51276250D03*
%TD*%
%TO.P,MX55,1,1*%
%TO.N,COL10*%
X253047500Y-130016250D03*
%TO.P,MX55,2,2*%
%TO.N,Net-(D55-A)*%
X246697500Y-127476250D03*
%TD*%
%TO.P,MX9,1,1*%
%TO.N,COL0*%
X62547500Y-130016250D03*
%TO.P,MX9,2,2*%
%TO.N,Net-(D9-A)*%
X56197500Y-127476250D03*
%TD*%
%TO.P,MX39,1,1*%
%TO.N,COL7*%
X195897500Y-110966250D03*
%TO.P,MX39,2,2*%
%TO.N,Net-(D39-A)*%
X189547500Y-108426250D03*
%TD*%
%TO.P,MX11,1,1*%
%TO.N,COL2*%
X100647500Y-53816250D03*
%TO.P,MX11,2,2*%
%TO.N,Net-(D11-A)*%
X94297500Y-51276250D03*
%TD*%
%TO.P,MX24,1,1*%
%TO.N,COL4*%
X138747500Y-110966250D03*
%TO.P,MX24,2,2*%
%TO.N,Net-(D24-A)*%
X132397500Y-108426250D03*
%TD*%
%TO.P,MX37,1,1*%
%TO.N,COL7*%
X195897500Y-72866250D03*
%TO.P,MX37,2,2*%
%TO.N,Net-(D37-A)*%
X189547500Y-70326250D03*
%TD*%
%TO.P,MX32,1,1*%
%TO.N,COL6*%
X176847500Y-72866250D03*
%TO.P,MX32,2,2*%
%TO.N,Net-(D32-A)*%
X170497500Y-70326250D03*
%TD*%
%TO.P,MX20,1,1*%
%TO.N,COL3*%
X119697500Y-130016250D03*
%TO.P,MX20,2,2*%
%TO.N,Net-(D20-A)*%
X113347500Y-127476250D03*
%TD*%
%TO.P,MX48,1,1*%
%TO.N,COL9*%
X233997500Y-91916250D03*
%TO.P,MX48,2,2*%
%TO.N,Net-(D48-A)*%
X227647500Y-89376250D03*
%TD*%
%TO.P,MX33,1,1*%
%TO.N,COL6*%
X176847500Y-91916250D03*
%TO.P,MX33,2,2*%
%TO.N,Net-(D33-A)*%
X170497500Y-89376250D03*
%TD*%
%TO.P,MX2,1,1*%
%TO.N,COL1*%
X81597500Y-53816250D03*
%TO.P,MX2,2,2*%
%TO.N,Net-(D2-A)*%
X75247500Y-51276250D03*
%TD*%
%TO.P,MX15,1,1*%
%TO.N,COL2*%
X100647500Y-130016250D03*
%TO.P,MX15,2,2*%
%TO.N,Net-(D15-A)*%
X94297500Y-127476250D03*
%TD*%
%TO.P,MX5,1,1*%
%TO.N,COL0*%
X62547500Y-91916250D03*
%TO.P,MX5,2,2*%
%TO.N,Net-(D5-A)*%
X56197500Y-89376250D03*
%TD*%
%TO.P,MX53,1,1*%
%TO.N,COL10*%
X253047500Y-91916250D03*
%TO.P,MX53,2,2*%
%TO.N,Net-(D53-A)*%
X246697500Y-89376250D03*
%TD*%
%TO.P,MX46,1,1*%
%TO.N,COL9*%
X233997500Y-53816250D03*
%TO.P,MX46,2,2*%
%TO.N,Net-(D46-A)*%
X227647500Y-51276250D03*
%TD*%
%TO.P,MX57,1,1*%
%TO.N,COL11*%
X272097500Y-72866250D03*
%TO.P,MX57,2,2*%
%TO.N,Net-(D57-A)*%
X265747500Y-70326250D03*
%TD*%
%TO.P,MX31,1,1*%
%TO.N,COL6*%
X176847500Y-53816250D03*
%TO.P,MX31,2,2*%
%TO.N,Net-(D31-A)*%
X170497500Y-51276250D03*
%TD*%
%TO.P,MX25,1,1*%
%TO.N,COL4*%
X138747500Y-130016250D03*
%TO.P,MX25,2,2*%
%TO.N,Net-(D25-A)*%
X132397500Y-127476250D03*
%TD*%
%TO.P,MX41,1,1*%
%TO.N,COL8*%
X214947500Y-53816250D03*
%TO.P,MX41,2,2*%
%TO.N,Net-(D41-A)*%
X208597500Y-51276250D03*
%TD*%
%TO.P,MX7,1,1*%
%TO.N,COL0*%
X62547500Y-110966250D03*
%TO.P,MX7,2,2*%
%TO.N,Net-(D7-A)*%
X56197500Y-108426250D03*
%TD*%
%TO.P,MX27,1,1*%
%TO.N,COL5*%
X157797500Y-72866250D03*
%TO.P,MX27,2,2*%
%TO.N,Net-(D27-A)*%
X151447500Y-70326250D03*
%TD*%
%TO.P,MX18,1,1*%
%TO.N,COL3*%
X119697500Y-91916250D03*
%TO.P,MX18,2,2*%
%TO.N,Net-(D18-A)*%
X113347500Y-89376250D03*
%TD*%
%TO.P,MX50,1,1*%
%TO.N,COL9*%
X233997500Y-130016250D03*
%TO.P,MX50,2,2*%
%TO.N,Net-(D50-A)*%
X227647500Y-127476250D03*
%TD*%
%TO.P,MX51,1,1*%
%TO.N,COL10*%
X253047500Y-53816250D03*
%TO.P,MX51,2,2*%
%TO.N,Net-(D51-A)*%
X246697500Y-51276250D03*
%TD*%
%TO.P,MX40,1,1*%
%TO.N,COL7*%
X195897500Y-130016250D03*
%TO.P,MX40,2,2*%
%TO.N,Net-(D40-A)*%
X189547500Y-127476250D03*
%TD*%
%TO.P,MX12,1,1*%
%TO.N,COL2*%
X100647500Y-72866250D03*
%TO.P,MX12,2,2*%
%TO.N,Net-(D12-A)*%
X94297500Y-70326250D03*
%TD*%
%TO.P,MX47,1,1*%
%TO.N,COL9*%
X233997500Y-72866250D03*
%TO.P,MX47,2,2*%
%TO.N,Net-(D47-A)*%
X227647500Y-70326250D03*
%TD*%
%TO.P,MX58,1,1*%
%TO.N,COL11*%
X272097500Y-91916250D03*
%TO.P,MX58,2,2*%
%TO.N,Net-(D58-A)*%
X265747500Y-89376250D03*
%TD*%
%TO.P,MX59,1,1*%
%TO.N,COL11*%
X272097500Y-110966250D03*
%TO.P,MX59,2,2*%
%TO.N,Net-(D59-A)*%
X265747500Y-108426250D03*
%TD*%
%TO.P,MX43,1,1*%
%TO.N,COL8*%
X214947500Y-91916250D03*
%TO.P,MX43,2,2*%
%TO.N,Net-(D43-A)*%
X208597500Y-89376250D03*
%TD*%
%TO.P,MX54,1,1*%
%TO.N,COL10*%
X253047500Y-110966250D03*
%TO.P,MX54,2,2*%
%TO.N,Net-(D54-A)*%
X246697500Y-108426250D03*
%TD*%
%TO.P,MX19,1,1*%
%TO.N,COL3*%
X119697500Y-110966250D03*
%TO.P,MX19,2,2*%
%TO.N,Net-(D19-A)*%
X113347500Y-108426250D03*
%TD*%
%TO.P,MX14,1,1*%
%TO.N,COL2*%
X100647500Y-110966250D03*
%TO.P,MX14,2,2*%
%TO.N,Net-(D14-A)*%
X94297500Y-108426250D03*
%TD*%
%TO.P,MX22,1,1*%
%TO.N,COL4*%
X138747500Y-72866250D03*
%TO.P,MX22,2,2*%
%TO.N,Net-(D22-A)*%
X132397500Y-70326250D03*
%TD*%
%TO.P,MX26,1,1*%
%TO.N,COL5*%
X157797500Y-53816250D03*
%TO.P,MX26,2,2*%
%TO.N,Net-(D26-A)*%
X151447500Y-51276250D03*
%TD*%
%TO.P,MX28,1,1*%
%TO.N,COL5*%
X157797500Y-91916250D03*
%TO.P,MX28,2,2*%
%TO.N,Net-(D28-A)*%
X151447500Y-89376250D03*
%TD*%
%TO.P,MX49,1,1*%
%TO.N,COL9*%
X233997500Y-110966250D03*
%TO.P,MX49,2,2*%
%TO.N,Net-(D49-A)*%
X227647500Y-108426250D03*
%TD*%
%TO.P,MX44,1,1*%
%TO.N,COL8*%
X214947500Y-110966250D03*
%TO.P,MX44,2,2*%
%TO.N,Net-(D44-A)*%
X208597500Y-108426250D03*
%TD*%
%TO.P,MX4,1,1*%
%TO.N,COL1*%
X81597500Y-72866250D03*
%TO.P,MX4,2,2*%
%TO.N,Net-(D4-A)*%
X75247500Y-70326250D03*
%TD*%
%TO.P,MX38,1,1*%
%TO.N,COL7*%
X195897500Y-91916250D03*
%TO.P,MX38,2,2*%
%TO.N,Net-(D38-A)*%
X189547500Y-89376250D03*
%TD*%
%TO.P,MX29,1,1*%
%TO.N,COL5*%
X157797500Y-110966250D03*
%TO.P,MX29,2,2*%
%TO.N,Net-(D29-A)*%
X151447500Y-108426250D03*
%TD*%
%TO.P,MX10,1,1*%
%TO.N,COL1*%
X81597500Y-130016250D03*
%TO.P,MX10,2,2*%
%TO.N,Net-(D10-A)*%
X75247500Y-127476250D03*
%TD*%
%TO.P,MX34,1,1*%
%TO.N,COL6*%
X176847500Y-110966250D03*
%TO.P,MX34,2,2*%
%TO.N,Net-(D34-A)*%
X170497500Y-108426250D03*
%TD*%
%TO.P,MX17,1,1*%
%TO.N,COL3*%
X119697500Y-72866250D03*
%TO.P,MX17,2,2*%
%TO.N,Net-(D17-A)*%
X113347500Y-70326250D03*
%TD*%
D13*
%TO.P,D11,1,K*%
%TO.N,ROW0*%
X91281250Y-61975000D03*
%TO.P,D11,2,A*%
%TO.N,Net-(D11-A)*%
X91281250Y-58675000D03*
%TD*%
%TO.P,D3,1,K*%
%TO.N,ROW1*%
X53181250Y-80962500D03*
%TO.P,D3,2,A*%
%TO.N,Net-(D3-A)*%
X53181250Y-77662500D03*
%TD*%
%TO.P,D28,1,K*%
%TO.N,ROW2*%
X148431250Y-100012500D03*
%TO.P,D28,2,A*%
%TO.N,Net-(D28-A)*%
X148431250Y-96712500D03*
%TD*%
%TO.P,D32,1,K*%
%TO.N,ROW1*%
X167481250Y-80962500D03*
%TO.P,D32,2,A*%
%TO.N,Net-(D32-A)*%
X167481250Y-77662500D03*
%TD*%
%TO.P,D12,1,K*%
%TO.N,ROW1*%
X91281250Y-80962500D03*
%TO.P,D12,2,A*%
%TO.N,Net-(D12-A)*%
X91281250Y-77662500D03*
%TD*%
%TO.P,D43,1,K*%
%TO.N,ROW2*%
X205581250Y-100075000D03*
%TO.P,D43,2,A*%
%TO.N,Net-(D43-A)*%
X205581250Y-96775000D03*
%TD*%
%TO.P,D40,1,K*%
%TO.N,ROW4*%
X186531250Y-138112500D03*
%TO.P,D40,2,A*%
%TO.N,Net-(D40-A)*%
X186531250Y-134812500D03*
%TD*%
%TO.P,D38,1,K*%
%TO.N,ROW2*%
X186531250Y-100075000D03*
%TO.P,D38,2,A*%
%TO.N,Net-(D38-A)*%
X186531250Y-96775000D03*
%TD*%
%TO.P,D49,1,K*%
%TO.N,ROW3*%
X224631250Y-119062500D03*
%TO.P,D49,2,A*%
%TO.N,Net-(D49-A)*%
X224631250Y-115762500D03*
%TD*%
%TO.P,D51,1,K*%
%TO.N,ROW0*%
X243681250Y-61912500D03*
%TO.P,D51,2,A*%
%TO.N,Net-(D51-A)*%
X243681250Y-58612500D03*
%TD*%
%TO.P,D53,1,K*%
%TO.N,ROW2*%
X243681250Y-100012500D03*
%TO.P,D53,2,A*%
%TO.N,Net-(D53-A)*%
X243681250Y-96712500D03*
%TD*%
%TO.P,D60,1,K*%
%TO.N,ROW4*%
X262731250Y-138112500D03*
%TO.P,D60,2,A*%
%TO.N,Net-(D60-A)*%
X262731250Y-134812500D03*
%TD*%
%TO.P,D5,1,K*%
%TO.N,ROW2*%
X53181250Y-100012500D03*
%TO.P,D5,2,A*%
%TO.N,Net-(D5-A)*%
X53181250Y-96712500D03*
%TD*%
%TO.P,D14,1,K*%
%TO.N,ROW3*%
X91281250Y-119125000D03*
%TO.P,D14,2,A*%
%TO.N,Net-(D14-A)*%
X91281250Y-115825000D03*
%TD*%
%TO.P,D50,1,K*%
%TO.N,ROW4*%
X224631250Y-138175000D03*
%TO.P,D50,2,A*%
%TO.N,Net-(D50-A)*%
X224631250Y-134875000D03*
%TD*%
%TO.P,D48,1,K*%
%TO.N,ROW2*%
X224631250Y-100075000D03*
%TO.P,D48,2,A*%
%TO.N,Net-(D48-A)*%
X224631250Y-96775000D03*
%TD*%
%TO.P,D10,1,K*%
%TO.N,ROW4*%
X72231250Y-138175000D03*
%TO.P,D10,2,A*%
%TO.N,Net-(D10-A)*%
X72231250Y-134875000D03*
%TD*%
%TO.P,D7,1,K*%
%TO.N,ROW3*%
X53181250Y-119062500D03*
%TO.P,D7,2,A*%
%TO.N,Net-(D7-A)*%
X53181250Y-115762500D03*
%TD*%
%TO.P,D26,1,K*%
%TO.N,ROW0*%
X148431250Y-61912500D03*
%TO.P,D26,2,A*%
%TO.N,Net-(D26-A)*%
X148431250Y-58612500D03*
%TD*%
%TO.P,D15,1,K*%
%TO.N,ROW4*%
X91281250Y-138112500D03*
%TO.P,D15,2,A*%
%TO.N,Net-(D15-A)*%
X91281250Y-134812500D03*
%TD*%
%TO.P,D9,1,K*%
%TO.N,ROW4*%
X53181250Y-138175000D03*
%TO.P,D9,2,A*%
%TO.N,Net-(D9-A)*%
X53181250Y-134875000D03*
%TD*%
%TO.P,D59,1,K*%
%TO.N,ROW3*%
X262731250Y-119062500D03*
%TO.P,D59,2,A*%
%TO.N,Net-(D59-A)*%
X262731250Y-115762500D03*
%TD*%
%TO.P,D19,1,K*%
%TO.N,ROW3*%
X110331250Y-119062500D03*
%TO.P,D19,2,A*%
%TO.N,Net-(D19-A)*%
X110331250Y-115762500D03*
%TD*%
%TO.P,D36,1,K*%
%TO.N,ROW0*%
X186531250Y-61975000D03*
%TO.P,D36,2,A*%
%TO.N,Net-(D36-A)*%
X186531250Y-58675000D03*
%TD*%
%TO.P,D22,1,K*%
%TO.N,ROW1*%
X129381250Y-80962500D03*
%TO.P,D22,2,A*%
%TO.N,Net-(D22-A)*%
X129381250Y-77662500D03*
%TD*%
%TO.P,D25,1,K*%
%TO.N,ROW4*%
X129381250Y-138112500D03*
%TO.P,D25,2,A*%
%TO.N,Net-(D25-A)*%
X129381250Y-134812500D03*
%TD*%
%TO.P,D23,1,K*%
%TO.N,ROW2*%
X129381250Y-100012500D03*
%TO.P,D23,2,A*%
%TO.N,Net-(D23-A)*%
X129381250Y-96712500D03*
%TD*%
%TO.P,D6,1,K*%
%TO.N,ROW2*%
X72231250Y-100012500D03*
%TO.P,D6,2,A*%
%TO.N,Net-(D6-A)*%
X72231250Y-96712500D03*
%TD*%
%TO.P,D2,1,K*%
%TO.N,ROW0*%
X72231250Y-61975000D03*
%TO.P,D2,2,A*%
%TO.N,Net-(D2-A)*%
X72231250Y-58675000D03*
%TD*%
%TO.P,D8,1,K*%
%TO.N,ROW3*%
X72231250Y-119062500D03*
%TO.P,D8,2,A*%
%TO.N,Net-(D8-A)*%
X72231250Y-115762500D03*
%TD*%
%TO.P,D4,1,K*%
%TO.N,ROW1*%
X72231250Y-80962500D03*
%TO.P,D4,2,A*%
%TO.N,Net-(D4-A)*%
X72231250Y-77662500D03*
%TD*%
%TO.P,D41,1,K*%
%TO.N,ROW0*%
X205581250Y-61975000D03*
%TO.P,D41,2,A*%
%TO.N,Net-(D41-A)*%
X205581250Y-58675000D03*
%TD*%
%TO.P,D16,1,K*%
%TO.N,ROW0*%
X110331250Y-61975000D03*
%TO.P,D16,2,A*%
%TO.N,Net-(D16-A)*%
X110331250Y-58675000D03*
%TD*%
%TO.P,D35,1,K*%
%TO.N,ROW4*%
X167481250Y-138112500D03*
%TO.P,D35,2,A*%
%TO.N,Net-(D35-A)*%
X167481250Y-134812500D03*
%TD*%
%TO.P,D45,1,K*%
%TO.N,ROW4*%
X205581250Y-138112500D03*
%TO.P,D45,2,A*%
%TO.N,Net-(D45-A)*%
X205581250Y-134812500D03*
%TD*%
%TO.P,D31,1,K*%
%TO.N,ROW0*%
X167481250Y-61912500D03*
%TO.P,D31,2,A*%
%TO.N,Net-(D31-A)*%
X167481250Y-58612500D03*
%TD*%
%TO.P,D1,1,K*%
%TO.N,ROW0*%
X53181250Y-61975000D03*
%TO.P,D1,2,A*%
%TO.N,Net-(D1-A)*%
X53181250Y-58675000D03*
%TD*%
%TO.P,D44,1,K*%
%TO.N,ROW3*%
X205581250Y-119062500D03*
%TO.P,D44,2,A*%
%TO.N,Net-(D44-A)*%
X205581250Y-115762500D03*
%TD*%
%TO.P,D18,1,K*%
%TO.N,ROW2*%
X110331250Y-100012500D03*
%TO.P,D18,2,A*%
%TO.N,Net-(D18-A)*%
X110331250Y-96712500D03*
%TD*%
%TO.P,D55,1,K*%
%TO.N,ROW4*%
X243681250Y-138112500D03*
%TO.P,D55,2,A*%
%TO.N,Net-(D55-A)*%
X243681250Y-134812500D03*
%TD*%
%TO.P,D39,1,K*%
%TO.N,ROW3*%
X186531250Y-119187500D03*
%TO.P,D39,2,A*%
%TO.N,Net-(D39-A)*%
X186531250Y-115887500D03*
%TD*%
%TO.P,D21,1,K*%
%TO.N,ROW0*%
X129381250Y-61912500D03*
%TO.P,D21,2,A*%
%TO.N,Net-(D21-A)*%
X129381250Y-58612500D03*
%TD*%
%TO.P,D13,1,K*%
%TO.N,ROW2*%
X91281250Y-100012500D03*
%TO.P,D13,2,A*%
%TO.N,Net-(D13-A)*%
X91281250Y-96712500D03*
%TD*%
%TO.P,D56,1,K*%
%TO.N,ROW0*%
X262731250Y-62037500D03*
%TO.P,D56,2,A*%
%TO.N,Net-(D56-A)*%
X262731250Y-58737500D03*
%TD*%
%TO.P,D37,1,K*%
%TO.N,ROW1*%
X186531250Y-80962500D03*
%TO.P,D37,2,A*%
%TO.N,Net-(D37-A)*%
X186531250Y-77662500D03*
%TD*%
%TO.P,D20,1,K*%
%TO.N,ROW4*%
X110331250Y-138112500D03*
%TO.P,D20,2,A*%
%TO.N,Net-(D20-A)*%
X110331250Y-134812500D03*
%TD*%
%TO.P,D29,1,K*%
%TO.N,ROW3*%
X148431250Y-119062500D03*
%TO.P,D29,2,A*%
%TO.N,Net-(D29-A)*%
X148431250Y-115762500D03*
%TD*%
%TO.P,D30,1,K*%
%TO.N,ROW4*%
X148431250Y-138112500D03*
%TO.P,D30,2,A*%
%TO.N,Net-(D30-A)*%
X148431250Y-134812500D03*
%TD*%
%TO.P,D52,1,K*%
%TO.N,ROW1*%
X243681250Y-81025000D03*
%TO.P,D52,2,A*%
%TO.N,Net-(D52-A)*%
X243681250Y-77725000D03*
%TD*%
D14*
%TO.P,SW1,1,1*%
%TO.N,GND*%
X136000000Y-14881250D03*
%TO.P,SW1,2,2*%
%TO.N,Net-(U2-~{RESET})*%
X129800000Y-18581250D03*
%TO.P,SW1,3*%
%TO.N,N/C*%
X136000000Y-18581250D03*
%TO.P,SW1,4*%
X129800000Y-14881250D03*
%TD*%
D13*
%TO.P,D57,1,K*%
%TO.N,ROW1*%
X262731250Y-80962500D03*
%TO.P,D57,2,A*%
%TO.N,Net-(D57-A)*%
X262731250Y-77662500D03*
%TD*%
%TO.P,D42,1,K*%
%TO.N,ROW1*%
X205581250Y-80962500D03*
%TO.P,D42,2,A*%
%TO.N,Net-(D42-A)*%
X205581250Y-77662500D03*
%TD*%
%TO.P,D47,1,K*%
%TO.N,ROW1*%
X224631250Y-80962500D03*
%TO.P,D47,2,A*%
%TO.N,Net-(D47-A)*%
X224631250Y-77662500D03*
%TD*%
%TO.P,D27,1,K*%
%TO.N,ROW1*%
X148431250Y-80962500D03*
%TO.P,D27,2,A*%
%TO.N,Net-(D27-A)*%
X148431250Y-77662500D03*
%TD*%
%TO.P,D58,1,K*%
%TO.N,ROW2*%
X262731250Y-100075000D03*
%TO.P,D58,2,A*%
%TO.N,Net-(D58-A)*%
X262731250Y-96775000D03*
%TD*%
%TO.P,D24,1,K*%
%TO.N,ROW3*%
X129381250Y-119062500D03*
%TO.P,D24,2,A*%
%TO.N,Net-(D24-A)*%
X129381250Y-115762500D03*
%TD*%
%TO.P,D46,1,K*%
%TO.N,ROW0*%
X224631250Y-61912500D03*
%TO.P,D46,2,A*%
%TO.N,Net-(D46-A)*%
X224631250Y-58612500D03*
%TD*%
%TO.P,D17,1,K*%
%TO.N,ROW1*%
X110331250Y-81025000D03*
%TO.P,D17,2,A*%
%TO.N,Net-(D17-A)*%
X110331250Y-77725000D03*
%TD*%
%TO.P,D54,1,K*%
%TO.N,ROW3*%
X243681250Y-119062500D03*
%TO.P,D54,2,A*%
%TO.N,Net-(D54-A)*%
X243681250Y-115762500D03*
%TD*%
%TO.P,D34,1,K*%
%TO.N,ROW3*%
X167481250Y-119062500D03*
%TO.P,D34,2,A*%
%TO.N,Net-(D34-A)*%
X167481250Y-115762500D03*
%TD*%
%TO.P,D33,1,K*%
%TO.N,ROW2*%
X167481250Y-100012500D03*
%TO.P,D33,2,A*%
%TO.N,Net-(D33-A)*%
X167481250Y-96712500D03*
%TD*%
D15*
%TO.N,GND*%
X137150000Y-24481250D03*
%TO.N,+5V*%
X139150000Y-41981250D03*
X128900000Y-27481250D03*
X126900000Y-46231250D03*
X121375000Y-24756250D03*
X134150000Y-27481250D03*
%TO.N,ROW0*%
X142500000Y-36500000D03*
%TO.N,Net-(D1-A)*%
X54768750Y-54768750D03*
%TO.N,Net-(D2-A)*%
X73818750Y-54768750D03*
%TO.N,ROW1*%
X142500000Y-35699997D03*
%TO.N,Net-(D3-A)*%
X54768750Y-73818750D03*
%TO.N,Net-(D4-A)*%
X73818750Y-73818750D03*
%TO.N,ROW2*%
X142500000Y-34899994D03*
%TO.N,Net-(D5-A)*%
X54768750Y-92868750D03*
%TO.N,Net-(D6-A)*%
X73818750Y-92868750D03*
%TO.N,Net-(D7-A)*%
X54768750Y-111918750D03*
%TO.N,ROW3*%
X142500000Y-34099991D03*
%TO.N,Net-(D8-A)*%
X73818750Y-111918750D03*
%TO.N,Net-(D9-A)*%
X54768750Y-130968750D03*
%TO.N,ROW4*%
X142500000Y-33299988D03*
%TO.N,Net-(D10-A)*%
X73818750Y-130968750D03*
%TO.N,Net-(D11-A)*%
X92868750Y-54768750D03*
%TO.N,Net-(D12-A)*%
X92868750Y-73818750D03*
%TO.N,Net-(D13-A)*%
X92868750Y-92868750D03*
%TO.N,Net-(D14-A)*%
X92868750Y-111918750D03*
%TO.N,Net-(D15-A)*%
X92868750Y-130968750D03*
%TO.N,Net-(D16-A)*%
X111918750Y-54768750D03*
%TO.N,Net-(D17-A)*%
X111918750Y-73818750D03*
%TO.N,Net-(D18-A)*%
X111918750Y-92868750D03*
%TO.N,Net-(D19-A)*%
X111918750Y-111918750D03*
%TO.N,Net-(D20-A)*%
X111918750Y-130968750D03*
%TO.N,Net-(D21-A)*%
X130968750Y-54768750D03*
%TO.N,Net-(D22-A)*%
X130968750Y-73818750D03*
%TO.N,Net-(D23-A)*%
X130968750Y-92868750D03*
%TO.N,Net-(D24-A)*%
X130968750Y-111918750D03*
%TO.N,Net-(D25-A)*%
X130968750Y-130968750D03*
%TO.N,Net-(D26-A)*%
X150018750Y-54768750D03*
%TO.N,Net-(D27-A)*%
X150018750Y-73818750D03*
%TO.N,Net-(D28-A)*%
X150018750Y-92868750D03*
%TO.N,Net-(D29-A)*%
X150018750Y-111918750D03*
%TO.N,Net-(D30-A)*%
X150018750Y-130968750D03*
%TO.N,Net-(D31-A)*%
X169068750Y-54768750D03*
%TO.N,Net-(D32-A)*%
X169068750Y-73818750D03*
%TO.N,Net-(D33-A)*%
X169068750Y-92868750D03*
%TO.N,Net-(D34-A)*%
X169068750Y-111918750D03*
%TO.N,Net-(D35-A)*%
X169068750Y-130968750D03*
%TO.N,Net-(D36-A)*%
X188118750Y-54768750D03*
%TO.N,Net-(D37-A)*%
X188118750Y-73818750D03*
%TO.N,Net-(D38-A)*%
X188118750Y-92868750D03*
%TO.N,Net-(D39-A)*%
X188118750Y-111918750D03*
%TO.N,Net-(D40-A)*%
X188118750Y-130968750D03*
%TO.N,Net-(D41-A)*%
X207168750Y-54768750D03*
%TO.N,Net-(D42-A)*%
X207168750Y-73818750D03*
%TO.N,Net-(D43-A)*%
X207168750Y-92868750D03*
%TO.N,Net-(D44-A)*%
X207168750Y-111918750D03*
%TO.N,Net-(D45-A)*%
X207168750Y-130968750D03*
%TO.N,Net-(D46-A)*%
X226218750Y-54768750D03*
%TO.N,Net-(D47-A)*%
X226218750Y-73818750D03*
%TO.N,Net-(D48-A)*%
X226218750Y-92868750D03*
%TO.N,Net-(D49-A)*%
X226218750Y-111918750D03*
%TO.N,Net-(D50-A)*%
X226218750Y-130968750D03*
%TO.N,Net-(D51-A)*%
X245268750Y-54768750D03*
%TO.N,Net-(D52-A)*%
X245268750Y-73818750D03*
%TO.N,Net-(D53-A)*%
X245268750Y-92868750D03*
%TO.N,Net-(D54-A)*%
X245268750Y-111918750D03*
%TO.N,Net-(D55-A)*%
X245268750Y-130968750D03*
%TO.N,Net-(D56-A)*%
X264318750Y-54768750D03*
%TO.N,Net-(D57-A)*%
X264318750Y-73818750D03*
%TO.N,Net-(D58-A)*%
X264318750Y-92868750D03*
%TO.N,Net-(D59-A)*%
X264318750Y-111918750D03*
%TO.N,Net-(D60-A)*%
X264318750Y-130968750D03*
%TO.N,Net-(J1-CC2)*%
X157250000Y-16500000D03*
%TO.N,D-*%
X150332802Y-22523182D03*
%TO.N,Net-(U2-~{RESET})*%
X122900000Y-21981250D03*
%TO.N,Net-(U2-D+)*%
X147000000Y-23250000D03*
X152500000Y-28000000D03*
%TD*%
D16*
%TO.N,GND*%
X146519996Y-18850000D02*
X137350000Y-18850000D01*
X136000000Y-14881250D02*
X137200000Y-16081250D01*
X137350000Y-18850000D02*
X137200000Y-19000000D01*
X137200000Y-16081250D02*
X137200000Y-19000000D01*
X137200000Y-19000000D02*
X137200000Y-24431250D01*
X137200000Y-24431250D02*
X137150000Y-24481250D01*
%TO.N,+5V*%
X153100000Y-28248529D02*
X149117279Y-32231250D01*
X139400000Y-32231250D02*
X139400000Y-41231250D01*
X149449996Y-19450000D02*
X149449996Y-22488905D01*
X149449996Y-22488905D02*
X151961091Y-25000000D01*
X134650000Y-27481250D02*
X134150000Y-27481250D01*
X134150000Y-27481250D02*
X128900000Y-27481250D01*
X153100000Y-25000000D02*
X153100000Y-28248529D01*
X139400000Y-32231250D02*
X134650000Y-27481250D01*
X128900000Y-27481250D02*
X124150000Y-27481250D01*
X151961091Y-25000000D02*
X153100000Y-25000000D01*
X139150000Y-41981250D02*
X134900000Y-46231250D01*
X134900000Y-46231250D02*
X126900000Y-46231250D01*
X149117279Y-32231250D02*
X139400000Y-32231250D01*
X151849996Y-19450000D02*
X153100000Y-20700004D01*
X139400000Y-41231250D02*
X139150000Y-41481250D01*
X139150000Y-41481250D02*
X139150000Y-41981250D01*
X121425000Y-24756250D02*
X121375000Y-24756250D01*
X153100000Y-20700004D02*
X153100000Y-25000000D01*
X124150000Y-27481250D02*
X121425000Y-24756250D01*
%TO.N,ROW0*%
X262731250Y-62037500D02*
X276462500Y-62037500D01*
X262731250Y-62037500D02*
X53243750Y-62037500D01*
X276462500Y-62037500D02*
X276500000Y-62000000D01*
X53243750Y-62037500D02*
X53181250Y-61975000D01*
X276500000Y-62000000D02*
X276500000Y-47250000D01*
X265750000Y-36500000D02*
X276500000Y-47250000D01*
X142500000Y-36500000D02*
X265750000Y-36500000D01*
%TO.N,Net-(D1-A)*%
X54882500Y-56973750D02*
X53181250Y-58675000D01*
X54768750Y-54768750D02*
X54768750Y-55562500D01*
X54768750Y-55562500D02*
X54882500Y-55676250D01*
X54882500Y-55676250D02*
X54882500Y-56973750D01*
%TO.N,Net-(D2-A)*%
X73932500Y-54882500D02*
X73932500Y-56973750D01*
X73932500Y-56973750D02*
X72231250Y-58675000D01*
X73818750Y-54768750D02*
X73932500Y-54882500D01*
%TO.N,ROW1*%
X276900000Y-46834315D02*
X276900000Y-80100000D01*
X142500000Y-35699997D02*
X265765682Y-35699997D01*
X276900000Y-80100000D02*
X276000000Y-81000000D01*
X269581162Y-81000000D02*
X269543662Y-80962500D01*
X269543662Y-80962500D02*
X262731250Y-80962500D01*
X53181250Y-80962500D02*
X262731250Y-80962500D01*
X276000000Y-81000000D02*
X269581162Y-81000000D01*
X265765682Y-35699997D02*
X276900000Y-46834315D01*
%TO.N,Net-(D3-A)*%
X54882500Y-73932500D02*
X54882500Y-75961250D01*
X54768750Y-73818750D02*
X54882500Y-73932500D01*
X54882500Y-75961250D02*
X53181250Y-77662500D01*
%TO.N,Net-(D4-A)*%
X73818750Y-74612500D02*
X73932500Y-74726250D01*
X73932500Y-74726250D02*
X73932500Y-75961250D01*
X73932500Y-75961250D02*
X72231250Y-77662500D01*
X73818750Y-73818750D02*
X73818750Y-74612500D01*
%TO.N,ROW2*%
X142500000Y-34899994D02*
X265531364Y-34899994D01*
X262731250Y-100075000D02*
X53243750Y-100075000D01*
X142548526Y-34899994D02*
X142500000Y-34899994D01*
X265531364Y-34899994D02*
X276731370Y-46100000D01*
X276000000Y-100075000D02*
X277300000Y-98775000D01*
X53243750Y-100075000D02*
X53181250Y-100012500D01*
X277300000Y-98775000D02*
X277300000Y-46668629D01*
X277300000Y-46668629D02*
X276631371Y-46000000D01*
X262731250Y-100075000D02*
X276000000Y-100075000D01*
%TO.N,Net-(D5-A)*%
X54768750Y-92868750D02*
X54882500Y-92982500D01*
X54882500Y-92982500D02*
X54882500Y-95011250D01*
X54882500Y-95011250D02*
X53181250Y-96712500D01*
%TO.N,Net-(D6-A)*%
X73932500Y-95011250D02*
X72231250Y-96712500D01*
X73932500Y-93776250D02*
X73932500Y-95011250D01*
X73818750Y-92868750D02*
X73818750Y-93662500D01*
X73818750Y-93662500D02*
X73932500Y-93776250D01*
%TO.N,Net-(D7-A)*%
X54882500Y-114061250D02*
X53181250Y-115762500D01*
X54768750Y-111918750D02*
X54768750Y-112712500D01*
X54882500Y-112826250D02*
X54882500Y-114061250D01*
X54768750Y-112712500D02*
X54882500Y-112826250D01*
%TO.N,ROW3*%
X277250000Y-119062500D02*
X277700000Y-118612500D01*
X277700000Y-46502943D02*
X276973528Y-45776472D01*
X276973528Y-45776472D02*
X265297047Y-34099991D01*
X262731250Y-119062500D02*
X277250000Y-119062500D01*
X277700000Y-118612500D02*
X277700000Y-46502943D01*
X265297047Y-34099991D02*
X142500000Y-34099991D01*
X53181250Y-119062500D02*
X262731250Y-119062500D01*
%TO.N,Net-(D8-A)*%
X73932500Y-112032500D02*
X73932500Y-114061250D01*
X73818750Y-111918750D02*
X73932500Y-112032500D01*
X73932500Y-114061250D02*
X72231250Y-115762500D01*
%TO.N,Net-(D9-A)*%
X54882500Y-131082500D02*
X54882500Y-133173750D01*
X54768750Y-130968750D02*
X54882500Y-131082500D01*
X54882500Y-133173750D02*
X53181250Y-134875000D01*
%TO.N,ROW4*%
X265062731Y-33299988D02*
X278006371Y-46243628D01*
X262668750Y-138175000D02*
X262731250Y-138112500D01*
X53181250Y-138175000D02*
X262668750Y-138175000D01*
X278006371Y-46243628D02*
X278006372Y-46243628D01*
X278100000Y-137875000D02*
X278100000Y-46337257D01*
X142500000Y-33299988D02*
X265062731Y-33299988D01*
X278100000Y-46337257D02*
X278006372Y-46243628D01*
X262731250Y-138112500D02*
X277862500Y-138112500D01*
X277862500Y-138112500D02*
X278100000Y-137875000D01*
%TO.N,Net-(D10-A)*%
X73818750Y-130968750D02*
X73818750Y-131762500D01*
X73932500Y-133173750D02*
X72231250Y-134875000D01*
X73818750Y-131762500D02*
X73932500Y-131876250D01*
X73932500Y-131876250D02*
X73932500Y-133173750D01*
%TO.N,Net-(D11-A)*%
X92982500Y-54882500D02*
X92982500Y-56973750D01*
X92868750Y-54768750D02*
X92982500Y-54882500D01*
X92982500Y-56973750D02*
X91281250Y-58675000D01*
%TO.N,Net-(D12-A)*%
X92982500Y-75961250D02*
X91281250Y-77662500D01*
X92868750Y-73818750D02*
X92982500Y-73932500D01*
X92982500Y-73932500D02*
X92982500Y-75961250D01*
%TO.N,Net-(D13-A)*%
X92868750Y-92868750D02*
X92982500Y-92982500D01*
X92982500Y-92982500D02*
X92982500Y-95011250D01*
X92982500Y-95011250D02*
X91281250Y-96712500D01*
%TO.N,Net-(D14-A)*%
X92982500Y-114123750D02*
X91281250Y-115825000D01*
X92868750Y-111918750D02*
X92982500Y-112032500D01*
X92982500Y-112032500D02*
X92982500Y-114123750D01*
%TO.N,Net-(D15-A)*%
X92982500Y-131876250D02*
X92982500Y-133111250D01*
X92982500Y-133111250D02*
X91281250Y-134812500D01*
X92868750Y-130968750D02*
X92868750Y-131762500D01*
X92868750Y-131762500D02*
X92982500Y-131876250D01*
%TO.N,Net-(D16-A)*%
X112032500Y-54882500D02*
X112032500Y-56973750D01*
X111918750Y-54768750D02*
X112032500Y-54882500D01*
X112032500Y-56973750D02*
X110331250Y-58675000D01*
%TO.N,Net-(D17-A)*%
X112032500Y-74726250D02*
X112032500Y-76023750D01*
X112032500Y-76023750D02*
X110331250Y-77725000D01*
X111918750Y-73818750D02*
X111918750Y-74612500D01*
X111918750Y-74612500D02*
X112032500Y-74726250D01*
%TO.N,Net-(D18-A)*%
X112032500Y-92982500D02*
X112032500Y-95011250D01*
X112032500Y-95011250D02*
X110331250Y-96712500D01*
X111918750Y-92868750D02*
X112032500Y-92982500D01*
%TO.N,Net-(D19-A)*%
X112032500Y-114061250D02*
X110331250Y-115762500D01*
X111918750Y-111918750D02*
X111918750Y-112712500D01*
X111918750Y-112712500D02*
X112032500Y-112826250D01*
X112032500Y-112826250D02*
X112032500Y-114061250D01*
%TO.N,Net-(D20-A)*%
X111918750Y-130968750D02*
X112032500Y-131082500D01*
X112032500Y-131082500D02*
X112032500Y-133111250D01*
X112032500Y-133111250D02*
X110331250Y-134812500D01*
%TO.N,Net-(D21-A)*%
X131082500Y-56911250D02*
X129381250Y-58612500D01*
X131082500Y-55676250D02*
X131082500Y-56911250D01*
X130968750Y-55562500D02*
X131082500Y-55676250D01*
X130968750Y-54768750D02*
X130968750Y-55562500D01*
%TO.N,Net-(D22-A)*%
X130968750Y-73818750D02*
X131082500Y-73932500D01*
X131082500Y-73932500D02*
X131082500Y-75961250D01*
X131082500Y-75961250D02*
X129381250Y-77662500D01*
%TO.N,Net-(D23-A)*%
X131082500Y-95011250D02*
X129381250Y-96712500D01*
X130968750Y-92868750D02*
X131082500Y-92982500D01*
X131082500Y-92982500D02*
X131082500Y-95011250D01*
%TO.N,Net-(D24-A)*%
X131082500Y-114061250D02*
X129381250Y-115762500D01*
X131082500Y-112826250D02*
X131082500Y-114061250D01*
X130968750Y-112712500D02*
X131082500Y-112826250D01*
X130968750Y-111918750D02*
X130968750Y-112712500D01*
%TO.N,Net-(D25-A)*%
X131082500Y-131082500D02*
X131082500Y-133111250D01*
X131082500Y-133111250D02*
X129381250Y-134812500D01*
X130968750Y-130968750D02*
X131082500Y-131082500D01*
%TO.N,Net-(D26-A)*%
X150018750Y-54768750D02*
X150132500Y-54882500D01*
X150132500Y-56911250D02*
X148431250Y-58612500D01*
X150132500Y-54882500D02*
X150132500Y-56911250D01*
%TO.N,Net-(D27-A)*%
X150018750Y-73818750D02*
X150018750Y-74612500D01*
X150132500Y-75961250D02*
X148431250Y-77662500D01*
X150132500Y-74726250D02*
X150132500Y-75961250D01*
X150018750Y-74612500D02*
X150132500Y-74726250D01*
%TO.N,Net-(D28-A)*%
X150132500Y-92982500D02*
X150132500Y-95011250D01*
X150018750Y-92868750D02*
X150132500Y-92982500D01*
X150132500Y-95011250D02*
X148431250Y-96712500D01*
%TO.N,Net-(D29-A)*%
X150132500Y-112032500D02*
X150132500Y-114061250D01*
X150018750Y-111918750D02*
X150132500Y-112032500D01*
X150132500Y-114061250D02*
X148431250Y-115762500D01*
%TO.N,Net-(D30-A)*%
X150018750Y-130968750D02*
X150018750Y-131762500D01*
X150132500Y-133111250D02*
X148431250Y-134812500D01*
X150132500Y-131876250D02*
X150132500Y-133111250D01*
X150018750Y-131762500D02*
X150132500Y-131876250D01*
%TO.N,Net-(D31-A)*%
X169182500Y-54882500D02*
X169182500Y-56911250D01*
X169068750Y-54768750D02*
X169182500Y-54882500D01*
X169182500Y-56911250D02*
X167481250Y-58612500D01*
%TO.N,Net-(D32-A)*%
X169182500Y-75961250D02*
X167481250Y-77662500D01*
X169182500Y-73932500D02*
X169182500Y-75961250D01*
X169068750Y-73818750D02*
X169182500Y-73932500D01*
%TO.N,Net-(D33-A)*%
X169182500Y-92982500D02*
X169182500Y-95011250D01*
X169182500Y-95011250D02*
X167481250Y-96712500D01*
X169068750Y-92868750D02*
X169182500Y-92982500D01*
%TO.N,Net-(D34-A)*%
X169182500Y-114061250D02*
X167481250Y-115762500D01*
X169182500Y-112826250D02*
X169182500Y-114061250D01*
X169068750Y-111918750D02*
X169068750Y-112712500D01*
X169068750Y-112712500D02*
X169182500Y-112826250D01*
%TO.N,Net-(D35-A)*%
X169182500Y-133111250D02*
X167481250Y-134812500D01*
X169182500Y-131082500D02*
X169182500Y-133111250D01*
X169068750Y-130968750D02*
X169182500Y-131082500D01*
%TO.N,Net-(D36-A)*%
X188118750Y-55562500D02*
X188232500Y-55676250D01*
X188232500Y-55676250D02*
X188232500Y-56973750D01*
X188118750Y-54768750D02*
X188118750Y-55562500D01*
X188232500Y-56973750D02*
X186531250Y-58675000D01*
%TO.N,Net-(D37-A)*%
X188232500Y-75961250D02*
X186531250Y-77662500D01*
X188118750Y-73818750D02*
X188232500Y-73932500D01*
X188232500Y-73932500D02*
X188232500Y-75961250D01*
%TO.N,Net-(D38-A)*%
X188118750Y-92868750D02*
X188232500Y-92982500D01*
X188232500Y-92982500D02*
X188232500Y-95073750D01*
X188232500Y-95073750D02*
X186531250Y-96775000D01*
%TO.N,Net-(D39-A)*%
X188118750Y-112712500D02*
X188232500Y-112826250D01*
X188232500Y-112826250D02*
X188232500Y-114186250D01*
X188118750Y-111918750D02*
X188118750Y-112712500D01*
X188232500Y-114186250D02*
X186531250Y-115887500D01*
%TO.N,Net-(D40-A)*%
X188118750Y-131762500D02*
X188232500Y-131876250D01*
X188232500Y-133111250D02*
X186531250Y-134812500D01*
X188118750Y-130968750D02*
X188118750Y-131762500D01*
X188232500Y-131876250D02*
X188232500Y-133111250D01*
%TO.N,Net-(D41-A)*%
X207168750Y-55562500D02*
X207282500Y-55676250D01*
X207282500Y-56973750D02*
X205581250Y-58675000D01*
X207168750Y-54768750D02*
X207168750Y-55562500D01*
X207282500Y-55676250D02*
X207282500Y-56973750D01*
%TO.N,Net-(D42-A)*%
X207282500Y-73932500D02*
X207282500Y-75961250D01*
X207282500Y-75961250D02*
X205581250Y-77662500D01*
X207168750Y-73818750D02*
X207282500Y-73932500D01*
%TO.N,Net-(D43-A)*%
X207168750Y-92868750D02*
X207282500Y-92982500D01*
X207282500Y-92982500D02*
X207282500Y-95073750D01*
X207282500Y-95073750D02*
X205581250Y-96775000D01*
%TO.N,Net-(D44-A)*%
X207168750Y-111918750D02*
X207282500Y-112032500D01*
X207282500Y-114061250D02*
X205581250Y-115762500D01*
X207282500Y-112032500D02*
X207282500Y-114061250D01*
%TO.N,Net-(D45-A)*%
X207168750Y-130968750D02*
X207168750Y-131762500D01*
X207168750Y-131762500D02*
X207282500Y-131876250D01*
X207282500Y-131876250D02*
X207282500Y-133111250D01*
X207282500Y-133111250D02*
X205581250Y-134812500D01*
%TO.N,Net-(D46-A)*%
X226332500Y-55676250D02*
X226332500Y-56911250D01*
X226332500Y-56911250D02*
X224631250Y-58612500D01*
X226218750Y-55562500D02*
X226332500Y-55676250D01*
X226218750Y-54768750D02*
X226218750Y-55562500D01*
%TO.N,Net-(D47-A)*%
X226218750Y-73818750D02*
X226332500Y-73932500D01*
X226332500Y-73932500D02*
X226332500Y-75961250D01*
X226332500Y-75961250D02*
X224631250Y-77662500D01*
%TO.N,Net-(D48-A)*%
X226218750Y-92868750D02*
X226332500Y-92982500D01*
X226332500Y-92982500D02*
X226332500Y-95073750D01*
X226332500Y-95073750D02*
X224631250Y-96775000D01*
%TO.N,Net-(D49-A)*%
X226218750Y-111918750D02*
X226332500Y-112032500D01*
X226332500Y-114061250D02*
X224631250Y-115762500D01*
X226332500Y-112032500D02*
X226332500Y-114061250D01*
%TO.N,Net-(D50-A)*%
X226332500Y-133173750D02*
X224631250Y-134875000D01*
X226218750Y-130968750D02*
X226218750Y-131762500D01*
X226218750Y-131762500D02*
X226332500Y-131876250D01*
X226332500Y-131876250D02*
X226332500Y-133173750D01*
%TO.N,Net-(D51-A)*%
X245382500Y-56911250D02*
X243681250Y-58612500D01*
X245382500Y-54882500D02*
X245382500Y-56911250D01*
X245268750Y-54768750D02*
X245382500Y-54882500D01*
%TO.N,Net-(D52-A)*%
X245382500Y-76023750D02*
X243681250Y-77725000D01*
X245268750Y-73818750D02*
X245268750Y-74612500D01*
X245268750Y-74612500D02*
X245382500Y-74726250D01*
X245382500Y-74726250D02*
X245382500Y-76023750D01*
%TO.N,Net-(D53-A)*%
X245382500Y-95011250D02*
X243681250Y-96712500D01*
X245268750Y-92868750D02*
X245382500Y-92982500D01*
X245382500Y-92982500D02*
X245382500Y-95011250D01*
%TO.N,Net-(D54-A)*%
X245382500Y-112826250D02*
X245382500Y-114061250D01*
X245382500Y-114061250D02*
X243681250Y-115762500D01*
X245268750Y-112712500D02*
X245382500Y-112826250D01*
X245268750Y-111918750D02*
X245268750Y-112712500D01*
%TO.N,Net-(D55-A)*%
X245382500Y-133111250D02*
X243681250Y-134812500D01*
X245268750Y-130968750D02*
X245382500Y-131082500D01*
X245382500Y-131082500D02*
X245382500Y-133111250D01*
%TO.N,Net-(D56-A)*%
X264432500Y-57036250D02*
X262731250Y-58737500D01*
X264318750Y-55562500D02*
X264432500Y-55676250D01*
X264318750Y-54768750D02*
X264318750Y-55562500D01*
X264432500Y-55676250D02*
X264432500Y-57036250D01*
%TO.N,Net-(D57-A)*%
X264432500Y-75961250D02*
X262731250Y-77662500D01*
X264432500Y-74726250D02*
X264432500Y-75961250D01*
X264318750Y-74612500D02*
X264432500Y-74726250D01*
X264318750Y-73818750D02*
X264318750Y-74612500D01*
%TO.N,Net-(D58-A)*%
X264432500Y-95073750D02*
X262731250Y-96775000D01*
X264318750Y-93662500D02*
X264432500Y-93776250D01*
X264432500Y-93776250D02*
X264432500Y-95073750D01*
X264318750Y-92868750D02*
X264318750Y-93662500D01*
%TO.N,Net-(D59-A)*%
X264432500Y-114061250D02*
X262731250Y-115762500D01*
X264318750Y-112712500D02*
X264432500Y-112826250D01*
X264318750Y-111918750D02*
X264318750Y-112712500D01*
X264432500Y-112826250D02*
X264432500Y-114061250D01*
%TO.N,Net-(D60-A)*%
X264432500Y-133111250D02*
X262731250Y-134812500D01*
X264432500Y-131876250D02*
X264432500Y-133111250D01*
X264318750Y-131762500D02*
X264432500Y-131876250D01*
X264318750Y-130968750D02*
X264318750Y-131762500D01*
%TO.N,Net-(J1-CC2)*%
X149849996Y-18750000D02*
X152099996Y-16500000D01*
X152099996Y-16500000D02*
X157250000Y-16500000D01*
%TO.N,D-*%
X151049996Y-19450000D02*
X151049996Y-21805988D01*
X151049996Y-21805988D02*
X150332802Y-22523182D01*
%TO.N,Net-(U2-~{RESET})*%
X126150000Y-18731250D02*
X122900000Y-21981250D01*
X129400000Y-18731250D02*
X126150000Y-18731250D01*
X129800000Y-18581250D02*
X129550000Y-18581250D01*
X129550000Y-18581250D02*
X129400000Y-18731250D01*
%TO.N,Net-(U2-D+)*%
X151750000Y-28000000D02*
X147000000Y-23250000D01*
X152500000Y-28000000D02*
X151750000Y-28000000D01*
%TD*%
M02*
